{
.appVersion = "3400";
.formatVersion = 3;
axes = (
{
name = Weight;
tag = wght;
}
);
classes = (
{
automatic = 1;
code = "A Aacute Abreve Acaron Acircumflex Adieresis Agrave Amacron Aogonek Aring Aringacute Atilde AE B C Cacute Ccaron Ccedilla Cdotaccent D Dcaron Dcroat Eth E Eacute Ecaron Ecircumflex Edieresis Edotaccent Egrave Emacron Eogonek F Fhook G Gbreve Gcommaaccent Gdotaccent H Hbar I IJ Iacute Icaron Icircumflex Idieresis Idotaccent Igrave Imacron Iogonek J K Kcommaaccent L Lacute Lcaron Lcommaaccent Ldot Lslash M N Nacute Ncaron Ncommaaccent Ntilde Eng O Oacute Ocaron Ocircumflex Odieresis Ograve Ohungarumlaut Omacron Oslash Otilde OE P Thorn Q R Racute Rcaron Rcommaaccent S Sacute Scaron Scedilla Scommaaccent Germandbls T Tbar Tcaron Tcedilla Tcommaaccent U Uacute Ubreve Ucaron Ucircumflex Udieresis Udieresisacute Udieresiscaron Udieresisgrave Udieresismacron Ugrave Uhungarumlaut Umacron Uogonek Uring Utilde V W Wacute Wcircumflex Wdieresis Wgrave X Y Yacute Ycircumflex Ydieresis Ygrave Ytilde Z Zacute Zcaron Zdotaccent";
name = Uppercase;
}
);
customParameters = (
{
name = fsType;
value = (
);
},
{
name = "Use Typo Metrics";
value = 1;
},
{
name = panose;
value = (
0,
0,
0,
0,
0,
0,
0,
0,
0,
0
);
},
{
name = "Variable Font Origin";
value = "9372F035-DA38-4B54-966C-CEBA9B53DD02";
},
{
name = "Axis Mappings";
value = {
wght = {
400 = 85;
500 = 102;
600 = 120;
700 = 155;
};
};
},
{
name = blueFuzz;
value = 0;
}
);
date = "2018-11-14 11:04:06 +0000";
familyName = Baskervville;
featurePrefixes = (
{
automatic = 1;
code = "languagesystem DFLT dflt;

languagesystem latn dflt;
languagesystem latn AZE;
languagesystem latn CRT;
languagesystem latn KAZ;
languagesystem latn TAT;
languagesystem latn TRK;
languagesystem latn ROM;
languagesystem latn MOL;
languagesystem latn CAT;
";
name = Languagesystems;
}
);
features = (
{
automatic = 1;
code = "feature locl;
feature subs;
feature sinf;
feature sups;
feature numr;
feature dnom;
feature frac;
feature ordn;

glyphs = (
{
color = 6;
glyphname = A;
kernLeft = A;
kernRight = A;
lastChange = "2025-02-28 12:20:44 +0000";
layers = (
{
anchors = (
{
name = bottom;
pos = (367,0);
},
{
name = ogonek;
pos = (672,0);
},
{
name = top;
pos = (381,710);
}
);
layerId = "9372F035-DA38-4B54-966C-CEBA9B53DD02";
shapes = (
{
closed = 1;
nodes = (
(106,0,l),
(233,-3,l),
(233,22,l),
(213,24,ls),
(138,32,o),
(128,49,o),
(159,124,cs),
(369,633,l),
(345,633,l),
(547,124,ls),
(574,54,o),
(563,31,o),
(496,24,cs),
(476,22,l),
(476,-3,l),
(636,0,l),
(760,-3,l),
(760,22,l),
(740,24,ls),
(689,29,o),
(662,54,o),
(634,123,cs),
(396,715,l),
(366,715,l),
(122,123,ls),
(93,52,o),
(66,31,o),
(-6,23,cs),
(-15,22,l),
(-15,-3,l)
);
},
{
closed = 1;
nodes = (
(501,254,l),
(489,286,l),
(221,286,l),
(208,254,l)
);
}
);
width = 745;
},
{
anchors = (
{
name = bottom;
pos = (334,0);
},
{
name = ogonek;
pos = (659,0);
},
{
name = top;
pos = (370,709);
}
);
layerId = m002;
shapes = (
{
closed = 1;
nodes = (
(92,-1,l),
(227,-3,l),
(227,37,l),
(197,39,ls),
(140,43,o),
(122,89,o),
(151,160,cs),
(346,635,l),
(298,635,l),
(491,123,ls),
(508,77,o),
(492,43,o),
(450,39,cs),
(428,37,l),
(428,-3,l),
(588,0,l),
(751,-3,l),
(751,37,l),
(731,39,ls),
(691,43,o),
(677,56,o),
(659,103,cs),
(430,710,l),
(318,710,l),
(89,153,ls),
(48,54,o),
(39,43,o),
(-10,38,cs),
(-20,37,l),
(-20,-3,l)
);
},
{
closed = 1;
nodes = (
(491,233,l),
(479,287,l),
(181,287,l),
(168,233,l)
);
}
);
width = 731;
}
);
unicode = 65;
},
{
color = 6;
glyphname = Aogonek;
kernLeft = A;
kernRight = A;
lastChange = "2025-02-28 12:20:44 +0000";
layers = (
{
background = {
anchors = (
{
name = _ogonek;
pos = (551,0);
}
);
shapes = (
{
closed = 1;
nodes = (
(578,-294,o),
(622,-255,o),
(640,-182,c),
(623,-170,l),
(602,-214,o),
(568,-239,o),
(528,-239,cs),
(483,-239,o),
(455,-210,o),
(455,-161,cs),
(455,-79,o),
(533,0,o),
(615,0,c),
(597,33,l),
(486,-14,o),
(402,-95,o),
(402,-184,cs),
(402,-249,o),
(448,-294,o),
(515,-294,cs)
);
}
);
};
layerId = "9372F035-DA38-4B54-966C-CEBA9B53DD02";
shapes = (
{
closed = 1;
nodes = (
(578,-294,o),
(622,-255,o),
(640,-182,c),
(623,-170,l),
(602,-214,o),
(568,-239,o),
(528,-239,cs),
(483,-239,o),
(455,-210,o),
(455,-161,cs),
(455,-79,o),
(533,0,o),
(615,0,cs),
(642,0,l),
(760,-3,l),
(760,22,l),
(740,24,ls),
(689,29,o),
(662,54,o),
(634,123,cs),
(396,715,l),
(366,715,l),
(122,123,ls),
(93,52,o),
(66,31,o),
(-6,23,cs),
(-15,22,l),
(-15,-3,l),
(106,0,l),
(233,-3,l),
(233,22,l),
(213,24,ls),
(145,31,o),
(134,54,o),
(163,124,cs),
(370,633,l),
(347,633,l),
(535,147,ls),
(560,83,o),
(552,50,o),
(493,-17,cs),
(425,-93,o),
(402,-139,o),
(402,-184,cs),
(402,-249,o),
(448,-294,o),
(515,-294,cs)
);
},
{
closed = 1;
nodes = (
(501,255,l),
(489,286,l),
(221,286,l),
(208,255,l)
);
}
);
width = 745;
},
{
layerId = m002;
shapes = (
{
closed = 1;
nodes = (
(552,-294,o),
(610,-249,o),
(631,-178,c),
(604,-165,l),
(583,-202,o),
(557,-219,o),
(525,-219,cs),
(482,-219,o),
(455,-190,o),
(455,-142,cs),
(455,-61,o),
(529,0,o),
(627,0,cs),
(636,0,l),
(751,-3,l),
(751,37,l),
(731,39,ls),
(691,43,o),
(677,56,o),
(659,103,cs),
(430,710,l),
(318,710,l),
(89,153,ls),
(48,53,o),
(39,43,o),
(-10,38,cs),
(-20,37,l),
(-20,-3,l),
(92,-1,l),
(227,-3,l),
(227,37,l),
(197,39,ls),
(139,43,o),
(122,88,o),
(151,160,cs),
(350,645,l),
(303,622,l),
(491,123,ls),
(517,54,o),
(514,43,o),
(452,-34,cs),
(380,-123,o),
(365,-150,o),
(365,-192,cs),
(365,-253,o),
(412,-294,o),
(481,-294,cs)
);
},
{
closed = 1;
nodes = (
(474,233,l),
(453,287,l),
(188,287,l),
(166,233,l)
);
}
);
width = 731;
}
);
metricLeft = A;
metricRight = A;
unicode = 260;
},
{
color = 6;
glyphname = AE;
kernLeft = AE;
kernRight = E;
lastChange = "2025-02-28 12:20:44 +0000";
layers = (
{
anchors = (
{
name = bottom;
pos = (509,0);
},
{
name = top;
pos = (509,710);
}
);
layerId = "9372F035-DA38-4B54-966C-CEBA9B53DD02";
shapes = (
{
closed = 1;
nodes = (
(117,0,l),
(244,-3,l),
(244,19,l),
(213,22,ls),
(178,26,o),
(159,41,o),
(159,67,cs),
(159,83,o),
(166,103,o),
(180,125,cs),
(520,691,l),
(504,696,l),
(504,199,ls),
(504,58,o),
(494,29,o),
(440,24,cs),
(368,17,l),
(368,-3,l),
(523,0,l),
(967,0,l),
(970,90,l),
(977,210,l),
(952,210,l),
(939,56,o),
(911,25,o),
(781,25,cs),
(688,25,ls),
(619,25,o),
(591,48,o),
(591,107,cs),
(591,683,l),
(721,683,ls),
(875,683,o),
(902,665,o),
(920,546,c),
(944,546,l),
(936,638,l),
(934,713,l),
(832,710,l),
(505,710,l),
(396,713,l),
(396,690,l),
(432,688,ls),
(453,687,o),
(464,680,o),
(464,667,cs),
(464,655,o),
(457,641,o),
(435,603,cs),
(146,123,ls),
(103,51,o),
(73,29,o),
(11,22,cs),
(-15,19,l),
(-15,-3,l)
);
},
{
closed = 1;
nodes = (
(511,310,l),
(511,336,l),
(299,336,l),
(283,310,l)
);
},
{
closed = 1;
nodes = (
(797,226,l),
(794,374,l),
(797,508,l),
(772,508,l),
(768,422,o),
(747,387,o),
(701,387,cs),
(585,387,l),
(585,362,l),
(701,362,ls),
(750,362,o),
(772,319,o),
(772,226,c)
);
}
);
width = 1017;
},
{
anchors = (
{
name = bottom;
pos = (505,0);
},
{
name = top;
pos = (505,710);
}
);
layerId = m002;
shapes = (
{
closed = 1;
nodes = (
(92,-1,l),
(234,-3,l),
(234,37,l),
(204,39,ls),
(166,42,o),
(146,56,o),
(146,82,cs),
(146,101,o),
(156,127,o),
(176,156,cs),
(512,667,l),
(477,677,l),
(477,133,ls),
(477,61,o),
(466,45,o),
(411,40,cs),
(391,38,l),
(391,-3,l),
(549,0,l),
(980,0,l),
(983,90,l),
(990,230,l),
(949,230,l),
(935,95,o),
(881,44,o),
(754,44,cs),
(731,44,ls),
(653,44,o),
(632,57,o),
(632,107,cs),
(632,666,l),
(714,666,ls),
(857,666,o),
(908,632,o),
(927,526,c),
(967,526,l),
(959,638,l),
(957,713,l),
(817,710,l),
(509,710,l),
(351,713,l),
(351,673,l),
(371,672,ls),
(403,671,o),
(418,662,o),
(418,644,cs),
(418,631,o),
(411,613,o),
(397,593,cs),
(109,153,ls),
(39,45,o),
(36,42,o),
(-10,38,cs),
(-20,37,l),
(-20,-3,l)
);
},
{
closed = 1;
nodes = (
(491,233,l),
(491,287,l),
(221,287,l),
(198,233,l)
);
},
{
closed = 1;
nodes = (
(830,216,l),
(827,374,l),
(830,518,l),
(790,518,l),
(779,428,o),
(746,396,o),
(664,396,cs),
(586,396,l),
(586,352,l),
(664,352,ls),
(749,352,o),
(785,313,o),
(790,216,c)
);
}
);
width = 1010;
}
);
metricLeft = A;
metricRight = E;
unicode = 198;
},
{
color = 6;
glyphname = B;
kernLeft = H;
kernRight = B;
lastChange = "2025-02-28 12:20:44 +0000";
layers = (
{
anchors = (
{
name = bottom;
pos = (332,0);
},
{
name = top;
pos = (332,710);
}
);
layerId = "9372F035-DA38-4B54-966C-CEBA9B53DD02";
shapes = (
{
closed = 1;
nodes = (
(188,0,l),
(366,0,ls),
(529,0,o),
(626,75,o),
(626,202,cs),
(626,313,o),
(553,376,o),
(420,381,c),
(423,374,l),
(527,405,o),
(584,467,o),
(584,550,cs),
(584,652,o),
(486,710,o),
(310,710,cs),
(188,710,l),
(40,713,l),
(40,688,l),
(60,686,ls),
(137,678,o),
(146,667,o),
(146,577,cs),
(146,133,ls),
(146,43,o),
(137,32,o),
(60,24,cs),
(40,22,l),
(40,-3,l)
);
},
{
closed = 1;
nodes = (
(249,28,o),
(227,55,o),
(227,129,cs),
(227,682,l),
(340,682,ls),
(451,682,o),
(491,646,o),
(491,547,cs),
(491,443,o),
(445,387,o),
(360,387,cs),
(221,387,l),
(221,359,l),
(320,359,ls),
(484,359,o),
(532,323,o),
(532,199,cs),
(532,79,o),
(483,28,o),
(366,28,cs),
(310,28,ls)
);
}
);
width = 686;
},
{
anchors = (
{
name = bottom;
pos = (343,0);
},
{
name = top;
pos = (324,710);
}
);
layerId = m002;
shapes = (
{
closed = 1;
nodes = (
(194,0,l),
(376,0,ls),
(569,0,o),
(684,75,o),
(684,202,cs),
(684,307,o),
(603,369,o),
(451,380,c),
(453,355,l),
(577,377,o),
(639,437,o),
(639,533,cs),
(639,655,o),
(541,710,o),
(324,710,cs),
(188,710,l),
(30,713,l),
(30,673,l),
(50,671,ls),
(104,666,o),
(116,649,o),
(116,577,cs),
(116,133,ls),
(116,61,o),
(105,45,o),
(50,40,cs),
(30,38,l),
(30,-3,l)
);
},
{
closed = 1;
nodes = (
(290,50,o),
(271,66,o),
(271,133,cs),
(271,660,l),
(343,660,ls),
(428,660,o),
(469,618,o),
(469,530,cs),
(469,432,o),
(432,397,o),
(328,397,cs),
(235,397,l),
(235,347,l),
(330,347,ls),
(470,347,o),
(512,314,o),
(512,203,cs),
(512,95,o),
(472,50,o),
(376,50,cs),
(366,50,ls)
);
}
);
width = 724;
}
);
metricLeft = I;
unicode = 66;
},
{
color = 6;
glyphname = C;
kernLeft = O;
kernRight = C;
lastChange = "2025-02-28 12:20:44 +0000";
layers = (
{
anchors = (
{
name = bottom;
pos = (381,0);
},
{
name = top;
pos = (394,710);
}
);
layerId = "9372F035-DA38-4B54-966C-CEBA9B53DD02";
shapes = (
{
closed = 1;
nodes = (
(445,-11,o),
(495,2,o),
(557,33,cs),
(579,44,o),
(587,47,o),
(594,47,cs),
(606,47,o),
(615,36,o),
(623,11,cs),
(626,0,l),
(650,0,l),
(647,117,l),
(649,239,l),
(625,239,l),
(608,102,o),
(520,19,o),
(391,19,cs),
(241,19,o),
(164,131,o),
(164,349,cs),
(164,574,o),
(245,694,o),
(398,694,cs),
(522,694,o),
(602,616,o),
(622,476,c),
(647,476,l),
(645,593,l),
(647,710,l),
(622,710,l),
(620,687,o),
(610,672,o),
(597,672,cs),
(590,672,o),
(579,676,o),
(556,687,cs),
(506,711,o),
(449,724,o),
(400,724,cs),
(206,724,o),
(62,564,o),
(62,349,cs),
(62,136,o),
(195,-11,o),
(386,-11,cs)
);
}
);
width = 720;
},
{
anchors = (
{
name = bottom;
pos = (392,0);
},
{
name = top;
pos = (405,710);
}
);
layerId = m002;
shapes = (
{
closed = 1;
nodes = (
(453,-11,o),
(510,0,o),
(568,21,cs),
(584,27,o),
(597,30,o),
(607,30,cs),
(625,30,o),
(637,21,o),
(641,4,cs),
(642,0,l),
(681,0,l),
(678,117,l),
(680,249,l),
(644,249,l),
(616,118,o),
(531,39,o),
(419,39,cs),
(290,39,o),
(225,143,o),
(225,350,cs),
(225,563,o),
(293,674,o),
(424,674,cs),
(533,674,o),
(611,598,o),
(637,466,c),
(678,466,l),
(676,593,l),
(678,710,l),
(638,710,l),
(633,690,o),
(624,680,o),
(610,680,cs),
(602,680,o),
(597,681,o),
(567,693,cs),
(516,713,o),
(461,724,o),
(411,724,cs),
(203,724,o),
(50,564,o),
(50,348,cs),
(50,135,o),
(192,-11,o),
(400,-11,cs)
);
}
);
width = 731;
}
);
metricLeft = O;
unicode = 67;
},
{
color = 6;
glyphname = D;
kernLeft = H;
kernRight = O;
lastChange = "2025-02-28 12:20:44 +0000";
layers = (
{
anchors = (
{
name = bottom;
pos = (381,0);
},
{
name = center;
pos = (234,355);
},
{
name = top;
pos = (383,710);
}
);
layerId = "9372F035-DA38-4B54-966C-CEBA9B53DD02";
shapes = (
{
closed = 1;
nodes = (
(188,0,l),
(380,0,ls),
(604,0,o),
(750,145,o),
(750,368,cs),
(750,595,o),
(608,710,o),
(330,710,cs),
(189,710,l),
(41,713,l),
(41,688,l),
(61,686,ls),
(138,678,o),
(147,667,o),
(147,577,cs),
(147,133,ls),
(147,44,o),
(137,32,o),
(60,24,cs),
(40,22,l),
(40,-3,l)
);
},
{
closed = 1;
nodes = (
(252,30,o),
(233,63,o),
(233,146,cs),
(233,680,l),
(359,680,ls),
(558,680,o),
(654,576,o),
(654,361,cs),
(654,146,o),
(559,30,o),
(384,30,cs),
(299,30,ls)
);
}
);
width = 812;
},
{
anchors = (
{
name = bottom;
pos = (381,0);
},
{
name = center;
pos = (239,367);
},
{
name = top;
pos = (371,710);
}
);
layerId = m002;
shapes = (
{
closed = 1;
nodes = (
(193,0,l),
(420,0,ls),
(640,0,o),
(783,145,o),
(783,369,cs),
(783,596,o),
(645,710,o),
(370,710,cs),
(199,710,l),
(30,713,l),
(30,673,l),
(50,671,ls),
(104,666,o),
(116,649,o),
(116,577,cs),
(116,133,ls),
(116,61,o),
(105,45,o),
(50,40,cs),
(30,38,l),
(30,-3,l)
);
},
{
closed = 1;
nodes = (
(296,50,o),
(271,79,o),
(271,153,cs),
(271,660,l),
(369,660,ls),
(531,660,o),
(608,563,o),
(608,360,cs),
(608,159,o),
(533,50,o),
(394,50,cs),
(357,50,l)
);
}
);
width = 833;
}
);
metricLeft = I;
metricRight = O;
unicode = 68;
},
{
color = 3;
glyphname = Eth;
kernLeft = H;
kernRight = O;
lastChange = "2025-02-28 12:20:44 +0000";
layers = (
{
layerId = "9372F035-DA38-4B54-966C-CEBA9B53DD02";
shapes = (
{
closed = 1;
nodes = (
(426,352,l),
(426,382,l),
(41,382,l),
(41,352,l)
);
},
{
ref = D;
}
);
width = 812;
},
{
layerId = m002;
shapes = (
{
closed = 1;
nodes = (
(448,342,l),
(448,392,l),
(31,392,l),
(31,342,l)
);
},
{
ref = D;
}
);
width = 833;
}
);
metricLeft = D;
metricRight = D;
unicode = 208;
},
{
color = 6;
glyphname = E;
kernLeft = H;
kernRight = H;
lastChange = "2025-02-28 12:20:44 +0000";
layers = (
{
anchors = (
{
name = bottom;
pos = (353,0);
},
{
name = ogonek;
pos = (599,0);
},
{
name = top;
pos = (353,710);
},
{
name = topleft;
pos = (2,710);
}
);
layerId = "9372F035-DA38-4B54-966C-CEBA9B53DD02";
shapes = (
{
closed = 1;
nodes = (
(188,0,l),
(599,0,l),
(602,90,l),
(609,210,l),
(584,210,l),
(571,60,o),
(543,28,o),
(423,28,cs),
(330,28,ls),
(252,28,o),
(231,45,o),
(231,107,cs),
(231,681,l),
(363,681,ls),
(517,681,o),
(544,663,o),
(562,546,c),
(586,546,l),
(578,638,l),
(576,713,l),
(451,710,l),
(188,710,l),
(40,713,l),
(40,688,l),
(60,686,ls),
(137,677,o),
(146,666,o),
(146,577,cs),
(146,133,ls),
(146,44,o),
(137,33,o),
(60,24,cs),
(40,22,l),
(40,-3,l)
);
},
{
closed = 1;
nodes = (
(439,226,l),
(436,374,l),
(439,508,l),
(414,508,l),
(410,422,o),
(389,388,o),
(343,388,cs),
(225,388,l),
(225,360,l),
(343,360,ls),
(392,360,o),
(414,318,o),
(414,226,c)
);
}
);
width = 649;
},
{
anchors = (
{
name = bottom;
pos = (353,0);
},
{
name = ogonek;
pos = (619,0);
},
{
name = top;
pos = (363,710);
},
{
name = topleft;
pos = (2,710);
}
);
layerId = m002;
shapes = (
{
closed = 1;
nodes = (
(188,0,l),
(619,0,l),
(622,90,l),
(629,230,l),
(588,230,l),
(574,95,o),
(520,44,o),
(393,44,cs),
(370,44,ls),
(292,44,o),
(271,57,o),
(271,107,cs),
(271,666,l),
(353,666,ls),
(496,666,o),
(547,632,o),
(566,526,c),
(606,526,l),
(598,638,l),
(596,713,l),
(456,710,l),
(188,710,l),
(30,713,l),
(30,673,l),
(50,671,ls),
(104,666,o),
(116,649,o),
(116,577,cs),
(116,133,ls),
(116,61,o),
(105,45,o),
(50,40,cs),
(30,38,l),
(30,-3,l)
);
},
{
closed = 1;
nodes = (
(469,216,l),
(466,374,l),
(469,518,l),
(429,518,l),
(418,428,o),
(385,396,o),
(303,396,cs),
(225,396,l),
(225,352,l),
(303,352,ls),
(388,352,o),
(424,313,o),
(429,216,c)
);
}
);
width = 649;
}
);
metricLeft = I;
unicode = 69;
},
{
color = 6;
glyphname = F;
kernLeft = H;
kernRight = F;
lastChange = "2025-02-28 12:20:44 +0000";
layers = (
{
anchors = (
{
name = bottom;
pos = (197,0);
},
{
name = top;
pos = (337,710);
}
);
layerId = "9372F035-DA38-4B54-966C-CEBA9B53DD02";
shapes = (
{
closed = 1;
nodes = (
(188,0,l),
(189,0,l),
(351,-3,l),
(351,22,l),
(317,24,ls),
(243,29,o),
(231,44,o),
(231,133,cs),
(231,681,l),
(395,681,ls),
(514,681,o),
(570,640,o),
(578,548,c),
(602,548,l),
(593,637,l),
(590,713,l),
(468,710,l),
(188,710,l),
(40,713,l),
(40,688,l),
(60,686,ls),
(137,677,o),
(146,666,o),
(146,577,cs),
(146,133,ls),
(146,44,o),
(137,33,o),
(60,24,cs),
(40,22,l),
(40,-3,l)
);
},
{
closed = 1;
nodes = (
(439,226,l),
(436,374,l),
(439,508,l),
(414,508,l),
(410,422,o),
(389,388,o),
(343,388,cs),
(225,388,l),
(225,360,l),
(343,360,ls),
(392,360,o),
(414,318,o),
(414,226,c)
);
}
);
width = 607;
},
{
anchors = (
{
name = bottom;
pos = (207,0);
},
{
name = top;
pos = (347,710);
}
);
layerId = m002;
shapes = (
{
closed = 1;
nodes = (
(188,0,l),
(194,0,l),
(377,-3,l),
(377,38,l),
(337,40,ls),
(282,43,o),
(271,61,o),
(271,133,cs),
(271,666,l),
(353,666,ls),
(505,666,o),
(568,628,o),
(586,526,c),
(626,526,l),
(618,638,l),
(616,713,l),
(497,710,l),
(188,710,l),
(30,713,l),
(30,673,l),
(50,671,ls),
(104,666,o),
(116,649,o),
(116,577,cs),
(116,133,ls),
(116,61,o),
(105,45,o),
(50,40,cs),
(30,38,l),
(30,-3,l)
);
},
{
closed = 1;
nodes = (
(469,216,l),
(466,374,l),
(469,518,l),
(429,518,l),
(418,428,o),
(385,396,o),
(303,396,cs),
(225,396,l),
(225,352,l),
(303,352,ls),
(388,352,o),
(424,313,o),
(429,216,c)
);
}
);
width = 630;
}
);
metricLeft = I;
unicode = 70;
},
{
color = 6;
glyphname = Fhook;
kernLeft = H;
kernRight = F;
lastChange = "2025-02-28 12:20:44 +0000";
layers = (
{
anchors = (
{
name = top;
pos = (337,710);
}
);
layerId = "9372F035-DA38-4B54-966C-CEBA9B53DD02";
shapes = (
{
closed = 1;
nodes = (
(176,-290,o),
(231,-234,o),
(231,-138,cs),
(231,683,l),
(395,683,ls),
(514,683,o),
(570,641,o),
(578,548,c),
(602,548,l),
(593,637,l),
(590,711,l),
(518,710,l),
(188,710,l),
(40,713,l),
(40,688,l),
(60,686,ls),
(137,678,o),
(146,667,o),
(146,577,cs),
(146,-156,ls),
(146,-225,o),
(119,-266,o),
(74,-266,cs),
(50,-266,o),
(37,-256,o),
(37,-238,cs),
(37,-222,o),
(48,-210,o),
(48,-191,cs),
(48,-165,o),
(28,-149,o),
(2,-149,cs),
(-29,-149,o),
(-49,-172,o),
(-49,-204,cs),
(-49,-255,o),
(1,-290,o),
(80,-290,cs)
);
},
{
closed = 1;
nodes = (
(439,226,l),
(436,374,l),
(439,508,l),
(414,508,l),
(409,409,o),
(382,388,o),
(343,388,cs),
(225,388,l),
(225,360,l),
(343,360,ls),
(389,360,o),
(414,323,o),
(414,226,c)
);
}
);
width = 607;
},
{
anchors = (
{
name = top;
pos = (337,710);
}
);
layerId = m002;
shapes = (
{
closed = 1;
nodes = (
(203,-290,o),
(270,-219,o),
(270,-73,cs),
(271,666,l),
(353,666,ls),
(505,666,o),
(568,628,o),
(586,526,c),
(626,526,l),
(618,638,l),
(616,713,l),
(497,710,l),
(188,710,l),
(30,713,l),
(30,673,l),
(50,671,ls),
(104,666,o),
(116,649,o),
(116,577,cs),
(116,-95,ls),
(116,-207,o),
(102,-246,o),
(61,-246,cs),
(41,-246,o),
(30,-236,o),
(30,-219,cs),
(30,-200,o),
(42,-182,o),
(42,-161,cs),
(42,-129,o),
(15,-103,o),
(-33,-103,cs),
(-81,-103,o),
(-108,-129,o),
(-108,-175,cs),
(-108,-247,o),
(-43,-290,o),
(65,-290,cs)
);
},
{
closed = 1;
nodes = (
(469,216,l),
(466,374,l),
(469,518,l),
(429,518,l),
(417,416,o),
(374,396,o),
(303,396,cs),
(225,396,l),
(225,352,l),
(303,352,ls),
(385,352,o),
(424,317,o),
(429,216,c)
);
}
);
width = 630;
}
);
metricRight = F;
unicode = 401;
},
{
color = 6;
glyphname = G;
kernLeft = O;
kernRight = G;
lastChange = "2025-02-28 12:20:44 +0000";
layers = (
{
anchors = (
{
name = bottom;
pos = (399,0);
},
{
name = top;
pos = (399,710);
}
);
layerId = "9372F035-DA38-4B54-966C-CEBA9B53DD02";
shapes = (
{
closed = 1;
nodes = (
(463,-11,o),
(518,7,o),
(576,48,cs),
(613,74,o),
(616,75,o),
(629,75,cs),
(648,75,o),
(663,64,o),
(680,39,c),
(703,54,l),
(689,79,ls),
(675,104,o),
(667,132,o),
(667,156,cs),
(667,174,ls),
(667,229,o),
(686,257,o),
(728,261,cs),
(773,265,l),
(773,289,l),
(619,285,l),
(453,289,l),
(453,265,l),
(496,261,ls),
(569,254,o),
(592,233,o),
(592,174,cs),
(592,146,ls),
(592,77,o),
(504,19,o),
(398,19,cs),
(247,19,o),
(164,136,o),
(164,350,cs),
(164,569,o),
(251,694,o),
(402,694,cs),
(527,694,o),
(616,607,o),
(621,478,c),
(646,478,l),
(644,595,l),
(646,710,l),
(621,710,l),
(621,686,o),
(610,673,o),
(592,673,cs),
(578,673,o),
(565,677,o),
(536,692,cs),
(488,717,o),
(447,724,o),
(403,724,cs),
(212,724,o),
(62,559,o),
(62,348,cs),
(62,141,o),
(204,-11,o),
(397,-11,cs)
);
}
);
width = 785;
},
{
anchors = (
{
name = bottom;
pos = (410,0);
},
{
name = top;
pos = (410,710);
}
);
layerId = m002;
shapes = (
{
closed = 1;
nodes = (
(467,-11,o),
(505,5,o),
(549,30,cs),
(586,51,o),
(603,64,o),
(631,64,cs),
(659,64,o),
(684,51,o),
(704,24,c),
(737,48,l),
(727,67,ls),
(705,109,o),
(696,139,o),
(696,171,cs),
(696,178,ls),
(696,230,o),
(719,256,o),
(769,262,cs),
(794,265,l),
(794,305,l),
(620,301,l),
(434,305,l),
(434,265,l),
(487,261,ls),
(536,257,o),
(553,234,o),
(553,174,cs),
(553,151,ls),
(553,87,o),
(502,39,o),
(415,39,cs),
(288,39,o),
(225,142,o),
(225,348,cs),
(225,565,o),
(295,674,o),
(425,674,cs),
(533,674,o),
(610,599,o),
(637,466,c),
(678,466,l),
(676,593,l),
(678,710,l),
(635,710,l),
(629,688,o),
(620,680,o),
(605,680,cs),
(598,680,o),
(590,682,o),
(576,688,cs),
(538,704,o),
(485,724,o),
(410,724,cs),
(202,724,o),
(50,564,o),
(50,346,cs),
(50,135,o),
(193,-11,o),
(399,-11,cs)
);
}
);
width = 796;
}
);
metricLeft = O;
unicode = 71;
},
{
color = 6;
glyphname = H;
kernLeft = H;
kernRight = H;
lastChange = "2025-02-28 12:20:44 +0000";
layers = (
{
anchors = (
{
name = bottom;
pos = (420,0);
},
{
name = center;
pos = (419,478);
},
{
name = ogonek;
pos = (214,0);
},
{
name = top;
pos = (425,710);
},
{
name = topleft;
pos = (-10,710);
}
);
layerId = "9372F035-DA38-4B54-966C-CEBA9B53DD02";
shapes = (
{
closed = 1;
nodes = (
(655,0,l),
(803,-3,l),
(803,22,l),
(783,24,ls),
(706,33,o),
(697,44,o),
(697,133,cs),
(697,577,ls),
(697,666,o),
(706,677,o),
(783,686,cs),
(803,688,l),
(803,713,l),
(655,710,l),
(506,713,l),
(506,688,l),
(526,686,ls),
(603,677,o),
(612,666,o),
(612,577,cs),
(612,133,ls),
(612,44,o),
(603,33,o),
(526,24,cs),
(506,22,l),
(506,-3,l)
);
},
{
closed = 1;
nodes = (
(189,0,l),
(337,-3,l),
(337,22,l),
(317,24,ls),
(240,33,o),
(231,44,o),
(231,133,cs),
(231,577,ls),
(231,666,o),
(240,677,o),
(317,686,cs),
(337,688,l),
(337,713,l),
(189,710,l),
(40,713,l),
(40,688,l),
(60,686,ls),
(137,677,o),
(146,666,o),
(146,577,cs),
(146,133,ls),
(146,44,o),
(137,33,o),
(60,24,cs),
(40,22,l),
(40,-3,l)
);
},
{
closed = 1;
nodes = (
(640,351,l),
(640,383,l),
(198,383,l),
(198,351,l)
);
}
);
width = 843;
},
{
anchors = (
{
name = bottom;
pos = (411,0);
},
{
name = center;
pos = (419,493);
},
{
name = ogonek;
pos = (214,0);
},
{
name = top;
pos = (419,710);
},
{
name = topleft;
pos = (-10,710);
}
);
layerId = m002;
shapes = (
{
closed = 1;
nodes = (
(660,0,l),
(823,-3,l),
(823,38,l),
(803,40,ls),
(748,45,o),
(737,61,o),
(737,133,cs),
(737,577,ls),
(737,649,o),
(749,666,o),
(803,671,cs),
(823,673,l),
(823,713,l),
(660,710,l),
(496,713,l),
(496,673,l),
(516,671,ls),
(570,666,o),
(582,649,o),
(582,577,cs),
(582,133,ls),
(582,61,o),
(571,45,o),
(516,40,cs),
(496,38,l),
(496,-3,l)
);
},
{
closed = 1;
nodes = (
(194,0,l),
(357,-3,l),
(357,38,l),
(337,40,ls),
(282,45,o),
(271,61,o),
(271,133,cs),
(271,577,ls),
(271,649,o),
(283,666,o),
(337,671,cs),
(357,673,l),
(357,713,l),
(194,710,l),
(30,713,l),
(30,673,l),
(50,671,ls),
(104,666,o),
(116,649,o),
(116,577,cs),
(116,133,ls),
(116,61,o),
(105,45,o),
(50,40,cs),
(30,38,l),
(30,-3,l)
);
},
{
closed = 1;
nodes = (
(640,342,l),
(640,394,l),
(198,394,l),
(198,342,l)
);
}
);
width = 853;
}
);
metricLeft = I;
metricRight = I;
unicode = 72;
},
{
color = 6;
glyphname = I;
kernLeft = H;
kernRight = H;
lastChange = "2025-02-28 12:20:44 +0000";
layers = (
{
anchors = (
{
name = bottom;
pos = (180,0);
},
{
name = ogonek;
pos = (288,0);
},
{
name = top;
pos = (188,710);
},
{
name = topleft;
pos = (-5,710);
}
);
layerId = "9372F035-DA38-4B54-966C-CEBA9B53DD02";
shapes = (
{
closed = 1;
nodes = (
(189,0,l),
(337,-3,l),
(337,22,l),
(317,24,ls),
(240,33,o),
(231,44,o),
(231,133,cs),
(231,577,ls),
(231,666,o),
(240,677,o),
(317,686,cs),
(337,688,l),
(337,713,l),
(189,710,l),
(40,713,l),
(40,688,l),
(60,686,ls),
(137,677,o),
(146,666,o),
(146,577,cs),
(146,133,ls),
(146,44,o),
(137,33,o),
(60,24,cs),
(40,22,l),
(40,-3,l)
);
}
);
width = 377;
},
{
anchors = (
{
name = bottom;
pos = (195,0);
},
{
name = ogonek;
pos = (315,0);
},
{
name = top;
pos = (196,710);
},
{
name = topleft;
pos = (-5,710);
}
);
layerId = m002;
shapes = (
{
closed = 1;
nodes = (
(194,0,l),
(357,-3,l),
(357,38,l),
(337,40,ls),
(282,45,o),
(271,61,o),
(271,133,cs),
(271,577,ls),
(271,649,o),
(283,666,o),
(337,671,cs),
(357,673,l),
(357,713,l),
(194,710,l),
(30,713,l),
(30,673,l),
(50,671,ls),
(104,666,o),
(116,649,o),
(116,577,cs),
(116,133,ls),
(116,61,o),
(105,45,o),
(50,40,cs),
(30,38,l),
(30,-3,l)
);
}
);
width = 387;
}
);
unicode = 73;
},
{
color = 6;
glyphname = J;
kernLeft = J;
kernRight = J;
lastChange = "2025-02-28 12:20:44 +0000";
layers = (
{
anchors = (
{
name = bottom;
pos = (193,0);
},
{
name = top;
pos = (253,710);
}
);
layerId = "9372F035-DA38-4B54-966C-CEBA9B53DD02";
shapes = (
{
closed = 1;
nodes = (
(243,-11,o),
(295,42,o),
(295,141,cs),
(295,577,ls),
(295,666,o),
(304,678,o),
(381,686,cs),
(401,688,l),
(401,713,l),
(253,710,l),
(252,710,l),
(104,713,l),
(104,688,l),
(124,686,ls),
(201,678,o),
(210,667,o),
(210,577,cs),
(210,123,ls),
(210,56,o),
(181,13,o),
(136,13,cs),
(114,13,o),
(101,24,o),
(101,42,cs),
(101,48,o),
(102,53,o),
(106,62,cs),
(111,74,o),
(112,81,o),
(112,88,cs),
(112,112,o),
(93,130,o),
(66,130,cs),
(36,130,o),
(15,108,o),
(15,76,cs),
(15,24,o),
(68,-11,o),
(145,-11,cs)
);
}
);
width = 431;
},
{
anchors = (
{
name = bottom;
pos = (246,0);
},
{
name = top;
pos = (306,710);
}
);
layerId = m002;
shapes = (
{
closed = 1;
nodes = (
(314,-14,o),
(382,58,o),
(382,203,cs),
(383,577,ls),
(383,649,o),
(395,666,o),
(449,671,cs),
(469,673,l),
(469,713,l),
(306,710,l),
(305,710,l),
(142,713,l),
(142,673,l),
(162,671,ls),
(216,666,o),
(228,649,o),
(228,577,cs),
(228,181,ls),
(228,69,o),
(214,30,o),
(173,30,cs),
(154,30,o),
(142,40,o),
(142,56,cs),
(142,63,o),
(144,72,o),
(148,85,cs),
(152,98,o),
(154,108,o),
(154,114,cs),
(154,149,o),
(124,173,o),
(83,173,cs),
(31,173,o),
(4,141,o),
(4,96,cs),
(4,29,o),
(68,-14,o),
(176,-14,cs)
);
}
);
width = 484;
}
);
unicode = 74;
},
{
color = 6;
glyphname = K;
kernLeft = H;
kernRight = K;
lastChange = "2025-02-28 12:20:44 +0000";
layers = (
{
anchors = (
{
name = bottom;
pos = (393,0);
},
{
name = top;
pos = (371,710);
}
);
layerId = "9372F035-DA38-4B54-966C-CEBA9B53DD02";
shapes = (
{
closed = 1;
nodes = (
(522,606,ls),
(564,656,o),
(599,680,o),
(634,684,cs),
(668,688,l),
(668,713,l),
(547,710,l),
(419,713,l),
(419,687,l),
(451,684,ls),
(482,681,o),
(497,669,o),
(497,647,cs),
(497,630,o),
(489,615,o),
(464,586,cs),
(219,300,l),
(219,249,l)
);
},
{
closed = 1;
nodes = (
(188,0,l),
(324,-3,l),
(324,22,l),
(306,24,ls),
(235,32,o),
(227,43,o),
(227,133,cs),
(227,577,ls),
(227,663,o),
(237,678,o),
(301,685,cs),
(321,687,l),
(321,713,l),
(188,710,l),
(40,713,l),
(40,688,l),
(60,686,ls),
(137,678,o),
(146,667,o),
(146,577,cs),
(146,133,ls),
(146,44,o),
(137,32,o),
(60,24,cs),
(40,22,l),
(40,-3,l)
);
},
{
closed = 1;
nodes = (
(609,0,l),
(761,-3,l),
(761,22,l),
(740,24,ls),
(680,30,o),
(643,60,o),
(558,171,cs),
(356,435,l),
(297,365,l),
(497,107,ls),
(516,84,o),
(524,66,o),
(524,52,cs),
(524,35,o),
(508,25,o),
(476,23,cs),
(461,22,l),
(461,-3,l)
);
}
);
width = 741;
},
{
anchors = (
{
name = bottom;
pos = (413,0);
},
{
name = top;
pos = (391,710);
}
);
layerId = m002;
shapes = (
{
closed = 1;
nodes = (
(577,592,ls),
(624,642,o),
(654,663,o),
(689,670,cs),
(708,674,l),
(708,713,l),
(587,710,l),
(439,713,l),
(439,673,l),
(466,670,ls),
(501,666,o),
(516,655,o),
(516,633,cs),
(516,616,o),
(507,598,o),
(488,577,cs),
(239,310,l),
(239,229,l)
);
},
{
closed = 1;
nodes = (
(193,0,l),
(357,-3,l),
(357,38,l),
(337,40,ls),
(282,45,o),
(271,61,o),
(271,133,cs),
(271,577,ls),
(271,649,o),
(283,666,o),
(337,671,cs),
(357,673,l),
(357,713,l),
(194,710,l),
(30,713,l),
(30,673,l),
(50,671,ls),
(104,666,o),
(116,649,o),
(116,577,cs),
(116,133,ls),
(116,61,o),
(105,45,o),
(50,40,cs),
(30,38,l),
(30,-3,l)
);
},
{
closed = 1;
nodes = (
(649,0,l),
(781,-3,l),
(781,37,l),
(767,38,ls),
(728,41,o),
(703,66,o),
(639,171,cs),
(447,482,l),
(327,380,l),
(487,123,ls),
(504,94,o),
(509,84,o),
(509,72,cs),
(509,52,o),
(495,41,o),
(466,39,cs),
(451,38,l),
(451,-3,l)
);
}
);
width = 771;
}
);
metricLeft = I;
unicode = 75;
},
{
color = 6;
glyphname = L;
kernLeft = H;
kernRight = L;
lastChange = "2025-02-28 12:20:44 +0000";
layers = (
{
anchors = (
{
name = bottom;
pos = (359,0);
},
{
name = center;
pos = (229,365);
},
{
name = top;
pos = (188,710);
},
{
name = topright;
pos = (409,710);
}
);
layerId = "9372F035-DA38-4B54-966C-CEBA9B53DD02";
shapes = (
{
closed = 1;
nodes = (
(188,0,l),
(606,-3,l),
(616,210,l),
(594,210,l),
(583,83,o),
(532,29,o),
(423,29,cs),
(348,29,ls),
(251,29,o),
(231,53,o),
(231,172,cs),
(231,589,ls),
(231,660,o),
(246,678,o),
(309,685,cs),
(337,688,l),
(337,713,l),
(190,710,l),
(40,713,l),
(40,688,l),
(60,686,ls),
(137,678,o),
(146,667,o),
(146,577,cs),
(146,133,ls),
(146,43,o),
(137,32,o),
(60,24,cs),
(40,22,l),
(40,-3,l)
);
}
);
width = 651;
},
{
anchors = (
{
name = bottom;
pos = (369,0);
},
{
name = center;
pos = (242,375);
},
{
name = top;
pos = (198,710);
},
{
name = topright;
pos = (419,710);
}
);
layerId = m002;
shapes = (
{
closed = 1;
nodes = (
(188,0,l),
(619,0,l),
(629,230,l),
(589,230,l),
(564,96,o),
(507,44,o),
(383,44,cs),
(370,44,ls),
(292,44,o),
(271,59,o),
(271,117,cs),
(271,577,ls),
(271,654,o),
(279,665,o),
(337,671,cs),
(357,673,l),
(357,713,l),
(199,710,l),
(30,713,l),
(30,673,l),
(50,671,ls),
(104,666,o),
(116,649,o),
(116,577,cs),
(116,133,ls),
(116,61,o),
(105,45,o),
(50,40,cs),
(30,38,l),
(30,-3,l)
);
}
);
width = 661;
}
);
metricLeft = I;
unicode = 76;
},
{
color = 3;
glyphname = Lslash;
kernLeft = H;
kernRight = L;
lastChange = "2025-02-28 12:20:44 +0000";
layers = (
{
layerId = "9372F035-DA38-4B54-966C-CEBA9B53DD02";
shapes = (
{
closed = 1;
nodes = (
(444,418,l),
(427,458,l),
(34,281,l),
(45,253,l)
);
},
{
ref = L;
}
);
width = 651;
},
{
layerId = m002;
shapes = (
{
closed = 1;
nodes = (
(475,419,l),
(450,476,l),
(12,273,l),
(29,234,l)
);
},
{
ref = L;
}
);
width = 661;
}
);
metricRight = L;
unicode = 321;
},
{
color = 6;
glyphname = M;
kernLeft = M;
kernRight = H;
lastChange = "2025-02-28 12:20:44 +0000";
layers = (
{
anchors = (
{
name = bottom;
pos = (443,0);
},
{
name = top;
pos = (497,710);
}
);
layerId = "9372F035-DA38-4B54-966C-CEBA9B53DD02";
shapes = (
{
closed = 1;
nodes = (
(155,0,l),
(282,-3,l),
(282,22,l),
(262,24,ls),
(191,32,o),
(176,45,o),
(176,105,cs),
(176,681,l),
(159,679,l),
(434,0,l),
(453,0,l),
(765,682,l),
(749,684,l),
(749,133,ls),
(749,43,o),
(740,32,o),
(663,24,cs),
(643,22,l),
(643,-3,l),
(792,0,l),
(940,-3,l),
(940,22,l),
(920,24,ls),
(843,32,o),
(834,43,o),
(834,133,cs),
(834,577,ls),
(834,666,o),
(843,677,o),
(920,686,cs),
(940,688,l),
(940,713,l),
(800,710,l),
(740,710,l),
(462,101,l),
(490,101,l),
(239,710,l),
(183,710,l),
(35,713,l),
(35,688,l),
(55,686,ls),
(132,677,o),
(141,666,o),
(141,577,cs),
(141,133,ls),
(141,44,o),
(132,33,o),
(55,24,cs),
(35,22,l),
(35,-3,l)
);
}
);
width = 980;
},
{
anchors = (
{
name = bottom;
pos = (453,0);
},
{
name = top;
pos = (507,710);
}
);
layerId = m002;
shapes = (
{
closed = 1;
nodes = (
(155,-1,l),
(287,-3,l),
(287,37,l),
(257,39,ls),
(195,43,o),
(181,60,o),
(181,133,cs),
(181,679,l),
(157,679,l),
(454,0,l),
(493,0,l),
(780,682,l),
(755,682,l),
(755,133,ls),
(755,61,o),
(744,45,o),
(689,40,cs),
(669,38,l),
(669,-3,l),
(832,0,l),
(996,-3,l),
(996,38,l),
(976,40,ls),
(921,45,o),
(910,61,o),
(910,133,cs),
(910,577,ls),
(910,649,o),
(922,666,o),
(976,671,cs),
(996,673,l),
(996,713,l),
(833,710,l),
(732,710,l),
(477,101,l),
(547,174,l),
(313,710,l),
(203,710,l),
(40,713,l),
(40,673,l),
(60,671,ls),
(114,666,o),
(126,649,o),
(126,577,cs),
(126,133,ls),
(126,60,o),
(112,43,o),
(50,39,cs),
(20,37,l),
(20,-3,l)
);
}
);
width = 1026;
}
);
metricRight = I;
unicode = 77;
},
{
color = 6;
glyphname = N;
kernLeft = M;
kernRight = N;
lastChange = "2025-02-28 12:20:44 +0000";
layers = (
{
anchors = (
{
name = bottom;
pos = (436,0);
},
{
name = top;
pos = (402,710);
}
);
layerId = "9372F035-DA38-4B54-966C-CEBA9B53DD02";
shapes = (
{
closed = 1;
nodes = (
(655,0,l),
(655,577,ls),
(655,666,o),
(664,677,o),
(741,686,cs),
(761,688,l),
(761,713,l),
(639,710,l),
(509,713,l),
(509,688,l),
(529,686,ls),
(606,678,o),
(615,667,o),
(615,577,cs),
(615,156,l),
(629,181,l),
(561,267,o),
(285,633,o),
(229,710,c),
(35,713,l),
(35,687,l),
(65,687,ls),
(98,687,o),
(123,674,o),
(149,644,cs),
(319,456,o),
(561,128,o),
(625,0,c)
);
},
{
closed = 1;
nodes = (
(163,0,l),
(291,-4,l),
(291,21,l),
(271,23,ls),
(194,31,o),
(185,42,o),
(185,133,cs),
(185,658,l),
(145,659,l),
(145,133,ls),
(145,42,o),
(136,31,o),
(59,23,cs),
(39,21,l),
(39,-4,l)
);
}
);
width = 781;
},
{
anchors = (
{
name = bottom;
pos = (431,0);
},
{
name = top;
pos = (397,710);
}
);
layerId = m002;
shapes = (
{
closed = 1;
nodes = (
(658,0,l),
(658,577,ls),
(658,650,o),
(672,667,o),
(734,671,cs),
(764,673,l),
(764,713,l),
(632,711,l),
(497,713,l),
(497,673,l),
(527,671,ls),
(589,667,o),
(603,650,o),
(603,577,cs),
(603,165,l),
(628,239,l),
(474,426,o),
(346,589,o),
(259,710,c),
(20,713,l),
(20,673,l),
(32,673,ls),
(67,673,o),
(83,661,o),
(156,579,cs),
(296,422,o),
(497,159,o),
(600,0,c)
);
},
{
closed = 1;
nodes = (
(158,-1,l),
(290,-3,l),
(290,37,l),
(260,39,ls),
(198,43,o),
(184,60,o),
(184,133,cs),
(184,660,l),
(128,622,l),
(129,133,ls),
(129,60,o),
(115,43,o),
(53,39,cs),
(23,37,l),
(23,-3,l)
);
}
);
width = 784;
}
);
metricLeft = M;
unicode = 78;
},
{
color = 6;
glyphname = Eng;
kernLeft = H;
kernRight = N;
lastChange = "2025-02-28 12:20:44 +0000";
layers = (
{
layerId = "9372F035-DA38-4B54-966C-CEBA9B53DD02";
shapes = (
{
closed = 1;
nodes = (
(145,664,l),
(145,133,ls),
(145,42,o),
(136,31,o),
(59,23,cs),
(39,21,l),
(39,-4,l),
(163,0,l),
(291,-4,l),
(291,21,l),
(271,23,ls),
(194,31,o),
(185,42,o),
(185,133,cs),
(185,621,l)
);
},
{
closed = 1;
nodes = (
(615,-58,ls),
(615,-163,o),
(593,-223,o),
(554,-223,cs),
(540,-223,o),
(532,-215,o),
(532,-202,cs),
(532,-195,o),
(534,-186,o),
(534,-178,cs),
(534,-150,o),
(510,-137,o),
(487,-137,cs),
(456,-137,o),
(438,-159,o),
(438,-190,cs),
(438,-227,o),
(463,-264,o),
(526,-264,cs),
(588,-264,o),
(656,-228,o),
(656,-60,cs),
(656,577,ls),
(656,676,o),
(672,679,o),
(741,686,cs),
(761,688,l),
(761,713,l),
(639,710,l),
(509,713,l),
(509,688,l),
(529,686,ls),
(598,679,o),
(615,676,o),
(615,577,cs)
);
},
{
closed = 1;
nodes = (
(620,193,l),
(557,273,o),
(304,608,o),
(229,710,c),
(35,713,l),
(35,687,l),
(65,687,ls),
(116,687,o),
(143,658,o),
(163,636,cs),
(314,465,o),
(570,123,o),
(630,-8,c)
);
}
);
width = 781;
},
{
layerId = m002;
shapes = (
{
closed = 1;
nodes = (
(129,622,l),
(129,133,ls),
(129,59,o),
(114,43,o),
(53,39,cs),
(23,37,l),
(23,-3,l),
(158,-1,l),
(290,-3,l),
(290,37,l),
(260,39,ls),
(199,43,o),
(184,59,o),
(184,133,cs),
(184,562,l)
);
},
{
closed = 1;
nodes = (
(601,-130,ls),
(601,-184,o),
(585,-228,o),
(544,-228,cs),
(524,-228,o),
(512,-221,o),
(512,-204,cs),
(512,-189,o),
(523,-166,o),
(523,-151,cs),
(523,-120,o),
(498,-97,o),
(453,-97,cs),
(410,-97,o),
(385,-123,o),
(385,-161,cs),
(385,-226,o),
(441,-264,o),
(529,-264,cs),
(607,-264,o),
(658,-218,o),
(658,-110,cs),
(658,577,ls),
(658,651,o),
(673,667,o),
(734,671,cs),
(764,673,l),
(764,713,l),
(632,711,l),
(497,713,l),
(497,673,l),
(527,671,ls),
(588,667,o),
(603,651,o),
(603,577,cs)
);
},
{
closed = 1;
nodes = (
(614,254,l),
(486,415,o),
(353,580,o),
(256,710,c),
(20,713,l),
(20,673,l),
(32,673,ls),
(67,673,o),
(84,663,o),
(156,579,cs),
(272,443,o),
(500,159,o),
(608,-11,c)
);
}
);
width = 784;
}
);
metricLeft = N;
metricRight = N;
unicode = 330;
},
{
color = 6;
glyphname = O;
kernLeft = O;
kernRight = O;
lastChange = "2025-02-28 12:20:44 +0000";
layers = (
{
anchors = (
{
name = bottom;
pos = (410,0);
},
{
name = center;
pos = (409,356);
},
{
name = ogonek;
pos = (484,0);
},
{
name = top;
pos = (409,710);
},
{
name = topleft;
pos = (22,710);
}
);
layerId = "9372F035-DA38-4B54-966C-CEBA9B53DD02";
shapes = (
{
closed = 1;
nodes = (
(611,-11,o),
(756,143,o),
(756,357,cs),
(756,570,o),
(611,724,o),
(409,724,cs),
(207,724,o),
(62,570,o),
(62,357,cs),
(62,143,o),
(207,-11,o),
(409,-11,cs)
);
},
{
closed = 1;
nodes = (
(246,19,o),
(164,133,o),
(164,357,cs),
(164,580,o),
(247,694,o),
(409,694,cs),
(571,694,o),
(654,580,o),
(654,357,cs),
(654,133,o),
(572,19,o),
(409,19,cs)
);
}
);
width = 818;
},
{
anchors = (
{
name = bottom;
pos = (421,0);
},
{
name = center;
pos = (420,356);
},
{
name = ogonek;
pos = (495,0);
},
{
name = top;
pos = (420,710);
},
{
name = topleft;
pos = (33,710);
}
);
layerId = m002;
shapes = (
{
closed = 1;
nodes = (
(635,-11,o),
(790,143,o),
(790,357,cs),
(790,570,o),
(635,724,o),
(420,724,cs),
(205,724,o),
(50,570,o),
(50,357,cs),
(50,143,o),
(205,-11,o),
(420,-11,cs)
);
},
{
closed = 1;
nodes = (
(290,39,o),
(225,145,o),
(225,357,cs),
(225,568,o),
(290,674,o),
(420,674,cs),
(550,674,o),
(615,568,o),
(615,357,cs),
(615,145,o),
(550,39,o),
(420,39,cs)
);
}
);
width = 840;
}
);
unicode = 79;
},
{
color = 6;
glyphname = OE;
kernLeft = O;
kernRight = E;
lastChange = "2025-02-28 12:20:44 +0000";
layers = (
{
layerId = "9372F035-DA38-4B54-966C-CEBA9B53DD02";
shapes = (
{
closed = 1;
nodes = (
(431,-11,o),
(458,-8,o),
(484,-2,c),
(569,0,l),
(960,0,l),
(963,90,l),
(970,210,l),
(945,210,l),
(932,56,o),
(904,25,o),
(774,25,cs),
(682,25,ls),
(634,25,o),
(614,49,o),
(614,107,cs),
(614,683,l),
(714,683,ls),
(868,683,o),
(895,665,o),
(913,546,c),
(937,546,l),
(929,638,l),
(927,713,l),
(815,710,l),
(563,710,l),
(515,710,l),
(471,719,o),
(432,724,o),
(399,724,cs),
(210,724,o),
(62,560,o),
(62,352,cs),
(62,144,o),
(208,-11,o),
(404,-11,cs)
);
},
{
closed = 1;
nodes = (
(249,19,o),
(164,130,o),
(164,350,cs),
(164,575,o),
(247,694,o),
(404,694,cs),
(494,694,o),
(528,662,o),
(528,577,cs),
(528,133,ls),
(528,47,o),
(502,19,o),
(419,19,cs)
);
},
{
closed = 1;
nodes = (
(790,226,l),
(787,374,l),
(790,508,l),
(765,508,l),
(761,422,o),
(740,387,o),
(694,387,cs),
(608,387,l),
(608,362,l),
(694,362,ls),
(743,362,o),
(765,319,o),
(765,226,c)
);
}
);
width = 1010;
},
{
layerId = m002;
shapes = (
{
closed = 1;
nodes = (
(450,-11,o),
(480,-8,o),
(508,-2,c),
(608,0,l),
(1039,0,l),
(1042,90,l),
(1049,230,l),
(1008,230,l),
(994,95,o),
(940,44,o),
(813,44,cs),
(790,44,ls),
(712,44,o),
(691,57,o),
(691,107,cs),
(691,666,l),
(773,666,ls),
(916,666,o),
(967,632,o),
(986,526,c),
(1026,526,l),
(1018,638,l),
(1016,713,l),
(876,710,l),
(608,710,l),
(522,712,l),
(490,720,o),
(456,724,o),
(420,724,cs),
(205,724,o),
(50,570,o),
(50,357,cs),
(50,143,o),
(205,-11,o),
(420,-11,cs)
);
},
{
closed = 1;
nodes = (
(290,39,o),
(225,141,o),
(225,357,cs),
(225,572,o),
(290,674,o),
(428,674,cs),
(504,674,o),
(536,642,o),
(536,567,cs),
(536,143,ls),
(536,70,o),
(504,39,o),
(428,39,cs)
);
},
{
closed = 1;
nodes = (
(889,216,l),
(886,374,l),
(889,518,l),
(849,518,l),
(838,428,o),
(805,396,o),
(723,396,cs),
(645,396,l),
(645,352,l),
(723,352,ls),
(808,352,o),
(844,313,o),
(849,216,c)
);
}
);
width = 1069;
}
);
metricLeft = O;
metricRight = E;
unicode = 338;
},
{
color = 6;
glyphname = P;
kernLeft = H;
kernRight = P;
lastChange = "2025-02-28 12:20:44 +0000";
layers = (
{
anchors = (
{
name = bottom;
pos = (187,0);
},
{
name = top;
pos = (297,710);
}
);
layerId = "9372F035-DA38-4B54-966C-CEBA9B53DD02";
shapes = (
{
closed = 1;
nodes = (
(185,0,l),
(354,-3,l),
(354,22,l),
(332,24,ls),
(243,32,o),
(231,45,o),
(231,133,cs),
(231,682,l),
(363,682,ls),
(463,682,o),
(515,623,o),
(515,512,cs),
(515,394,o),
(466,345,o),
(348,345,cs),
(225,345,l),
(225,315,l),
(348,315,ls),
(516,315,o),
(610,389,o),
(610,522,cs),
(610,651,o),
(521,710,o),
(324,710,cs),
(188,710,l),
(40,713,l),
(40,688,l),
(60,686,ls),
(137,678,o),
(146,667,o),
(146,577,cs),
(146,133,ls),
(146,43,o),
(137,32,o),
(60,24,cs),
(40,22,l),
(40,-3,l)
);
}
);
width = 635;
},
{
anchors = (
{
name = bottom;
pos = (197,0);
},
{
name = top;
pos = (307,710);
}
);
layerId = m002;
shapes = (
{
closed = 1;
nodes = (
(194,0,l),
(377,-3,l),
(377,38,l),
(337,41,ls),
(282,45,o),
(271,61,o),
(271,133,cs),
(271,660,l),
(353,660,ls),
(437,660,o),
(480,606,o),
(480,501,cs),
(480,397,o),
(439,355,o),
(338,355,cs),
(235,355,l),
(235,305,l),
(358,305,ls),
(546,305,o),
(650,381,o),
(650,517,cs),
(650,650,o),
(551,710,o),
(334,710,cs),
(188,710,l),
(30,713,l),
(30,673,l),
(50,671,ls),
(104,666,o),
(116,649,o),
(116,577,cs),
(116,133,ls),
(116,61,o),
(105,45,o),
(50,40,cs),
(30,38,l),
(30,-3,l)
);
}
);
width = 662;
}
);
metricLeft = I;
unicode = 80;
},
{
color = 6;
glyphname = Thorn;
kernLeft = H;
kernRight = Thorn;
lastChange = "2025-02-28 12:20:44 +0000";
layers = (
{
anchors = (
{
name = bottom;
pos = (285,0);
},
{
name = top;
pos = (285,710);
}
);
layerId = "9372F035-DA38-4B54-966C-CEBA9B53DD02";
shapes = (
{
closed = 1;
nodes = (
(191,0,l),
(333,-3,l),
(333,22,l),
(313,24,ls),
(235,32,o),
(226,43,o),
(226,133,cs),
(226,577,ls),
(226,666,o),
(235,678,o),
(312,686,cs),
(332,688,l),
(332,713,l),
(187,710,l),
(40,713,l),
(40,688,l),
(60,686,ls),
(137,678,o),
(146,667,o),
(146,577,cs),
(146,133,ls),
(146,42,o),
(138,32,o),
(61,24,cs),
(41,22,l),
(41,-3,l)
);
},
{
closed = 1;
nodes = (
(298,179,ls),
(471,179,o),
(565,249,o),
(565,376,cs),
(565,497,o),
(482,556,o),
(313,556,cs),
(220,556,l),
(220,531,l),
(313,531,ls),
(425,531,o),
(465,490,o),
(465,374,cs),
(465,250,o),
(420,205,o),
(298,205,cs),
(221,205,l),
(221,179,l)
);
}
);
width = 555;
},
{
anchors = (
{
name = bottom;
pos = (285,0);
},
{
name = top;
pos = (285,710);
}
);
layerId = m002;
shapes = (
{
closed = 1;
nodes = (
(194,0,l),
(380,-3,l),
(380,38,l),
(337,40,ls),
(284,42,o),
(271,59,o),
(271,133,cs),
(271,607,l),
(271,681,o),
(284,695,o),
(337,700,cs),
(357,702,l),
(357,743,l),
(194,740,l),
(30,743,l),
(30,702,l),
(50,700,ls),
(103,695,o),
(116,681,o),
(116,607,c),
(116,133,ls),
(116,59,o),
(103,45,o),
(50,40,cs),
(30,38,l),
(30,-3,l)
);
},
{
closed = 1;
nodes = (
(358,166,ls),
(549,166,o),
(650,248,o),
(650,370,cs),
(650,492,o),
(549,574,o),
(358,574,cs),
(235,574,l),
(235,524,l),
(338,524,ls),
(455,524,o),
(480,467,o),
(480,370,cs),
(480,273,o),
(455,216,o),
(338,216,cs),
(235,216,l),
(235,166,l)
);
}
);
width = 635;
}
);
metricLeft = I;
metricRight = R;
unicode = 222;
},
{
color = 3;
glyphname = Q;
kernLeft = O;
kernRight = O;
lastChange = "2025-02-28 12:20:44 +0000";
layers = (
{
anchors = (
{
name = top;
pos = (410,710);
}
);
layerId = "9372F035-DA38-4B54-966C-CEBA9B53DD02";
shapes = (
{
closed = 1;
nodes = (
(743,-294,o),
(784,-233,o),
(794,-124,c),
(774,-124,l),
(763,-200,o),
(719,-221,o),
(674,-221,cs),
(623,-221,o),
(573,-187,o),
(524,-147,cs),
(471,-104,o),
(416,-69,o),
(331,-69,cs),
(318,-69,o),
(306,-69,o),
(284,-71,c),
(294,-79,l),
(482,8,l),
(423,6,l),
(213,-90,l),
(273,-71,l),
(168,-71,o),
(89,-97,o),
(89,-152,cs),
(89,-174,o),
(101,-185,o),
(118,-185,cs),
(140,-185,o),
(160,-169,o),
(180,-151,cs),
(212,-122,o),
(232,-108,o),
(267,-88,c),
(226,-100,l),
(318,-90,o),
(375,-132,o),
(459,-202,cs),
(505,-240,o),
(558,-294,o),
(653,-294,cs)
);
},
{
ref = O;
}
);
width = 804;
},
{
anchors = (
{
name = top;
pos = (410,710);
}
);
layerId = m002;
shapes = (
{
closed = 1;
nodes = (
(743,-294,o),
(796,-237,o),
(804,-104,c),
(764,-104,l),
(755,-149,o),
(720,-161,o),
(684,-161,cs),
(622,-161,o),
(576,-137,o),
(524,-112,cs),
(473,-89,o),
(415,-65,o),
(331,-65,cs),
(318,-65,o),
(306,-65,o),
(284,-74,c),
(314,-79,l),
(502,8,l),
(413,6,l),
(203,-90,l),
(283,-68,l),
(168,-68,o),
(79,-91,o),
(79,-156,cs),
(79,-181,o),
(93,-199,o),
(125,-199,cs),
(155,-199,o),
(180,-178,o),
(211,-152,cs),
(237,-131,o),
(267,-106,o),
(306,-88,c),
(227,-101,l),
(305,-92,o),
(367,-138,o),
(431,-187,cs),
(499,-238,o),
(568,-294,o),
(662,-294,cs)
);
},
{
ref = O;
}
);
width = 804;
}
);
metricLeft = O;
unicode = 81;
},
{
color = 6;
glyphname = R;
kernLeft = H;
kernRight = R;
lastChange = "2025-02-28 12:20:44 +0000";
layers = (
{
anchors = (
{
name = bottom;
pos = (401,0);
},
{
name = top;
pos = (313,710);
}
);
layerId = "9372F035-DA38-4B54-966C-CEBA9B53DD02";
shapes = (
{
closed = 1;
nodes = (
(642,-11,o),
(681,-2,o),
(705,12,c),
(696,36,l),
(677,28,o),
(667,25,o),
(657,25,cs),
(615,25,o),
(586,74,o),
(572,168,cs),
(554,290,o),
(485,354,o),
(374,354,c),
(373,351,l),
(510,365,o),
(583,429,o),
(583,535,cs),
(583,649,o),
(494,710,o),
(328,710,cs),
(188,710,l),
(40,713,l),
(40,688,l),
(60,686,ls),
(137,678,o),
(146,667,o),
(146,577,cs),
(146,133,ls),
(146,44,o),
(137,32,o),
(60,24,cs),
(40,22,l),
(40,-3,l),
(188,0,l),
(337,-3,l),
(337,22,l),
(317,24,ls),
(240,32,o),
(231,43,o),
(231,133,cs),
(231,684,l),
(330,684,ls),
(438,684,o),
(488,635,o),
(488,529,cs),
(488,419,o),
(437,373,o),
(315,373,cs),
(225,373,l),
(225,346,l),
(274,346,ls),
(405,346,o),
(470,278,o),
(491,121,cs),
(503,32,o),
(541,-11,o),
(609,-11,cs)
);
}
);
width = 695;
},
{
anchors = (
{
name = bottom;
pos = (411,0);
},
{
name = top;
pos = (323,710);
}
);
layerId = m002;
shapes = (
{
closed = 1;
nodes = (
(666,-11,o),
(704,-5,o),
(736,7,c),
(728,46,l),
(718,43,o),
(709,41,o),
(702,41,cs),
(668,41,o),
(646,83,o),
(632,178,cs),
(614,297,o),
(521,364,o),
(372,364,c),
(372,345,l),
(549,345,o),
(650,413,o),
(650,533,cs),
(650,654,o),
(550,710,o),
(334,710,cs),
(188,710,l),
(30,713,l),
(30,673,l),
(50,671,ls),
(104,666,o),
(116,649,o),
(116,577,cs),
(116,133,ls),
(116,61,o),
(105,45,o),
(50,40,cs),
(30,38,l),
(30,-3,l),
(194,0,l),
(357,-3,l),
(357,38,l),
(337,40,ls),
(282,45,o),
(271,61,o),
(271,133,cs),
(271,660,l),
(353,660,ls),
(438,660,o),
(479,613,o),
(479,517,cs),
(479,423,o),
(439,385,o),
(338,385,cs),
(235,385,l),
(235,336,l),
(284,336,ls),
(408,336,o),
(459,282,o),
(479,128,cs),
(492,30,o),
(537,-11,o),
(630,-11,cs)
);
}
);
width = 721;
}
);
metricLeft = I;
unicode = 82;
},
{
color = 6;
glyphname = S;
kernLeft = S;
kernRight = S;
lastChange = "2025-02-28 12:20:44 +0000";
layers = (
{
anchors = (
{
name = bottom;
pos = (313,0);
},
{
name = top;
pos = (285,710);
}
);
layerId = "9372F035-DA38-4B54-966C-CEBA9B53DD02";
shapes = (
{
closed = 1;
nodes = (
(419,-11,o),
(506,68,o),
(506,187,cs),
(506,300,o),
(439,350,o),
(329,404,cs),
(288,424,ls),
(209,462,o),
(155,499,o),
(155,575,cs),
(155,646,o),
(208,696,o),
(287,696,cs),
(366,696,o),
(441,630,o),
(454,519,c),
(479,519,l),
(477,616,l),
(480,712,l),
(455,712,l),
(453,690,o),
(448,681,o),
(436,681,cs),
(425,681,o),
(413,685,o),
(395,694,cs),
(374,705,o),
(336,724,o),
(282,724,cs),
(164,724,o),
(80,649,o),
(80,543,cs),
(80,452,o),
(128,400,o),
(228,352,cs),
(270,332,ls),
(373,283,o),
(434,235,o),
(434,146,cs),
(434,56,o),
(370,18,o),
(309,18,cs),
(197,18,o),
(119,111,o),
(98,200,cs),
(87,247,l),
(62,247,l),
(65,118,l),
(60,0,l),
(85,0,l),
(88,15,ls),
(92,33,o),
(97,52,o),
(116,52,cs),
(130,52,o),
(148,44,o),
(178,28,cs),
(212,10,o),
(256,-11,o),
(309,-11,cs)
);
}
);
width = 561;
},
{
anchors = (
{
name = bottom;
pos = (343,0);
},
{
name = top;
pos = (315,710);
}
);
layerId = m002;
shapes = (
{
closed = 1;
nodes = (
(481,-11,o),
(576,76,o),
(576,200,cs),
(576,296,o),
(517,375,o),
(408,424,cs),
(328,460,ls),
(243,498,o),
(208,533,o),
(208,581,cs),
(208,636,o),
(254,674,o),
(322,674,cs),
(411,674,o),
(480,611,o),
(505,509,c),
(545,509,l),
(543,616,l),
(547,715,l),
(507,715,l),
(504,691,o),
(496,681,o),
(479,681,cs),
(467,681,o),
(449,686,o),
(430,694,cs),
(379,716,o),
(346,724,o),
(303,724,cs),
(167,724,o),
(73,643,o),
(73,525,cs),
(73,440,o),
(121,374,o),
(210,333,cs),
(300,292,ls),
(411,241,o),
(444,208,o),
(444,148,cs),
(444,80,o),
(398,39,o),
(323,39,cs),
(235,39,o),
(151,104,o),
(114,200,cs),
(92,257,l),
(52,257,l),
(56,118,l),
(50,0,l),
(90,0,l),
(94,15,ls),
(101,43,o),
(109,52,o),
(126,52,cs),
(138,52,o),
(150,48,o),
(194,28,cs),
(255,0,o),
(296,-11,o),
(345,-11,cs)
);
}
);
width = 621;
}
);
unicode = 83;
},
{
color = 6;
glyphname = Germandbls;
kernLeft = Germandbls;
kernRight = Germandbls;
lastChange = "2025-02-28 12:20:44 +0000";
layers = (
{
layerId = "9372F035-DA38-4B54-966C-CEBA9B53DD02";
shapes = (
{
closed = 1;
nodes = (
(618,677,l),
(552,706,o),
(477,721,o),
(400,721,cs),
(221,721,o),
(126,640,o),
(126,487,cs),
(126,133,ls),
(126,44,o),
(117,32,o),
(40,24,cs),
(20,22,l),
(20,-3,l),
(168,0,l),
(169,0,l),
(221,-1,l),
(211,133,l),
(211,487,ls),
(211,615,o),
(283,692,o),
(404,692,cs),
(466,692,o),
(517,671,o),
(545,634,c),
(570,661,l),
(461,621,o),
(398,553,o),
(398,477,cs),
(398,419,o),
(433,372,o),
(513,322,cs),
(558,294,ls),
(614,259,o),
(640,214,o),
(640,153,cs),
(640,69,o),
(591,18,o),
(512,18,cs),
(436,18,o),
(380,65,o),
(355,150,cs),
(341,197,l),
(320,197,l),
(321,26,l),
(384,2,o),
(448,-11,o),
(500,-11,cs),
(627,-11,o),
(711,68,o),
(711,186,cs),
(711,266,o),
(673,328,o),
(598,375,cs),
(540,411,ls),
(490,443,o),
(470,471,o),
(470,511,cs),
(470,571,o),
(518,617,o),
(618,653,c)
);
}
);
width = 766;
},
{
layerId = m002;
shapes = (
{
closed = 1;
nodes = (
(633,681,l),
(575,706,o),
(489,721,o),
(403,721,cs),
(200,721,o),
(101,638,o),
(101,467,cs),
(101,133,ls),
(101,61,o),
(89,44,o),
(35,39,cs),
(15,37,l),
(15,-3,l),
(178,0,l),
(179,0,l),
(266,-3,l),
(256,128,l),
(256,477,ls),
(256,604,o),
(311,671,o),
(414,671,cs),
(463,671,o),
(508,656,o),
(537,629,c),
(539,648,l),
(438,618,o),
(384,551,o),
(388,461,cs),
(391,398,o),
(424,346,o),
(485,308,cs),
(527,282,ls),
(623,223,o),
(647,195,o),
(647,142,cs),
(647,81,o),
(606,39,o),
(548,39,cs),
(482,39,o),
(428,94,o),
(387,200,cs),
(365,257,l),
(325,257,l),
(325,54,l),
(387,12,o),
(466,-11,o),
(545,-11,cs),
(689,-11,o),
(779,69,o),
(779,197,cs),
(779,282,o),
(739,340,o),
(636,406,cs),
(589,436,ls),
(541,466,o),
(521,495,o),
(521,533,cs),
(521,585,o),
(560,625,o),
(632,647,c)
);
}
);
width = 824;
}
);
metricRight = S;
unicode = 7838;
},
{
color = 6;
glyphname = T;
kernLeft = T;
kernRight = T;
lastChange = "2025-02-28 12:20:44 +0000";
layers = (
{
anchors = (
{
name = bottom;
pos = (374,0);
},
{
name = center;
pos = (372,355);
},
{
name = top;
pos = (377,710);
}
);
layerId = "9372F035-DA38-4B54-966C-CEBA9B53DD02";
shapes = (
{
closed = 1;
nodes = (
(374,0,l),
(537,-3,l),
(537,22,l),
(515,24,ls),
(424,33,o),
(414,44,o),
(414,133,cs),
(414,701,l),
(329,701,l),
(329,133,ls),
(329,44,o),
(319,33,o),
(228,24,cs),
(206,22,l),
(206,-3,l)
);
},
{
closed = 1;
nodes = (
(741,510,l),
(716,633,l),
(705,713,l),
(419,710,l),
(324,710,l),
(39,713,l),
(28,633,l),
(3,510,l),
(24,505,l),
(85,658,o),
(108,683,o),
(188,683,cs),
(562,683,ls),
(633,683,o),
(661,651,o),
(719,504,c)
);
}
);
width = 744;
},
{
anchors = (
{
name = bottom;
pos = (380,0);
},
{
name = center;
pos = (377,355);
},
{
name = top;
pos = (383,710);
}
);
layerId = m002;
shapes = (
{
closed = 1;
nodes = (
(379,0,l),
(562,-3,l),
(562,38,l),
(522,40,ls),
(468,43,o),
(456,60,o),
(456,133,cs),
(456,676,l),
(301,676,l),
(301,133,ls),
(301,60,o),
(289,43,o),
(235,40,cs),
(195,38,l),
(195,-3,l)
);
},
{
closed = 1;
nodes = (
(753,480,l),
(728,633,l),
(717,713,l),
(425,710,l),
(330,710,l),
(39,713,l),
(28,633,l),
(3,480,l),
(40,475,l),
(132,639,o),
(156,661,o),
(244,661,cs),
(518,661,ls),
(598,661,o),
(625,635,o),
(715,474,c)
);
}
);
width = 756;
}
);
unicode = 84;
},
{
color = 6;
glyphname = U;
kernLeft = U;
kernRight = U;
lastChange = "2025-02-28 12:20:44 +0000";
layers = (
{
anchors = (
{
name = bottom;
pos = (403,0);
},
{
name = ogonek;
pos = (491,0);
},
{
name = top;
pos = (409,710);
},
{
name = topright;
pos = (746,710);
}
);
layerId = "9372F035-DA38-4B54-966C-CEBA9B53DD02";
shapes = (
{
closed = 1;
nodes = (
(556,-11,o),
(639,69,o),
(639,229,cs),
(639,577,ls),
(639,666,o),
(648,678,o),
(725,686,cs),
(745,688,l),
(745,713,l),
(646,711,l),
(498,713,l),
(498,688,l),
(518,686,ls),
(595,678,o),
(604,667,o),
(604,577,cs),
(604,229,ls),
(604,93,o),
(539,22,o),
(415,22,cs),
(289,22,o),
(216,95,o),
(216,223,cs),
(216,577,ls),
(216,666,o),
(225,678,o),
(302,686,cs),
(322,688,l),
(322,713,l),
(174,710,l),
(173,710,l),
(25,713,l),
(25,688,l),
(45,686,ls),
(122,678,o),
(131,667,o),
(131,577,cs),
(131,223,ls),
(131,68,o),
(218,-11,o),
(387,-11,cs)
);
}
);
width = 750;
},
{
anchors = (
{
name = bottom;
pos = (403,0);
},
{
name = ogonek;
pos = (540,0);
},
{
name = top;
pos = (419,710);
},
{
name = topright;
pos = (746,710);
}
);
layerId = m002;
shapes = (
{
closed = 1;
nodes = (
(563,-11,o),
(649,67,o),
(649,229,cs),
(649,577,ls),
(649,650,o),
(663,667,o),
(725,671,cs),
(755,673,l),
(755,713,l),
(623,711,l),
(488,713,l),
(488,673,l),
(518,671,ls),
(580,667,o),
(594,650,o),
(594,577,cs),
(594,229,ls),
(594,116,o),
(532,52,o),
(422,52,cs),
(316,52,o),
(261,111,o),
(261,223,cs),
(261,577,ls),
(261,649,o),
(273,666,o),
(327,671,cs),
(347,673,l),
(347,713,l),
(184,710,l),
(183,710,l),
(20,713,l),
(20,673,l),
(40,671,ls),
(94,666,o),
(106,649,o),
(106,577,cs),
(106,223,ls),
(106,69,o),
(201,-11,o),
(383,-11,cs)
);
}
);
width = 755;
}
);
unicode = 85;
},
{
color = 6;
glyphname = Uogonek;
kernLeft = U;
kernRight = U;
lastChange = "2025-02-28 12:20:44 +0000";
layers = (
{
anchors = (
{
name = bottom;
pos = (403,0);
},
{
name = top;
pos = (409,710);
},
{
name = topright;
pos = (746,710);
}
);
layerId = "9372F035-DA38-4B54-966C-CEBA9B53DD02";
shapes = (
{
closed = 1;
nodes = (
(496,-294,o),
(540,-255,o),
(558,-182,c),
(541,-170,l),
(520,-214,o),
(486,-239,o),
(446,-239,cs),
(401,-239,o),
(373,-210,o),
(373,-161,cs),
(373,-89,o),
(425,-18,o),
(491,2,cs),
(589,32,o),
(639,106,o),
(639,229,cs),
(639,577,ls),
(639,666,o),
(648,678,o),
(725,686,cs),
(745,688,l),
(745,713,l),
(646,711,l),
(498,713,l),
(498,688,l),
(518,686,ls),
(595,678,o),
(604,667,o),
(604,577,cs),
(604,229,ls),
(604,93,o),
(539,22,o),
(415,22,cs),
(289,22,o),
(216,95,o),
(216,223,cs),
(216,577,ls),
(216,666,o),
(225,678,o),
(302,686,cs),
(322,688,l),
(322,713,l),
(174,710,l),
(173,710,l),
(25,713,l),
(25,688,l),
(45,686,ls),
(122,678,o),
(131,667,o),
(131,577,cs),
(131,223,ls),
(131,68,o),
(218,-11,o),
(387,-11,cs),
(410,-11,o),
(435,-9,o),
(457,-7,c),
(446,5,l),
(371,-45,o),
(320,-111,o),
(320,-184,cs),
(320,-249,o),
(366,-294,o),
(433,-294,cs)
);
}
);
width = 750;
},
{
anchors = (
{
name = bottom;
pos = (403,0);
},
{
name = top;
pos = (419,710);
},
{
name = topright;
pos = (746,710);
}
);
layerId = m002;
shapes = (
{
closed = 1;
nodes = (
(484,-294,o),
(540,-253,o),
(562,-185,c),
(539,-167,l),
(517,-204,o),
(495,-219,o),
(463,-219,cs),
(419,-219,o),
(391,-187,o),
(391,-136,cs),
(391,-70,o),
(434,-16,o),
(495,2,cs),
(599,31,o),
(649,105,o),
(649,229,cs),
(649,577,ls),
(649,650,o),
(663,667,o),
(725,671,cs),
(755,673,l),
(755,713,l),
(623,711,l),
(488,713,l),
(488,673,l),
(518,671,ls),
(580,667,o),
(594,650,o),
(594,577,cs),
(594,229,ls),
(594,116,o),
(532,52,o),
(422,52,cs),
(316,52,o),
(261,111,o),
(261,223,cs),
(261,577,ls),
(261,649,o),
(273,666,o),
(327,671,cs),
(347,673,l),
(347,713,l),
(184,710,l),
(183,710,l),
(20,713,l),
(20,673,l),
(40,671,ls),
(94,666,o),
(106,649,o),
(106,577,cs),
(106,223,ls),
(106,69,o),
(201,-11,o),
(383,-11,cs),
(396,-11,o),
(409,-10,o),
(424,-8,c),
(457,17,l),
(343,-39,o),
(285,-106,o),
(285,-180,cs),
(285,-247,o),
(337,-294,o),
(413,-294,cs)
);
}
);
width = 755;
}
);
unicode = 370;
},
{
color = 6;
glyphname = V;
kernLeft = V;
kernRight = V;
lastChange = "2025-02-28 12:20:44 +0000";
layers = (
{
anchors = (
{
name = bottom;
pos = (373,0);
},
{
name = top;
pos = (409,710);
}
);
layerId = "9372F035-DA38-4B54-966C-CEBA9B53DD02";
shapes = (
{
closed = 1;
nodes = (
(388,-10,l),
(628,587,ls),
(653,649,o),
(678,674,o),
(725,684,cs),
(748,689,l),
(748,713,l),
(648,710,l),
(508,713,l),
(508,688,l),
(543,684,ls),
(601,677,o),
(616,648,o),
(592,588,cs),
(385,75,l),
(412,75,l),
(196,587,ls),
(171,647,o),
(190,679,o),
(253,685,cs),
(283,688,l),
(283,713,l),
(134,710,l),
(-15,713,l),
(-15,688,l),
(5,684,ls),
(49,675,o),
(75,653,o),
(94,607,cs),
(356,-10,l)
);
}
);
width = 733;
},
{
anchors = (
{
name = bottom;
pos = (379,0);
},
{
name = top;
pos = (415,710);
}
);
layerId = m002;
shapes = (
{
closed = 1;
nodes = (
(413,0,l),
(642,557,ls),
(683,657,o),
(692,667,o),
(741,672,cs),
(751,673,l),
(751,713,l),
(639,711,l),
(504,713,l),
(504,673,l),
(534,671,ls),
(592,667,o),
(609,623,o),
(580,550,cs),
(385,75,l),
(433,75,l),
(240,587,ls),
(221,632,o),
(238,667,o),
(281,671,cs),
(303,673,l),
(303,713,l),
(143,710,l),
(-20,713,l),
(-20,673,l),
(0,671,ls),
(40,667,o),
(54,654,o),
(72,607,cs),
(301,0,l)
);
}
);
width = 731;
}
);
unicode = 86;
},
{
color = 6;
glyphname = W;
kernLeft = V;
kernRight = V;
lastChange = "2025-02-28 12:20:44 +0000";
layers = (
{
anchors = (
{
name = bottom;
pos = (522,0);
},
{
name = top;
pos = (544,710);
}
);
layerId = "9372F035-DA38-4B54-966C-CEBA9B53DD02";
shapes = (
{
closed = 1;
nodes = (
(327,-9,l),
(532,547,l),
(520,546,l),
(728,-9,l),
(760,-9,l),
(952,621,ls),
(962,655,o),
(991,675,o),
(1040,683,cs),
(1064,687,l),
(1064,713,l),
(958,710,l),
(826,713,l),
(826,687,l),
(859,683,ls),
(913,676,o),
(926,658,o),
(913,610,cs),
(756,95,l),
(779,95,l),
(599,582,ls),
(576,644,o),
(595,680,o),
(654,684,cs),
(692,687,l),
(690,713,l),
(653,711,ls),
(590,708,o),
(556,688,o),
(545,646,c),
(555,656,l),
(548,685,o),
(518,702,o),
(464,708,cs),
(422,713,l),
(418,687,l),
(458,681,ls),
(514,673,o),
(532,647,o),
(515,599,cs),
(328,91,l),
(352,91,l),
(188,598,ls),
(168,653,o),
(187,678,o),
(255,685,cs),
(283,688,l),
(283,713,l),
(135,710,l),
(-15,713,l),
(-15,688,l),
(8,683,ls),
(55,673,o),
(82,646,o),
(99,594,cs),
(295,-9,l)
);
}
);
width = 1049;
},
{
anchors = (
{
name = bottom;
pos = (549,0);
},
{
name = top;
pos = (598,710);
}
);
layerId = m002;
shapes = (
{
closed = 1;
nodes = (
(381,0,l),
(566,529,l),
(551,529,l),
(722,0,l),
(834,0,l),
(1033,557,ls),
(1067,652,o),
(1080,667,o),
(1132,672,cs),
(1142,673,l),
(1142,713,l),
(1030,711,l),
(895,713,l),
(895,673,l),
(925,671,ls),
(983,668,o),
(997,631,o),
(971,550,cs),
(821,117,l),
(841,117,l),
(691,587,ls),
(674,637,o),
(688,667,o),
(732,671,cs),
(754,673,l),
(754,713,l),
(689,711,ls),
(628,709,o),
(585,686,o),
(561,642,c),
(582,640,l),
(573,681,o),
(538,707,o),
(489,710,cs),
(441,713,l),
(439,673,l),
(471,670,ls),
(531,664,o),
(544,632,o),
(517,550,cs),
(366,117,l),
(387,117,l),
(237,587,ls),
(220,637,o),
(234,667,o),
(278,671,cs),
(300,673,l),
(300,713,l),
(140,710,l),
(-20,713,l),
(-20,673,l),
(0,671,ls),
(41,667,o),
(57,653,o),
(72,607,cs),
(268,0,l)
);
}
);
width = 1122;
}
);
metricLeft = V;
metricRight = V;
unicode = 87;
},
{
color = 6;
glyphname = X;
kernLeft = X;
kernRight = X;
lastChange = "2025-02-28 12:20:44 +0000";
layers = (
{
anchors = (
{
name = bottom;
pos = (327,0);
},
{
name = top;
pos = (390,710);
}
);
layerId = "9372F035-DA38-4B54-966C-CEBA9B53DD02";
shapes = (
{
closed = 1;
nodes = (
(568,0,l),
(717,-3,l),
(717,22,l),
(687,27,ls),
(640,35,o),
(604,62,o),
(566,119,cs),
(260,577,ls),
(214,646,o),
(221,676,o),
(282,683,cs),
(324,688,l),
(324,713,l),
(169,710,l),
(4,713,l),
(4,688,l),
(24,684,ls),
(86,672,o),
(111,653,o),
(150,594,cs),
(459,129,ls),
(499,68,o),
(492,31,o),
(438,26,cs),
(397,22,l),
(397,-3,l)
);
},
{
closed = 1;
nodes = (
(114,0,l),
(238,-3,l),
(238,22,l),
(200,26,ls),
(163,30,o),
(154,70,o),
(182,109,cs),
(339,328,l),
(318,354,l),
(152,126,ls),
(106,61,o),
(68,34,o),
(11,25,cs),
(-10,22,l),
(-10,-3,l)
);
},
{
closed = 1;
nodes = (
(539,583,ls),
(584,646,o),
(631,681,o),
(677,686,cs),
(698,688,l),
(698,713,l),
(582,710,l),
(450,713,l),
(450,688,l),
(483,684,ls),
(530,678,o),
(540,645,o),
(509,600,cs),
(367,402,l),
(388,375,l)
);
}
);
width = 707;
},
{
anchors = (
{
name = bottom;
pos = (346,0);
},
{
name = top;
pos = (409,710);
}
);
layerId = m002;
shapes = (
{
closed = 1;
nodes = (
(603,0,l),
(756,-3,l),
(756,37,l),
(736,39,ls),
(704,42,o),
(691,52,o),
(652,103,c),
(317,558,ls),
(267,625,o),
(278,668,o),
(346,672,cs),
(368,673,l),
(368,713,l),
(172,710,l),
(-1,713,l),
(-1,673,l),
(22,671,ls),
(45,669,o),
(53,662,o),
(98,603,cs),
(430,152,ls),
(478,88,o),
(470,46,o),
(408,39,cs),
(386,37,l),
(386,-3,l)
);
},
{
closed = 1;
nodes = (
(122,-1,l),
(240,-3,l),
(240,37,l),
(210,39,ls),
(145,44,o),
(136,100,o),
(192,160,cs),
(339,324,l),
(305,361,l),
(109,137,ls),
(37,55,o),
(22,42,o),
(-1,39,cs),
(-20,37,l),
(-20,-3,l)
);
},
{
closed = 1;
nodes = (
(586,573,ls),
(651,647,o),
(678,669,o),
(705,671,cs),
(727,673,l),
(727,713,l),
(583,711,l),
(472,713,l),
(472,673,l),
(502,670,ls),
(560,664,o),
(560,615,o),
(503,550,cs),
(371,402,l),
(405,365,l)
);
}
);
width = 736;
}
);
unicode = 88;
},
{
color = 6;
glyphname = Y;
kernLeft = Y;
kernRight = Y;
lastChange = "2025-02-28 12:20:44 +0000";
layers = (
{
anchors = (
{
name = bottom;
pos = (325,0);
},
{
name = top;
pos = (344,710);
},
{
name = topleft;
pos = (-55,710);
}
);
layerId = "9372F035-DA38-4B54-966C-CEBA9B53DD02";
shapes = (
{
closed = 1;
nodes = (
(336,0,l),
(337,0,l),
(485,-3,l),
(485,22,l),
(465,24,ls),
(388,33,o),
(379,44,o),
(379,133,cs),
(379,288,l),
(561,606,ls),
(590,656,o),
(613,675,o),
(655,683,cs),
(682,688,l),
(682,713,l),
(576,708,l),
(444,713,l),
(444,688,l),
(473,685,ls),
(536,680,o),
(546,649,o),
(508,582,cs),
(345,297,l),
(381,297,l),
(217,582,ls),
(180,647,o),
(190,680,o),
(250,685,cs),
(282,688,l),
(282,713,l),
(132,710,l),
(-20,713,l),
(-20,688,l),
(9,682,ls),
(60,672,o),
(86,651,o),
(119,593,cs),
(294,287,l),
(294,133,ls),
(294,44,o),
(285,33,o),
(208,24,cs),
(188,22,l),
(188,-3,l)
);
}
);
width = 662;
},
{
anchors = (
{
name = bottom;
pos = (330,0);
},
{
name = top;
pos = (338,710);
},
{
name = topleft;
pos = (-50,710);
}
);
layerId = m002;
shapes = (
{
closed = 1;
nodes = (
(340,0,l),
(341,0,l),
(504,-3,l),
(504,38,l),
(484,40,ls),
(429,45,o),
(418,61,o),
(418,133,cs),
(418,311,l),
(567,557,ls),
(627,656,o),
(639,668,o),
(686,672,cs),
(696,673,l),
(696,713,l),
(584,711,l),
(449,713,l),
(449,673,l),
(483,671,ls),
(542,668,o),
(545,616,o),
(491,528,cs),
(345,285,l),
(404,323,l),
(273,550,ls),
(230,627,o),
(236,666,o),
(290,671,cs),
(312,673,l),
(312,713,l),
(138,710,l),
(-25,713,l),
(-25,673,l),
(-5,671,ls),
(27,668,o),
(37,659,o),
(67,607,cs),
(263,267,l),
(263,133,ls),
(263,61,o),
(252,45,o),
(197,40,cs),
(177,38,l),
(177,-3,l)
);
}
);
width = 671;
}
);
unicode = 89;
},
{
color = 6;
glyphname = Z;
kernLeft = H;
kernRight = H;
lastChange = "2025-02-28 12:20:44 +0000";
layers = (
{
anchors = (
{
name = bottom;
pos = (309,0);
},
{
name = top;
pos = (309,710);
}
);
layerId = "9372F035-DA38-4B54-966C-CEBA9B53DD02";
shapes = (
{
closed = 1;
nodes = (
(589,100,l),
(599,267,l),
(575,267,l),
(550,84,o),
(507,33,o),
(378,32,cs),
(103,30,l),
(116,4,l),
(585,679,l),
(585,713,l),
(361,710,l),
(66,712,l),
(64,659,l),
(53,526,l),
(77,526,l),
(95,654,o),
(125,676,o),
(289,678,cs),
(516,680,l),
(503,706,l),
(30,26,l),
(30,0,l),
(383,0,l),
(589,-3,l)
);
}
);
width = 639;
},
{
anchors = (
{
name = bottom;
pos = (319,0);
},
{
name = top;
pos = (319,710);
}
);
layerId = m002;
shapes = (
{
closed = 1;
nodes = (
(604,72,l),
(612,264,l),
(572,264,l),
(552,103,o),
(481,44,o),
(309,44,cs),
(117,44,l),
(197,33,l),
(615,673,l),
(615,713,l),
(371,710,l),
(57,713,l),
(55,638,l),
(47,506,l),
(87,506,l),
(105,623,o),
(168,666,o),
(320,666,cs),
(522,666,l),
(453,700,l),
(20,37,l),
(20,-3,l),
(393,0,l),
(602,-3,l)
);
}
);
width = 645;
}
);
unicode = 90;
},
{
color = 6;
glyphname = a;
kernLeft = a;
kernRight = a;
lastChange = "2025-02-28 12:20:44 +0000";
layers = (
{
anchors = (
{
name = bottom;
pos = (169,0);
},
{
name = ogonek;
pos = (427,0);
},
{
name = top;
pos = (241,436);
}
);
layerId = "9372F035-DA38-4B54-966C-CEBA9B53DD02";
shapes = (
{
closed = 1;
nodes = (
(450,-11,o),
(478,10,o),
(490,52,c),
(472,59,l),
(465,38,o),
(448,24,o),
(430,24,cs),
(404,24,o),
(395,48,o),
(395,116,cs),
(395,296,ls),
(395,406,o),
(349,454,o),
(244,454,cs),
(142,454,o),
(69,414,o),
(69,358,cs),
(69,330,o),
(87,310,o),
(112,310,cs),
(138,310,o),
(157,328,o),
(157,349,cs),
(157,356,o),
(156,361,o),
(152,377,cs),
(150,385,o),
(148,391,o),
(148,396,cs),
(148,416,o),
(179,429,o),
(227,429,cs),
(298,429,o),
(325,399,o),
(325,320,cs),
(325,104,ls),
(325,23,o),
(348,-11,o),
(405,-11,cs)
);
},
{
closed = 1;
nodes = (
(236,-11,o),
(300,30,o),
(334,97,c),
(328,130,l),
(310,74,o),
(249,26,o),
(193,26,cs),
(152,26,o),
(128,48,o),
(128,87,cs),
(128,150,o),
(201,216,o),
(330,270,c),
(329,289,l),
(269,267,o),
(220,245,o),
(180,223,cs),
(89,173,o),
(50,130,o),
(50,79,cs),
(50,25,o),
(95,-11,o),
(163,-11,cs)
);
}
);
width = 490;
},
{
anchors = (
{
name = bottom;
pos = (255,0);
},
{
name = ogonek;
pos = (456,0);
},
{
name = top;
pos = (256,446);
}
);
layerId = m002;
shapes = (
{
closed = 1;
nodes = (
(458,-14,o),
(497,8,o),
(516,52,c),
(489,65,l),
(482,50,o),
(472,42,o),
(458,42,cs),
(438,42,o),
(432,55,o),
(432,96,cs),
(432,299,ls),
(432,407,o),
(375,460,o),
(259,460,cs),
(139,460,o),
(44,405,o),
(44,335,cs),
(44,298,o),
(70,275,o),
(111,275,cs),
(153,275,o),
(182,296,o),
(182,328,cs),
(182,337,o),
(180,344,o),
(175,359,cs),
(171,370,o),
(169,377,o),
(169,384,cs),
(169,410,o),
(189,424,o),
(227,424,cs),
(275,424,o),
(292,402,o),
(292,343,cs),
(292,83,ls),
(292,21,o),
(332,-14,o),
(401,-14,cs)
);
},
{
closed = 1;
nodes = (
(240,-14,o),
(302,29,o),
(340,113,c),
(334,170,l),
(314,99,o),
(266,47,o),
(221,47,cs),
(191,47,o),
(176,65,o),
(176,100,cs),
(176,165,o),
(238,228,o),
(336,262,c),
(335,291,l),
(282,275,o),
(220,251,o),
(178,232,cs),
(79,186,o),
(30,135,o),
(30,79,cs),
(30,22,o),
(79,-14,o),
(157,-14,cs)
);
}
);
width = 516;
}
);
unicode = 97;
},
{
color = 6;
glyphname = aogonek;
kernLeft = a;
kernRight = a;
lastChange = "2025-02-28 12:20:44 +0000";
layers = (
{
anchors = (
{
name = bottom;
pos = (169,0);
},
{
name = top;
pos = (241,436);
}
);
layerId = "9372F035-DA38-4B54-966C-CEBA9B53DD02";
shapes = (
{
closed = 1;
nodes = (
(428,-284,o),
(470,-246,o),
(489,-172,c),
(472,-160,l),
(451,-204,o),
(417,-229,o),
(377,-229,cs),
(334,-229,o),
(306,-202,o),
(306,-160,cs),
(306,-116,o),
(348,-65,o),
(430,-14,cs),
(470,11,o),
(482,24,o),
(490,52,c),
(472,59,l),
(465,38,o),
(448,24,o),
(430,24,cs),
(404,24,o),
(395,48,o),
(395,116,cs),
(395,296,ls),
(395,406,o),
(349,454,o),
(244,454,cs),
(142,454,o),
(69,414,o),
(69,358,cs),
(69,330,o),
(87,310,o),
(112,310,cs),
(137,310,o),
(157,327,o),
(157,349,cs),
(157,356,o),
(156,360,o),
(152,377,cs),
(148,394,o),
(148,393,o),
(148,396,cs),
(148,416,o),
(179,429,o),
(227,429,cs),
(298,429,o),
(325,399,o),
(325,320,cs),
(325,112,ls),
(325,22,o),
(346,-11,o),
(403,-11,cs),
(412,-11,o),
(422,-9,o),
(431,-5,c),
(427,10,l),
(301,-75,o),
(253,-128,o),
(253,-181,cs),
(253,-243,o),
(298,-284,o),
(364,-284,cs)
);
},
{
closed = 1;
nodes = (
(232,-11,o),
(296,27,o),
(331,91,c),
(328,131,l),
(311,74,o),
(249,26,o),
(193,26,cs),
(152,26,o),
(128,48,o),
(128,87,cs),
(128,150,o),
(201,216,o),
(332,271,c),
(330,290,l),
(259,263,o),
(215,243,o),
(180,223,cs),
(89,173,o),
(50,130,o),
(50,79,cs),
(50,25,o),
(95,-11,o),
(163,-11,cs)
);
}
);
width = 490;
},
{
anchors = (
{
name = bottom;
pos = (184,0);
},
{
name = top;
pos = (256,446);
}
);
layerId = m002;
shapes = (
{
closed = 1;
nodes = (
(462,-293,o),
(518,-252,o),
(540,-184,c),
(517,-166,l),
(495,-202,o),
(471,-218,o),
(440,-218,cs),
(397,-218,o),
(369,-186,o),
(369,-139,cs),
(369,-90,o),
(402,-44,o),
(470,1,cs),
(495,18,o),
(506,30,o),
(516,52,c),
(489,65,l),
(482,50,o),
(472,42,o),
(458,42,cs),
(438,42,o),
(432,55,o),
(432,96,cs),
(432,299,ls),
(432,407,o),
(375,460,o),
(259,460,cs),
(139,460,o),
(44,405,o),
(44,335,cs),
(44,298,o),
(70,275,o),
(111,275,cs),
(153,275,o),
(182,296,o),
(182,328,cs),
(182,336,o),
(181,342,o),
(175,359,cs),
(170,374,o),
(169,378,o),
(169,385,cs),
(169,410,o),
(189,424,o),
(227,424,cs),
(275,424,o),
(292,402,o),
(292,343,cs),
(292,99,ls),
(292,24,o),
(328,-14,o),
(399,-14,cs),
(411,-14,o),
(425,-13,o),
(439,-11,c),
(455,22,l),
(321,-56,o),
(263,-115,o),
(263,-182,cs),
(263,-246,o),
(317,-293,o),
(391,-293,cs)
);
},
{
closed = 1;
nodes = (
(217,-14,o),
(267,9,o),
(305,54,c),
(300,98,l),
(277,65,o),
(248,47,o),
(220,47,cs),
(192,47,o),
(176,65,o),
(176,99,cs),
(176,156,o),
(222,211,o),
(301,248,c),
(300,280,l),
(248,262,o),
(212,248,o),
(181,233,cs),
(78,185,o),
(30,137,o),
(30,80,cs),
(30,22,o),
(79,-14,o),
(157,-14,cs)
);
}
);
width = 516;
}
);
unicode = 261;
},
{
color = 6;
glyphname = ae;
kernLeft = a;
kernRight = o;
lastChange = "2025-02-28 12:20:44 +0000";
layers = (
{
anchors = (
{
name = bottom;
pos = (373,0);
},
{
name = top;
pos = (373,436);
}
);
layerId = "9372F035-DA38-4B54-966C-CEBA9B53DD02";
shapes = (
{
closed = 1;
nodes = (
(625,-11,o),
(682,31,o),
(710,116,c),
(687,124,l),
(662,59,o),
(612,21,o),
(550,21,cs),
(457,21,o),
(395,101,o),
(395,222,cs),
(395,245,ls),
(395,348,o),
(456,429,o),
(535,429,cs),
(591,429,o),
(636,388,o),
(636,337,cs),
(636,292,o),
(597,268,o),
(524,268,cs),
(392,268,l),
(390,245,l),
(697,245,l),
(701,256,o),
(702,265,o),
(702,280,cs),
(702,384,o),
(636,454,o),
(536,454,cs),
(468,454,o),
(406,420,o),
(370,364,c),
(387,363,l),
(368,423,o),
(320,454,o),
(244,454,cs),
(145,454,o),
(69,411,o),
(69,355,cs),
(69,328,o),
(85,310,o),
(111,310,cs),
(138,310,o),
(157,327,o),
(157,352,cs),
(157,359,o),
(155,367,o),
(152,377,cs),
(149,386,o),
(148,391,o),
(148,395,cs),
(148,414,o),
(185,429,o),
(233,429,cs),
(300,429,o),
(325,395,o),
(325,306,cs),
(325,114,l),
(367,34,o),
(444,-11,o),
(536,-11,cs)
);
},
{
closed = 1;
nodes = (
(236,-11,o),
(303,31,o),
(343,103,c),
(328,130,l),
(312,76,o),
(248,24,o),
(197,24,cs),
(157,24,o),
(128,51,o),
(128,89,cs),
(128,150,o),
(202,217,o),
(330,270,c),
(329,289,l),
(141,217,o),
(50,148,o),
(50,77,cs),
(50,25,o),
(97,-11,o),
(164,-11,cs)
);
}
);
width = 745;
},
{
anchors = (
{
name = bottom;
pos = (376,0);
},
{
name = top;
pos = (376,446);
}
);
layerId = m002;
shapes = (
{
closed = 1;
nodes = (
(626,-14,o),
(691,24,o),
(731,113,c),
(697,128,l),
(670,72,o),
(625,41,o),
(569,41,cs),
(488,41,o),
(437,110,o),
(437,219,cs),
(437,249,ls),
(437,357,o),
(469,424,o),
(521,424,cs),
(558,424,o),
(586,389,o),
(586,342,cs),
(586,296,o),
(561,273,o),
(510,273,cs),
(409,273,l),
(407,237,l),
(727,237,l),
(729,245,o),
(730,263,o),
(730,276,cs),
(730,388,o),
(650,460,o),
(527,460,cs),
(466,460,o),
(415,443,o),
(368,406,c),
(396,405,l),
(371,440,o),
(320,460,o),
(256,460,cs),
(140,460,o),
(44,403,o),
(44,335,cs),
(44,298,o),
(70,275,o),
(111,275,cs),
(153,275,o),
(182,296,o),
(182,328,cs),
(182,337,o),
(180,344,o),
(175,359,cs),
(171,370,o),
(169,377,o),
(169,384,cs),
(169,410,o),
(189,424,o),
(227,424,cs),
(274,424,o),
(291,402,o),
(291,343,cs),
(291,87,l),
(336,16,o),
(425,-14,o),
(520,-14,cs)
);
},
{
closed = 1;
nodes = (
(245,-14,o),
(322,43,o),
(352,133,c),
(330,163,l),
(298,83,o),
(263,47,o),
(219,47,cs),
(191,47,o),
(176,66,o),
(176,100,cs),
(176,165,o),
(238,228,o),
(336,262,c),
(335,291,l),
(160,247,o),
(30,169,o),
(30,75,cs),
(30,23,o),
(81,-14,o),
(154,-14,cs)
);
}
);
width = 752;
}
);
metricLeft = a;
metricRight = e;
unicode = 230;
},
{
color = 6;
glyphname = b;
kernLeft = b;
kernRight = o;
lastChange = "2025-02-28 12:20:44 +0000";
layers = (
{
anchors = (
{
name = bottom;
pos = (302,0);
},
{
name = top;
pos = (299,710);
}
);
layerId = "9372F035-DA38-4B54-966C-CEBA9B53DD02";
shapes = (
{
closed = 1;
nodes = (
(421,-11,o),
(510,91,o),
(510,221,cs),
(510,352,o),
(421,454,o),
(307,454,cs),
(245,454,o),
(189,423,o),
(148,367,c),
(162,350,l),
(199,398,o),
(246,424,o),
(295,424,cs),
(379,424,o),
(430,347,o),
(430,221,cs),
(430,96,o),
(379,19,o),
(296,19,cs),
(241,19,o),
(183,53,o),
(161,99,c),
(152,65,l),
(187,18,o),
(246,-11,o),
(307,-11,cs)
);
},
{
closed = 1;
nodes = (
(114,-11,l),
(168,50,l),
(168,722,l),
(123,713,o),
(79,710,o),
(10,710,c),
(10,687,l),
(17,687,ls),
(77,687,o),
(98,666,o),
(98,606,cs),
(98,-11,l)
);
}
);
width = 555;
},
{
anchors = (
{
name = bottom;
pos = (300,0);
},
{
name = top;
pos = (295,710);
}
);
layerId = m002;
shapes = (
{
closed = 1;
nodes = (
(483,-14,o),
(564,81,o),
(564,223,cs),
(564,365,o),
(483,460,o),
(360,460,cs),
(293,460,o),
(236,433,o),
(175,370,c),
(187,344,l),
(243,388,o),
(278,405,o),
(312,405,cs),
(376,405,o),
(413,338,o),
(413,223,cs),
(413,108,o),
(376,41,o),
(312,41,cs),
(278,41,o),
(243,58,o),
(187,102,c),
(175,76,l),
(236,13,o),
(293,-14,o),
(360,-14,cs)
);
},
{
closed = 1;
nodes = (
(101,-11,l),
(216,46,l),
(216,722,l),
(152,713,o),
(93,710,o),
(6,710,c),
(6,676,l),
(17,675,ls),
(62,671,o),
(76,651,o),
(76,593,cs),
(76,-11,l)
);
}
);
width = 589;
}
);
metricRight = o;
unicode = 98;
},
{
color = 6;
glyphname = c;
kernLeft = o;
kernRight = o;
lastChange = "2025-02-28 12:20:44 +0000";
layers = (
{
anchors = (
{
name = bottom;
pos = (260,0);
},
{
name = top;
pos = (262,436);
}
);
layerId = "9372F035-DA38-4B54-966C-CEBA9B53DD02";
shapes = (
{
closed = 1;
nodes = (
(355,-11,o),
(418,34,o),
(440,115,c),
(416,123,l),
(396,57,o),
(343,22,o),
(279,22,cs),
(183,22,o),
(125,99,o),
(125,220,cs),
(125,345,o),
(187,429,o),
(280,429,cs),
(311,429,o),
(335,420,o),
(335,402,cs),
(335,397,o),
(333,392,o),
(331,384,cs),
(328,372,o),
(327,366,o),
(327,360,cs),
(327,334,o),
(349,314,o),
(378,314,cs),
(406,314,o),
(427,336,o),
(427,364,cs),
(427,414,o),
(360,454,o),
(278,454,cs),
(145,454,o),
(45,349,o),
(45,211,cs),
(45,80,o),
(135,-11,o),
(264,-11,cs)
);
}
);
width = 470;
},
{
anchors = (
{
name = bottom;
pos = (264,0);
},
{
name = top;
pos = (266,446);
}
);
layerId = m002;
shapes = (
{
closed = 1;
nodes = (
(362,-14,o),
(431,27,o),
(469,113,c),
(436,128,l),
(408,71,o),
(364,41,o),
(307,41,cs),
(222,41,o),
(175,109,o),
(175,230,cs),
(175,348,o),
(218,424,o),
(284,424,cs),
(313,424,o),
(334,410,o),
(334,387,cs),
(334,382,o),
(333,376,o),
(329,362,cs),
(324,344,o),
(323,335,o),
(323,327,cs),
(323,293,o),
(351,270,o),
(393,270,cs),
(436,270,o),
(461,294,o),
(461,336,cs),
(461,408,o),
(385,460,o),
(280,460,cs),
(132,460,o),
(25,357,o),
(25,213,cs),
(25,77,o),
(120,-14,o),
(263,-14,cs)
);
}
);
width = 485;
}
);
metricLeft = o;
unicode = 99;
},
{
color = 6;
glyphname = d;
kernLeft = o;
kernRight = l;
lastChange = "2025-02-28 12:20:44 +0000";
layers = (
{
anchors = (
{
name = bottom;
pos = (263,0);
},
{
name = center;
pos = (385,572);
},
{
name = top;
pos = (263,710);
},
{
name = topright;
pos = (497,710);
}
);
layerId = "9372F035-DA38-4B54-966C-CEBA9B53DD02";
shapes = (
{
closed = 1;
nodes = (
(310,-11,o),
(366,20,o),
(407,76,c),
(393,93,l),
(356,45,o),
(310,19,o),
(261,19,cs),
(176,19,o),
(125,96,o),
(125,222,cs),
(125,348,o),
(176,424,o),
(260,424,cs),
(314,424,o),
(373,389,o),
(394,344,c),
(403,378,l),
(368,425,o),
(309,454,o),
(249,454,cs),
(134,454,o),
(45,352,o),
(45,222,cs),
(45,91,o),
(134,-11,o),
(248,-11,cs)
);
},
{
closed = 1;
nodes = (
(439,-2,o),
(462,0,o),
(499,0,cs),
(540,0,l),
(540,23,l),
(477,23,o),
(457,44,o),
(457,109,cs),
(457,722,l),
(410,713,o),
(365,710,o),
(299,710,c),
(299,687,l),
(306,687,ls),
(366,687,o),
(387,666,o),
(387,606,cs),
(387,83,l),
(395,70,l),
(409,-8,l)
);
}
);
width = 545;
},
{
anchors = (
{
name = bottom;
pos = (288,0);
},
{
name = center;
pos = (410,570);
},
{
name = top;
pos = (308,710);
},
{
name = topright;
pos = (538,710);
}
);
layerId = m002;
shapes = (
{
closed = 1;
nodes = (
(296,-14,o),
(353,13,o),
(414,76,c),
(402,102,l),
(346,58,o),
(311,41,o),
(277,41,cs),
(212,41,o),
(175,107,o),
(175,223,cs),
(175,339,o),
(212,405,o),
(277,405,cs),
(311,405,o),
(346,388,o),
(402,344,c),
(414,370,l),
(353,433,o),
(296,460,o),
(229,460,cs),
(106,460,o),
(25,365,o),
(25,223,cs),
(25,81,o),
(106,-14,o),
(229,-14,cs)
);
},
{
closed = 1;
nodes = (
(450,-5,o),
(505,0,o),
(563,0,cs),
(583,0,l),
(583,34,l),
(528,39,o),
(513,56,o),
(513,117,cs),
(513,722,l),
(449,713,o),
(390,710,o),
(302,710,c),
(302,676,l),
(313,675,ls),
(358,671,o),
(372,651,o),
(372,593,cs),
(372,76,l),
(382,56,l),
(395,-15,l)
);
}
);
width = 589;
}
);
metricLeft = o;
unicode = 100;
},
{
color = 3;
glyphname = dcroat;
kernLeft = o;
kernRight = l;
lastChange = "2025-02-28 12:20:44 +0000";
layers = (
{
layerId = "9372F035-DA38-4B54-966C-CEBA9B53DD02";
shapes = (
{
closed = 1;
nodes = (
(537,559,l),
(537,584,l),
(238,584,l),
(238,559,l)
);
},
{
ref = d;
}
);
width = 545;
},
{
layerId = m002;
shapes = (
{
closed = 1;
nodes = (
(583,552,l),
(583,588,l),
(224,588,l),
(224,552,l)
);
},
{
ref = d;
}
);
width = 589;
}
);
metricLeft = d;
metricRight = d;
unicode = 273;
},
{
color = 6;
glyphname = eth;
kernLeft = o;
kernRight = O;
lastChange = "2025-02-28 12:20:44 +0000";
layers = (
{
anchors = (
{
name = bottom;
pos = (275,0);
},
{
name = center;
pos = (275,218);
},
{
name = top;
pos = (275,710);
}
);
layerId = "9372F035-DA38-4B54-966C-CEBA9B53DD02";
shapes = (
{
closed = 1;
nodes = (
(407,-11,o),
(505,93,o),
(505,243,cs),
(505,439,o),
(339,652,o),
(131,724,c),
(121,702,l),
(251,643,o),
(351,536,o),
(402,402,c),
(411,410,l),
(371,439,o),
(324,454,o),
(275,454,cs),
(146,454,o),
(45,351,o),
(45,221,cs),
(45,91,o),
(146,-11,o),
(276,-11,cs)
);
},
{
closed = 1;
nodes = (
(179,14,o),
(125,88,o),
(125,220,cs),
(125,355,o),
(178,429,o),
(275,429,cs),
(372,429,o),
(425,355,o),
(425,220,cs),
(425,88,o),
(371,14,o),
(275,14,cs)
);
},
{
closed = 1;
nodes = (
(401,659,l),
(386,694,l),
(128,564,l),
(137,544,l)
);
}
);
width = 550;
},
{
anchors = (
{
name = bottom;
pos = (275,0);
},
{
name = center;
pos = (275,218);
},
{
name = top;
pos = (275,710);
}
);
layerId = m002;
shapes = (
{
closed = 1;
nodes = (
(429,-14,o),
(538,105,o),
(538,272,cs),
(538,471,o),
(382,645,o),
(131,724,c),
(117,692,l),
(245,630,o),
(340,521,o),
(372,402,c),
(411,410,l),
(369,440,o),
(325,454,o),
(273,454,cs),
(133,454,o),
(25,352,o),
(25,221,cs),
(25,89,o),
(135,-14,o),
(276,-14,cs)
);
},
{
closed = 1;
nodes = (
(213,22,o),
(175,93,o),
(175,220,cs),
(175,348,o),
(212,418,o),
(280,418,cs),
(348,418,o),
(385,348,o),
(385,220,cs),
(385,93,o),
(347,22,o),
(280,22,cs)
);
},
{
closed = 1;
nodes = (
(419,658,l),
(399,704,l),
(122,564,l),
(136,533,l)
);
}
);
width = 563;
}
);
metricLeft = o;
metricRight = o;
unicode = 240;
},
{
color = 6;
glyphname = e;
kernLeft = o;
kernRight = o;
lastChange = "2025-02-28 12:20:44 +0000";
layers = (
{
anchors = (
{
name = bottom;
pos = (269,0);
},
{
name = ogonek;
pos = (372,0);
},
{
name = top;
pos = (266,436);
}
);
layerId = "9372F035-DA38-4B54-966C-CEBA9B53DD02";
shapes = (
{
closed = 1;
nodes = (
(355,-11,o),
(414,31,o),
(442,115,c),
(418,124,l),
(392,56,o),
(342,19,o),
(278,19,cs),
(183,19,o),
(125,98,o),
(125,225,cs),
(125,348,o),
(180,429,o),
(263,429,cs),
(320,429,o),
(364,389,o),
(364,337,cs),
(364,292,o),
(332,268,o),
(272,268,cs),
(123,268,l),
(121,245,l),
(428,245,l),
(430,252,o),
(431,263,o),
(431,277,cs),
(431,385,o),
(366,454,o),
(266,454,cs),
(142,454,o),
(45,348,o),
(45,211,cs),
(45,79,o),
(134,-11,o),
(265,-11,cs)
);
}
);
width = 477;
},
{
anchors = (
{
name = bottom;
pos = (262,0);
},
{
name = ogonek;
pos = (375,0);
},
{
name = top;
pos = (271,446);
}
);
layerId = m002;
shapes = (
{
closed = 1;
nodes = (
(363,-14,o),
(432,30,o),
(467,112,c),
(435,128,l),
(407,71,o),
(363,41,o),
(306,41,cs),
(220,41,o),
(175,109,o),
(175,238,cs),
(175,351,o),
(209,424,o),
(261,424,cs),
(297,424,o),
(324,389,o),
(324,342,cs),
(324,296,o),
(298,273,o),
(248,273,cs),
(113,273,l),
(111,237,l),
(465,237,l),
(467,245,o),
(468,262,o),
(468,276,cs),
(468,387,o),
(388,460,o),
(267,460,cs),
(126,460,o),
(25,360,o),
(25,222,cs),
(25,84,o),
(126,-14,o),
(268,-14,cs)
);
}
);
width = 489;
}
);
metricLeft = o;
unicode = 101;
},
{
color = 6;
glyphname = eogonek;
kernLeft = o;
kernRight = o;
lastChange = "2025-02-28 12:20:44 +0000";
layers = (
{
anchors = (
{
name = bottom;
pos = (269,0);
},
{
name = top;
pos = (266,436);
}
);
layerId = "9372F035-DA38-4B54-966C-CEBA9B53DD02";
shapes = (
{
closed = 1;
nodes = (
(119,245,l),
(428,245,l),
(430,252,o),
(431,263,o),
(431,277,cs),
(431,385,o),
(366,454,o),
(266,454,cs),
(142,454,o),
(45,348,o),
(45,211,cs),
(45,79,o),
(134,-11,o),
(265,-11,cs),
(293,-11,o),
(313,-8,o),
(329,-1,c),
(335,16,l),
(236,-70,o),
(198,-125,o),
(198,-181,cs),
(198,-243,o),
(243,-284,o),
(309,-284,cs),
(373,-284,o),
(415,-246,o),
(434,-172,c),
(417,-160,l),
(396,-204,o),
(362,-229,o),
(322,-229,cs),
(279,-229,o),
(251,-201,o),
(251,-158,cs),
(251,-105,o),
(291,-48,o),
(377,21,cs),
(407,42,o),
(428,74,o),
(442,115,c),
(418,124,l),
(392,56,o),
(342,19,o),
(278,19,cs),
(183,19,o),
(125,98,o),
(125,225,cs),
(125,348,o),
(180,429,o),
(263,429,cs),
(320,429,o),
(364,389,o),
(364,337,cs),
(364,292,o),
(332,268,o),
(272,268,cs),
(121,268,l)
);
}
);
width = 477;
},
{
anchors = (
{
name = bottom;
pos = (262,0);
},
{
name = top;
pos = (271,446);
}
);
layerId = m002;
shapes = (
{
closed = 1;
nodes = (
(166,237,l),
(465,237,l),
(467,244,o),
(468,260,o),
(468,276,cs),
(468,387,o),
(388,460,o),
(267,460,cs),
(126,460,o),
(25,360,o),
(25,222,cs),
(25,84,o),
(126,-14,o),
(268,-14,cs),
(294,-14,o),
(313,-13,o),
(332,-10,c),
(354,26,l),
(234,-53,o),
(182,-115,o),
(182,-179,cs),
(182,-246,o),
(234,-293,o),
(310,-293,cs),
(381,-293,o),
(437,-252,o),
(459,-184,c),
(436,-166,l),
(413,-203,o),
(390,-218,o),
(358,-218,cs),
(316,-218,o),
(288,-186,o),
(288,-138,cs),
(288,-83,o),
(325,-26,o),
(387,17,cs),
(424,42,o),
(450,73,o),
(467,112,c),
(435,128,l),
(407,71,o),
(363,41,o),
(306,41,cs),
(219,41,o),
(175,111,o),
(175,250,cs),
(175,355,o),
(209,424,o),
(261,424,cs),
(297,424,o),
(324,389,o),
(324,342,cs),
(324,296,o),
(298,273,o),
(248,273,cs),
(167,273,l)
);
}
);
width = 489;
}
);
unicode = 281;
},
{
color = 6;
glyphname = f;
kernLeft = l;
kernRight = f;
lastChange = "2025-02-28 12:20:44 +0000";
layers = (
{
anchors = (
{
name = bottom;
pos = (150,0);
},
{
name = top;
pos = (170,710);
}
);
layerId = "9372F035-DA38-4B54-966C-CEBA9B53DD02";
shapes = (
{
closed = 1;
nodes = (
(148,0,l),
(271,-3,l),
(271,20,l),
(255,22,ls),
(190,30,o),
(183,40,o),
(183,121,cs),
(183,550,ls),
(183,651,o),
(210,699,o),
(269,699,cs),
(294,699,o),
(308,690,o),
(308,675,cs),
(308,670,o),
(307,666,o),
(304,658,cs),
(301,650,o),
(299,642,o),
(299,634,cs),
(299,609,o),
(319,590,o),
(345,590,cs),
(373,590,o),
(392,611,o),
(392,643,cs),
(392,694,o),
(346,724,o),
(269,724,cs),
(165,724,o),
(113,666,o),
(113,550,cs),
(113,121,ls),
(113,40,o),
(106,30,o),
(41,22,cs),
(25,20,l),
(25,-3,l)
);
},
{
closed = 1;
nodes = (
(119,411,l),
(119,436,l),
(27,436,l),
(27,411,l)
);
},
{
closed = 1;
nodes = (
(286,411,l),
(286,436,l),
(177,436,l),
(177,411,l)
);
}
);
width = 339;
},
{
anchors = (
{
name = bottom;
pos = (151,0);
},
{
name = top;
pos = (190,710);
}
);
layerId = m002;
shapes = (
{
closed = 1;
nodes = (
(151,0,l),
(294,-3,l),
(294,31,l),
(272,35,ls),
(228,43,o),
(220,55,o),
(220,124,cs),
(220,550,ls),
(220,650,o),
(240,688,o),
(291,688,cs),
(314,688,o),
(327,679,o),
(327,663,cs),
(327,657,o),
(326,651,o),
(322,640,cs),
(318,628,o),
(316,618,o),
(316,609,cs),
(316,579,o),
(344,557,o),
(384,557,cs),
(427,557,o),
(454,581,o),
(454,621,cs),
(454,684,o),
(385,724,o),
(276,724,cs),
(142,724,o),
(80,663,o),
(80,530,cs),
(80,124,ls),
(80,55,o),
(72,41,o),
(28,34,cs),
(10,31,l),
(10,-3,l)
);
},
{
closed = 1;
nodes = (
(119,406,l),
(119,446,l),
(10,446,l),
(10,406,l)
);
},
{
closed = 1;
nodes = (
(341,406,l),
(341,446,l),
(177,446,l),
(177,406,l)
);
}
);
width = 379;
}
);
unicode = 102;
},
{
color = 6;
glyphname = g;
kernLeft = g;
kernRight = g;
lastChange = "2025-02-28 12:20:44 +0000";
layers = (
{
anchors = (
{
name = top;
pos = (251,436);
}
);
layerId = "9372F035-DA38-4B54-966C-CEBA9B53DD02";
shapes = (
{
closed = 1;
nodes = (
(392,-294,o),
(488,-222,o),
(488,-110,cs),
(488,-18,o),
(422,23,o),
(262,30,cs),
(218,32,ls),
(144,35,o),
(112,50,o),
(112,82,cs),
(112,112,o),
(143,135,o),
(196,144,c),
(165,156,l),
(98,140,o),
(52,94,o),
(52,44,cs),
(52,-11,o),
(101,-37,o),
(195,-42,cs),
(297,-47,ls),
(399,-52,o),
(442,-79,o),
(442,-138,cs),
(442,-218,o),
(364,-269,o),
(244,-269,cs),
(144,-269,o),
(82,-234,o),
(82,-177,cs),
(82,-163,o),
(85,-153,o),
(95,-137,cs),
(105,-119,o),
(107,-112,o),
(107,-101,cs),
(107,-77,o),
(91,-61,o),
(66,-61,cs),
(33,-61,o),
(10,-91,o),
(10,-136,cs),
(10,-229,o),
(107,-294,o),
(245,-294,cs)
);
},
{
closed = 1;
nodes = (
(356,132,o),
(437,203,o),
(437,293,cs),
(437,383,o),
(355,454,o),
(252,454,cs),
(148,454,o),
(67,384,o),
(67,293,cs),
(67,203,o),
(148,132,o),
(252,132,cs)
);
},
{
closed = 1;
nodes = (
(182,157,o),
(144,205,o),
(144,293,cs),
(144,381,o),
(182,429,o),
(252,429,cs),
(322,429,o),
(360,381,o),
(360,293,cs),
(360,205,o),
(322,157,o),
(252,157,cs)
);
},
{
closed = 1;
nodes = (
(527,378,o),
(546,397,o),
(546,422,cs),
(546,455,o),
(513,479,o),
(467,479,cs),
(422,479,o),
(379,456,o),
(356,420,c),
(375,407,l),
(390,432,o),
(411,448,o),
(430,448,cs),
(445,448,o),
(455,438,o),
(458,420,cs),
(463,394,o),
(480,378,o),
(503,378,cs)
);
}
);
width = 554;
},
{
anchors = (
{
name = top;
pos = (268,446);
}
);
layerId = m002;
shapes = (
{
closed = 1;
nodes = (
(427,-294,o),
(528,-222,o),
(528,-105,cs),
(528,-10,o),
(465,38,o),
(326,48,cs),
(216,56,ls),
(152,60,o),
(131,69,o),
(131,92,cs),
(131,117,o),
(159,135,o),
(213,144,c),
(182,168,l),
(90,148,o),
(34,97,o),
(34,32,cs),
(34,-31,o),
(91,-68,o),
(198,-75,cs),
(326,-83,ls),
(413,-88,o),
(444,-106,o),
(444,-151,cs),
(444,-215,o),
(375,-254,o),
(262,-254,cs),
(164,-254,o),
(100,-226,o),
(100,-184,cs),
(100,-173,o),
(104,-165,o),
(113,-151,cs),
(121,-138,o),
(126,-131,o),
(126,-120,cs),
(126,-94,o),
(102,-75,o),
(68,-75,cs),
(25,-75,o),
(-4,-106,o),
(-4,-152,cs),
(-4,-235,o),
(106,-294,o),
(262,-294,cs)
);
},
{
closed = 1;
nodes = (
(399,131,o),
(484,197,o),
(480,295,cs),
(477,393,o),
(391,460,o),
(267,460,cs),
(141,460,o),
(55,393,o),
(55,296,cs),
(55,198,o),
(142,131,o),
(270,131,cs)
);
},
{
closed = 1;
nodes = (
(219,169,o),
(192,213,o),
(192,295,cs),
(192,378,o),
(219,423,o),
(268,423,cs),
(317,423,o),
(344,378,o),
(344,295,cs),
(344,213,o),
(317,169,o),
(268,169,cs)
);
},
{
closed = 1;
nodes = (
(561,395,o),
(582,416,o),
(582,448,cs),
(582,493,o),
(547,524,o),
(495,524,cs),
(435,524,o),
(386,488,o),
(360,426,c),
(393,415,l),
(405,448,o),
(425,467,o),
(447,467,cs),
(459,467,o),
(466,460,o),
(475,439,cs),
(489,407,o),
(502,395,o),
(527,395,cs)
);
}
);
width = 586;
}
);
unicode = 103;
},
{
color = 6;
glyphname = h;
kernLeft = l;
kernRight = n;
lastChange = "2025-02-28 12:20:44 +0000";
layers = (
{
anchors = (
{
name = bottom;
pos = (299,0);
},
{
name = center;
pos = (142,572);
},
{
name = top;
pos = (300,710);
}
);
layerId = "9372F035-DA38-4B54-966C-CEBA9B53DD02";
shapes = (
{
closed = 1;
nodes = (
(138,0,l),
(261,-3,l),
(261,20,l),
(245,22,ls),
(180,30,o),
(173,40,o),
(173,121,cs),
(173,722,l),
(128,713,o),
(84,710,o),
(15,710,c),
(15,687,l),
(22,687,ls),
(82,687,o),
(103,666,o),
(103,606,cs),
(103,121,ls),
(103,40,o),
(96,30,o),
(31,22,cs),
(15,20,l),
(15,-3,l)
);
},
{
closed = 1;
nodes = (
(448,0,l),
(571,-3,l),
(571,20,l),
(555,22,ls),
(490,30,o),
(483,40,o),
(483,121,cs),
(483,321,ls),
(483,403,o),
(428,454,o),
(340,454,cs),
(268,454,o),
(206,419,o),
(168,359,c),
(168,311,l),
(190,377,o),
(252,424,o),
(318,424,cs),
(377,424,o),
(413,385,o),
(413,321,cs),
(413,121,ls),
(413,40,o),
(406,30,o),
(341,22,cs),
(325,20,l),
(325,-3,l)
);
}
);
width = 582;
},
{
anchors = (
{
name = bottom;
pos = (309,0);
},
{
name = center;
pos = (142,570);
},
{
name = top;
pos = (311,710);
}
);
layerId = m002;
shapes = (
{
closed = 1;
nodes = (
(136,0,l),
(275,-3,l),
(275,31,l),
(253,34,ls),
(226,38,o),
(220,54,o),
(220,124,cs),
(220,722,l),
(159,713,o),
(101,710,o),
(10,710,c),
(10,676,l),
(21,675,ls),
(66,671,o),
(80,651,o),
(80,593,cs),
(80,124,ls),
(80,55,o),
(72,41,o),
(28,34,cs),
(10,31,l),
(10,-3,l)
);
},
{
closed = 1;
nodes = (
(462,0,l),
(598,-3,l),
(598,31,l),
(580,34,ls),
(536,41,o),
(528,55,o),
(528,124,cs),
(528,324,ls),
(528,407,o),
(471,460,o),
(381,460,cs),
(313,460,o),
(255,430,o),
(211,372,c),
(211,315,l),
(241,368,o),
(276,393,o),
(319,393,cs),
(364,393,o),
(387,365,o),
(387,310,cs),
(387,124,ls),
(387,63,o),
(375,38,o),
(345,34,cs),
(323,31,l),
(323,-3,l)
);
}
);
width = 602;
}
);
metricLeft = l;
metricRight = n;
unicode = 104;
},
{
color = 3;
glyphname = hbar;
kernLeft = l;
kernRight = n;
lastChange = "2025-02-28 12:20:44 +0000";
layers = (
{
layerId = "9372F035-DA38-4B54-966C-CEBA9B53DD02";
shapes = (
{
ref = h;
},
{
closed = 1;
nodes = (
(322,559,l),
(322,584,l),
(15,584,l),
(15,559,l)
);
}
);
width = 582;
},
{
layerId = m002;
shapes = (
{
ref = h;
},
{
closed = 1;
nodes = (
(369,552,l),
(369,588,l),
(11,588,l),
(11,552,l)
);
}
);
width = 602;
}
);
metricLeft = h;
metricRight = h;
unicode = 295;
},
{
color = 6;
glyphname = idotless;
kernLeft = n;
kernRight = u;
lastChange = "2025-02-28 12:20:44 +0000";
layers = (
{
anchors = (
{
name = bottom;
pos = (149,0);
},
{
name = ogonek;
pos = (197,0);
},
{
name = top;
pos = (151,436);
}
);
layerId = "9372F035-DA38-4B54-966C-CEBA9B53DD02";
shapes = (
{
closed = 1;
nodes = (
(151,0,l),
(274,-3,l),
(274,20,l),
(258,22,ls),
(193,30,o),
(186,40,o),
(186,121,cs),
(186,448,l),
(139,439,o),
(94,436,o),
(28,436,c),
(28,413,l),
(35,413,ls),
(95,413,o),
(116,392,o),
(116,332,cs),
(116,121,ls),
(116,40,o),
(109,30,o),
(44,22,cs),
(28,20,l),
(28,-3,l)
);
}
);
width = 299;
},
{
anchors = (
{
name = bottom;
pos = (149,0);
},
{
name = ogonek;
pos = (201,0);
},
{
name = top;
pos = (142,446);
}
);
layerId = m002;
shapes = (
{
closed = 1;
nodes = (
(151,0,l),
(291,-3,l),
(291,31,l),
(273,34,ls),
(228,41,o),
(220,55,o),
(220,124,cs),
(220,458,l),
(156,449,o),
(97,446,o),
(10,446,c),
(10,412,l),
(21,411,ls),
(66,407,o),
(80,387,o),
(80,329,cs),
(80,124,ls),
(80,55,o),
(72,41,o),
(28,34,cs),
(10,31,l),
(10,-3,l)
);
}
);
width = 297;
}
);
unicode = 305;
},
{
color = 6;
glyphname = jdotless;
kernLeft = n;
kernRight = u;
lastChange = "2025-02-28 12:20:44 +0000";
layers = (
{
anchors = (
{
name = bottom;
pos = (146,-280);
},
{
name = top;
pos = (149,436);
}
);
layerId = "9372F035-DA38-4B54-966C-CEBA9B53DD02";
shapes = (
{
closed = 1;
nodes = (
(132,-294,o),
(189,-237,o),
(189,-152,cs),
(189,451,l),
(128,440,o),
(81,436,o),
(31,436,c),
(31,413,l),
(99,413,o),
(119,395,o),
(119,335,cs),
(119,-152,ls),
(119,-232,o),
(102,-273,o),
(69,-273,cs),
(52,-273,o),
(41,-262,o),
(41,-246,cs),
(41,-240,o),
(42,-235,o),
(45,-226,cs),
(48,-216,o),
(49,-213,o),
(49,-207,cs),
(49,-184,o),
(31,-167,o),
(6,-167,cs),
(-26,-167,o),
(-47,-190,o),
(-47,-223,cs),
(-47,-266,o),
(-9,-294,o),
(49,-294,cs)
);
}
);
width = 276;
},
{
anchors = (
{
name = bottom;
pos = (186,-280);
},
{
name = top;
pos = (189,446);
}
);
layerId = m002;
shapes = (
{
closed = 1;
nodes = (
(199,-297,o),
(261,-234,o),
(261,-103,cs),
(261,459,l),
(192,450,o),
(130,446,o),
(50,446,c),
(50,413,l),
(104,413,o),
(121,393,o),
(121,330,cs),
(121,-123,ls),
(121,-222,o),
(106,-261,o),
(69,-261,cs),
(51,-261,o),
(41,-252,o),
(41,-237,cs),
(41,-232,o),
(42,-225,o),
(46,-213,cs),
(50,-200,o),
(52,-192,o),
(52,-184,cs),
(52,-151,o),
(25,-130,o),
(-17,-130,cs),
(-60,-130,o),
(-86,-154,o),
(-86,-196,cs),
(-86,-259,o),
(-26,-297,o),
(72,-297,cs)
);
}
);
width = 316;
}
);
unicode = 567;
},
{
color = 6;
glyphname = k;
kernLeft = l;
kernRight = k;
lastChange = "2025-02-28 12:20:44 +0000";
layers = (
{
anchors = (
{
name = bottom;
pos = (261,-3);
},
{
name = top;
pos = (260,710);
}
);
layerId = "9372F035-DA38-4B54-966C-CEBA9B53DD02";
shapes = (
{
closed = 1;
nodes = (
(138,0,l),
(261,-3,l),
(261,20,l),
(245,22,ls),
(180,30,o),
(173,40,o),
(173,121,cs),
(173,722,l),
(128,713,o),
(84,710,o),
(15,710,c),
(15,687,l),
(22,687,ls),
(82,687,o),
(103,666,o),
(103,606,cs),
(103,121,ls),
(103,40,o),
(96,30,o),
(31,22,cs),
(15,20,l),
(15,-3,l)
);
},
{
closed = 1;
nodes = (
(524,20,l),
(508,22,l),
(492,23,o),
(474,36,o),
(439,76,cs),
(257,280,l),
(212,226,l),
(413,0,l),
(524,-3,l)
);
},
{
closed = 1;
nodes = (
(327,335,ls),
(366,382,o),
(406,406,o),
(458,413,cs),
(474,415,l),
(474,438,l),
(390,436,l),
(294,438,l),
(294,415,l),
(310,413,ls),
(326,411,o),
(334,405,o),
(334,395,cs),
(334,387,o),
(329,378,o),
(321,367,cs),
(168,184,l),
(168,146,l)
);
}
);
width = 524;
},
{
anchors = (
{
name = bottom;
pos = (287,0);
},
{
name = top;
pos = (290,710);
}
);
layerId = m002;
shapes = (
{
closed = 1;
nodes = (
(151,0,l),
(291,-3,l),
(291,31,l),
(273,34,ls),
(228,41,o),
(220,55,o),
(220,124,cs),
(220,722,l),
(158,713,o),
(100,710,o),
(10,710,c),
(10,676,l),
(21,675,ls),
(66,671,o),
(80,651,o),
(80,593,cs),
(80,124,ls),
(80,55,o),
(72,41,o),
(28,34,cs),
(10,31,l),
(10,-3,l)
);
},
{
closed = 1;
nodes = (
(576,31,l),
(564,33,ls),
(548,36,o),
(534,49,o),
(506,88,cs),
(332,328,l),
(237,225,l),
(396,0,l),
(576,-3,l)
);
},
{
closed = 1;
nodes = (
(371,333,ls),
(423,386,o),
(459,406,o),
(510,412,cs),
(527,414,l),
(527,448,l),
(433,446,l),
(315,448,l),
(315,414,l),
(333,413,ls),
(351,412,o),
(360,406,o),
(360,396,cs),
(360,387,o),
(354,375,o),
(345,366,cs),
(184,198,l),
(184,141,l)
);
}
);
width = 580;
}
);
metricLeft = l;
unicode = 107;
},
{
color = 6;
glyphname = l;
kernLeft = l;
kernRight = l;
lastChange = "2025-02-28 12:20:44 +0000";
layers = (
{
anchors = (
{
name = bottom;
pos = (135,0);
},
{
name = center;
pos = (138,386);
},
{
name = top;
pos = (137,710);
},
{
name = topright;
pos = (213,710);
}
);
layerId = "9372F035-DA38-4B54-966C-CEBA9B53DD02";
shapes = (
{
closed = 1;
nodes = (
(138,0,l),
(261,-3,l),
(261,20,l),
(245,22,ls),
(180,30,o),
(173,40,o),
(173,121,cs),
(173,722,l),
(126,713,o),
(81,710,o),
(15,710,c),
(15,687,l),
(22,687,ls),
(82,687,o),
(103,666,o),
(103,606,cs),
(103,121,ls),
(103,40,o),
(96,30,o),
(31,22,cs),
(15,20,l),
(15,-3,l)
);
}
);
width = 276;
},
{
anchors = (
{
name = bottom;
pos = (155,0);
},
{
name = center;
pos = (151,386);
},
{
name = top;
pos = (152,710);
},
{
name = topright;
pos = (245,710);
}
);
layerId = m002;
shapes = (
{
closed = 1;
nodes = (
(151,0,l),
(291,-3,l),
(291,31,l),
(273,34,ls),
(228,41,o),
(220,55,o),
(220,124,cs),
(220,722,l),
(156,713,o),
(97,710,o),
(10,710,c),
(10,676,l),
(21,675,ls),
(66,671,o),
(80,651,o),
(80,593,cs),
(80,124,ls),
(80,55,o),
(72,41,o),
(28,34,cs),
(10,31,l),
(10,-3,l)
);
}
);
width = 297;
}
);
unicode = 108;
},
{
color = 3;
glyphname = lslash;
kernLeft = l;
kernRight = l;
lastChange = "2025-02-28 12:20:44 +0000";
layers = (
{
layerId = "9372F035-DA38-4B54-966C-CEBA9B53DD02";
shapes = (
{
closed = 1;
nodes = (
(271,401,l),
(254,437,l),
(10,311,l),
(21,287,l)
);
},
{
ref = l;
}
);
width = 276;
},
{
layerId = m002;
shapes = (
{
closed = 1;
nodes = (
(352,406,l),
(326,463,l),
(17,299,l),
(32,264,l)
);
},
{
pos = (35,0);
ref = l;
}
);
width = 367;
}
);
unicode = 322;
},
{
color = 6;
glyphname = m;
kernLeft = n;
kernRight = n;
lastChange = "2025-02-28 12:20:44 +0000";
layers = (
{
anchors = (
{
name = top;
pos = (486,436);
}
);
layerId = "9372F035-DA38-4B54-966C-CEBA9B53DD02";
shapes = (
{
closed = 1;
nodes = (
(183,312,l),
(202,378,o),
(259,424,o),
(321,424,cs),
(376,424,o),
(411,388,o),
(411,329,cs),
(411,121,ls),
(411,39,o),
(405,29,o),
(349,22,cs),
(333,20,l),
(333,-3,l),
(446,0,l),
(559,-3,l),
(559,20,l),
(543,22,ls),
(487,29,o),
(481,39,o),
(481,121,cs),
(481,312,ls),
(481,402,o),
(431,454,o),
(343,454,cs),
(274,454,o),
(217,422,o),
(180,361,c)
);
},
{
closed = 1;
nodes = (
(741,0,l),
(863,-3,l),
(863,20,l),
(847,22,ls),
(783,30,o),
(776,39,o),
(776,121,cs),
(776,312,ls),
(776,401,o),
(726,454,o),
(640,454,cs),
(550,454,o),
(473,395,o),
(459,315,c),
(479,315,l),
(499,380,o),
(555,424,o),
(616,424,cs),
(671,424,o),
(706,388,o),
(706,329,cs),
(706,121,ls),
(706,40,o),
(699,29,o),
(644,22,cs),
(628,20,l),
(628,-3,l)
);
},
{
closed = 1;
nodes = (
(186,365,l),
(186,370,l),
(186,448,l),
(141,439,o),
(97,436,o),
(28,436,c),
(28,413,l),
(94,413,o),
(116,393,o),
(116,332,cs),
(116,121,ls),
(116,40,o),
(109,30,o),
(44,22,cs),
(28,20,l),
(28,-3,l),
(151,0,l),
(264,-3,l),
(264,20,l),
(248,22,ls),
(192,29,o),
(186,39,o),
(186,121,cs)
);
}
);
width = 874;
},
{
anchors = (
{
name = top;
pos = (486,446);
}
);
layerId = m002;
shapes = (
{
closed = 1;
nodes = (
(211,315,l),
(239,366,o),
(276,393,o),
(316,393,cs),
(357,393,o),
(378,364,o),
(378,310,cs),
(378,124,ls),
(378,63,o),
(367,38,o),
(339,34,cs),
(317,31,l),
(317,-3,l),
(452,0,l),
(578,-3,l),
(578,31,l),
(556,34,ls),
(524,38,o),
(518,53,o),
(518,124,cs),
(518,324,ls),
(518,406,o),
(463,460,o),
(378,460,cs),
(313,460,o),
(253,428,o),
(211,372,c)
);
},
{
closed = 1;
nodes = (
(749,0,l),
(885,-3,l),
(885,31,l),
(867,34,ls),
(823,41,o),
(815,55,o),
(815,124,cs),
(815,324,ls),
(815,407,o),
(760,460,o),
(672,460,cs),
(564,460,o),
(473,380,o),
(459,271,c),
(492,271,l),
(509,343,o),
(558,393,o),
(613,393,cs),
(654,393,o),
(675,364,o),
(675,310,cs),
(675,124,ls),
(675,63,o),
(664,38,o),
(636,34,cs),
(614,31,l),
(614,-3,l)
);
},
{
closed = 1;
nodes = (
(220,383,l),
(216,383,l),
(216,458,l),
(154,449,o),
(98,446,o),
(10,446,c),
(10,412,l),
(63,412,o),
(80,392,o),
(80,329,cs),
(80,124,ls),
(80,55,o),
(72,41,o),
(28,34,cs),
(10,31,l),
(10,-3,l),
(136,0,l),
(281,-3,l),
(281,31,l),
(259,34,ls),
(227,38,o),
(220,54,o),
(220,124,cs)
);
}
);
width = 889;
}
);
metricLeft = n;
metricRight = n;
unicode = 109;
},
{
color = 6;
glyphname = n;
kernLeft = n;
kernRight = n;
lastChange = "2025-02-28 12:20:44 +0000";
layers = (
{
anchors = (
{
name = bottom;
pos = (301,0);
},
{
name = top;
pos = (311,436);
}
);
layerId = "9372F035-DA38-4B54-966C-CEBA9B53DD02";
shapes = (
{
closed = 1;
nodes = (
(461,0,l),
(584,-3,l),
(584,20,l),
(568,22,ls),
(503,30,o),
(496,40,o),
(496,121,cs),
(496,321,ls),
(496,403,o),
(441,454,o),
(353,454,cs),
(281,454,o),
(219,419,o),
(181,359,c),
(183,313,l),
(205,378,o),
(266,424,o),
(331,424,cs),
(390,424,o),
(426,385,o),
(426,321,cs),
(426,121,ls),
(426,40,o),
(419,30,o),
(354,22,cs),
(338,20,l),
(338,-3,l)
);
},
{
closed = 1;
nodes = (
(151,0,l),
(274,-3,l),
(274,20,l),
(258,22,ls),
(193,30,o),
(186,40,o),
(186,121,cs),
(186,363,l),
(186,366,l),
(186,448,l),
(141,439,o),
(97,436,o),
(28,436,c),
(28,413,l),
(35,413,ls),
(95,413,o),
(116,392,o),
(116,332,cs),
(116,121,ls),
(116,40,o),
(109,30,o),
(44,22,cs),
(28,20,l),
(28,-3,l)
);
}
);
width = 595;
},
{
anchors = (
{
name = bottom;
pos = (289,0);
},
{
name = top;
pos = (309,446);
}
);
layerId = m002;
shapes = (
{
closed = 1;
nodes = (
(463,0,l),
(598,-3,l),
(598,31,l),
(580,34,ls),
(536,41,o),
(528,55,o),
(528,124,cs),
(528,324,ls),
(528,407,o),
(471,460,o),
(380,460,cs),
(312,460,o),
(254,430,o),
(211,372,c),
(211,315,l),
(241,368,o),
(276,393,o),
(319,393,cs),
(365,393,o),
(388,366,o),
(388,310,cs),
(388,124,ls),
(388,63,o),
(377,38,o),
(349,34,cs),
(327,31,l),
(327,-3,l)
);
},
{
closed = 1;
nodes = (
(145,0,l),
(281,-3,l),
(281,31,l),
(259,34,ls),
(227,38,o),
(220,54,o),
(220,124,cs),
(220,383,l),
(216,383,l),
(216,458,l),
(154,449,o),
(98,446,o),
(10,446,c),
(10,412,l),
(21,412,ls),
(64,412,o),
(80,389,o),
(80,329,cs),
(80,124,ls),
(80,55,o),
(72,41,o),
(28,34,cs),
(10,31,l),
(10,-3,l)
);
}
);
width = 602;
}
);
unicode = 110;
},
{
color = 6;
glyphname = eng;
kernLeft = n;
kernRight = n;
lastChange = "2025-02-28 12:20:44 +0000";
layers = (
{
anchors = (
{
name = top;
pos = (311,436);
}
);
layerId = "9372F035-DA38-4B54-966C-CEBA9B53DD02";
shapes = (
{
closed = 1;
nodes = (
(440,-294,o),
(496,-237,o),
(496,-152,cs),
(496,321,ls),
(496,403,o),
(441,454,o),
(353,454,cs),
(263,454,o),
(179,393,o),
(163,315,c),
(184,315,l),
(205,378,o),
(267,424,o),
(329,424,cs),
(391,424,o),
(426,386,o),
(426,321,cs),
(426,-152,ls),
(426,-230,o),
(408,-273,o),
(375,-273,cs),
(360,-273,o),
(351,-266,o),
(351,-252,cs),
(351,-248,o),
(352,-241,o),
(354,-229,cs),
(356,-217,o),
(357,-214,o),
(357,-207,cs),
(357,-183,o),
(338,-167,o),
(311,-167,cs),
(280,-167,o),
(260,-189,o),
(260,-223,cs),
(260,-267,o),
(296,-294,o),
(355,-294,cs)
);
},
{
closed = 1;
nodes = (
(151,0,l),
(274,-3,l),
(274,20,l),
(258,22,ls),
(193,30,o),
(186,40,o),
(186,121,cs),
(186,343,l),
(186,352,l),
(186,448,l),
(139,439,o),
(94,436,o),
(28,436,c),
(28,413,l),
(35,413,ls),
(95,413,o),
(116,392,o),
(116,332,cs),
(116,121,ls),
(116,40,o),
(109,30,o),
(44,22,cs),
(28,20,l),
(28,-3,l)
);
}
);
width = 595;
},
{
anchors = (
{
name = top;
pos = (309,446);
}
);
layerId = m002;
shapes = (
{
closed = 1;
nodes = (
(466,-297,o),
(528,-233,o),
(528,-103,cs),
(528,324,ls),
(528,406,o),
(471,460,o),
(382,460,cs),
(280,460,o),
(196,390,o),
(169,281,c),
(195,281,l),
(226,355,o),
(268,393,o),
(320,393,cs),
(365,393,o),
(388,365,o),
(388,310,cs),
(388,-123,ls),
(388,-225,o),
(374,-261,o),
(336,-261,cs),
(318,-261,o),
(308,-252,o),
(308,-237,cs),
(308,-230,o),
(309,-224,o),
(314,-210,cs),
(318,-199,o),
(319,-192,o),
(319,-184,cs),
(319,-151,o),
(292,-130,o),
(251,-130,cs),
(207,-130,o),
(181,-154,o),
(181,-196,cs),
(181,-259,o),
(241,-297,o),
(339,-297,cs)
);
},
{
closed = 1;
nodes = (
(156,0,l),
(281,-3,l),
(281,31,l),
(259,34,ls),
(227,38,o),
(220,54,o),
(220,124,cs),
(220,383,l),
(216,383,l),
(216,458,l),
(152,449,o),
(96,446,o),
(10,446,c),
(10,412,l),
(21,412,ls),
(64,412,o),
(80,389,o),
(80,329,cs),
(80,124,ls),
(80,55,o),
(72,41,o),
(28,34,cs),
(10,31,l),
(10,-3,l)
);
}
);
width = 595;
}
);
unicode = 331;
},
{
color = 6;
glyphname = o;
kernLeft = o;
kernRight = o;
lastChange = "2025-02-28 12:20:44 +0000";
layers = (
{
anchors = (
{
name = bottom;
pos = (275,0);
},
{
name = center;
pos = (275,221);
},
{
name = ogonek;
pos = (342,0);
},
{
name = top;
pos = (275,436);
}
);
layerId = "9372F035-DA38-4B54-966C-CEBA9B53DD02";
shapes = (
{
closed = 1;
nodes = (
(403,-11,o),
(505,91,o),
(505,220,cs),
(505,351,o),
(404,454,o),
(275,454,cs),
(146,454,o),
(45,351,o),
(45,220,cs),
(45,91,o),
(147,-11,o),
(275,-11,cs)
);
},
{
closed = 1;
nodes = (
(179,14,o),
(125,88,o),
(125,220,cs),
(125,355,o),
(178,429,o),
(275,429,cs),
(372,429,o),
(425,355,o),
(425,220,cs),
(425,88,o),
(371,14,o),
(275,14,cs)
);
}
);
width = 550;
},
{
anchors = (
{
name = bottom;
pos = (280,0);
},
{
name = center;
pos = (280,223);
},
{
name = ogonek;
pos = (409,10);
},
{
name = top;
pos = (280,446);
}
);
layerId = m002;
shapes = (
{
closed = 1;
nodes = (
(426,-14,o),
(535,87,o),
(535,223,cs),
(535,358,o),
(426,460,o),
(280,460,cs),
(134,460,o),
(25,358,o),
(25,223,cs),
(25,87,o),
(134,-14,o),
(280,-14,cs)
);
},
{
closed = 1;
nodes = (
(213,22,o),
(175,94,o),
(175,223,cs),
(175,352,o),
(213,424,o),
(280,424,cs),
(347,424,o),
(385,352,o),
(385,223,cs),
(385,94,o),
(347,22,o),
(280,22,cs)
);
}
);
width = 560;
}
);
unicode = 111;
},
{
color = 6;
glyphname = p;
kernLeft = p;
kernRight = o;
lastChange = "2025-02-28 12:20:44 +0000";
layers = (
{
anchors = (
{
name = bottom;
pos = (275,-280);
},
{
name = top;
pos = (305,436);
}
);
layerId = "9372F035-DA38-4B54-966C-CEBA9B53DD02";
shapes = (
{
closed = 1;
nodes = (
(141,-280,l),
(264,-283,l),
(264,-260,l),
(248,-258,ls),
(183,-250,o),
(176,-240,o),
(176,-159,cs),
(176,367,l),
(169,382,l),
(176,451,l),
(115,440,o),
(68,436,o),
(18,436,c),
(18,413,l),
(86,413,o),
(106,395,o),
(106,335,cs),
(106,-159,ls),
(106,-240,o),
(99,-250,o),
(34,-258,cs),
(18,-260,l),
(18,-283,l)
);
},
{
closed = 1;
nodes = (
(429,-11,o),
(518,91,o),
(518,221,cs),
(518,352,o),
(429,454,o),
(315,454,cs),
(254,454,o),
(200,424,o),
(156,367,c),
(170,350,l),
(208,399,o),
(253,424,o),
(302,424,cs),
(387,424,o),
(438,347,o),
(438,221,cs),
(438,96,o),
(387,19,o),
(304,19,cs),
(249,19,o),
(191,53,o),
(169,99,c),
(160,65,l),
(195,18,o),
(254,-11,o),
(315,-11,cs)
);
}
);
width = 563;
},
{
anchors = (
{
name = bottom;
pos = (305,-280);
},
{
name = top;
pos = (315,446);
}
);
layerId = m002;
shapes = (
{
closed = 1;
nodes = (
(147,-280,l),
(287,-283,l),
(287,-249,l),
(269,-246,ls),
(224,-239,o),
(216,-225,o),
(216,-156,cs),
(214,394,l),
(206,395,l),
(213,461,l),
(133,450,o),
(75,446,o),
(6,446,c),
(6,412,l),
(59,412,o),
(76,392,o),
(76,329,cs),
(76,-156,ls),
(76,-225,o),
(68,-239,o),
(24,-246,cs),
(6,-249,l),
(6,-283,l)
);
},
{
closed = 1;
nodes = (
(493,-14,o),
(574,81,o),
(574,223,cs),
(574,365,o),
(493,460,o),
(370,460,cs),
(303,460,o),
(246,433,o),
(185,370,c),
(197,344,l),
(253,388,o),
(288,405,o),
(322,405,cs),
(387,405,o),
(424,339,o),
(424,223,cs),
(424,107,o),
(387,41,o),
(322,41,cs),
(288,41,o),
(253,58,o),
(197,102,c),
(185,76,l),
(246,13,o),
(303,-14,o),
(370,-14,cs)
);
}
);
width = 599;
}
);
metricRight = o;
unicode = 112;
},
{
color = 6;
glyphname = thorn;
kernLeft = l;
kernRight = o;
lastChange = "2025-02-28 12:20:44 +0000";
layers = (
{
anchors = (
{
name = bottom;
pos = (293,-280);
},
{
name = top;
pos = (293,710);
}
);
layerId = "9372F035-DA38-4B54-966C-CEBA9B53DD02";
shapes = (
{
closed = 1;
nodes = (
(141,-280,l),
(264,-283,l),
(264,-260,l),
(248,-258,ls),
(183,-250,o),
(176,-240,o),
(176,-159,cs),
(176,724,l),
(115,713,o),
(68,709,o),
(18,709,c),
(18,686,l),
(86,683,o),
(106,666,o),
(106,608,cs),
(106,-159,ls),
(106,-240,o),
(99,-250,o),
(34,-258,cs),
(18,-260,l),
(18,-283,l)
);
},
{
closed = 1;
nodes = (
(428,-11,o),
(518,88,o),
(518,221,cs),
(518,353,o),
(428,454,o),
(310,454,cs),
(253,454,o),
(203,430,o),
(170,387,c),
(170,348,l),
(202,399,o),
(253,429,o),
(305,429,cs),
(388,429,o),
(438,351,o),
(438,222,cs),
(438,94,o),
(388,19,o),
(304,19,cs),
(250,19,o),
(198,50,o),
(170,99,c),
(168,59,l),
(203,13,o),
(251,-11,o),
(309,-11,cs)
);
}
);
width = 563;
},
{
anchors = (
{
name = bottom;
pos = (300,-280);
},
{
name = top;
pos = (300,710);
}
);
layerId = m002;
shapes = (
{
closed = 1;
nodes = (
(147,-281,l),
(287,-284,l),
(287,-250,l),
(269,-247,ls),
(225,-240,o),
(216,-227,o),
(216,-157,cs),
(216,724,l),
(154,715,o),
(96,712,o),
(6,712,c),
(6,678,l),
(61,674,o),
(76,657,o),
(76,595,cs),
(76,-157,ls),
(76,-226,o),
(68,-240,o),
(24,-247,cs),
(6,-250,l),
(6,-284,l)
);
},
{
closed = 1;
nodes = (
(493,-15,o),
(574,80,o),
(574,222,cs),
(574,364,o),
(493,459,o),
(370,459,cs),
(302,459,o),
(245,431,o),
(185,369,c),
(197,343,l),
(253,387,o),
(288,404,o),
(322,404,cs),
(387,404,o),
(424,338,o),
(424,222,cs),
(424,106,o),
(387,40,o),
(322,40,cs),
(288,40,o),
(253,57,o),
(197,101,c),
(185,75,l),
(245,13,o),
(302,-15,o),
(370,-15,cs)
);
}
);
width = 599;
}
);
metricLeft = p;
metricRight = p;
unicode = 254;
},
{
color = 6;
glyphname = q;
kernLeft = o;
kernRight = n;
lastChange = "2025-02-28 12:20:44 +0000";
layers = (
{
anchors = (
{
name = bottom;
pos = (277,-280);
},
{
name = top;
pos = (277,436);
}
);
layerId = "9372F035-DA38-4B54-966C-CEBA9B53DD02";
shapes = (
{
closed = 1;
nodes = (
(422,-280,l),
(545,-283,l),
(545,-260,l),
(529,-258,ls),
(464,-250,o),
(457,-240,o),
(457,-159,cs),
(457,449,l),
(442,449,l),
(387,389,l),
(387,-159,ls),
(387,-240,o),
(380,-250,o),
(315,-258,cs),
(299,-260,l),
(299,-283,l)
);
},
{
closed = 1;
nodes = (
(310,-11,o),
(366,20,o),
(407,76,c),
(393,93,l),
(356,45,o),
(309,19,o),
(260,19,cs),
(176,19,o),
(125,96,o),
(125,222,cs),
(125,347,o),
(176,424,o),
(259,424,cs),
(314,424,o),
(372,390,o),
(394,344,c),
(403,378,l),
(368,425,o),
(309,454,o),
(248,454,cs),
(134,454,o),
(45,352,o),
(45,222,cs),
(45,91,o),
(134,-11,o),
(248,-11,cs)
);
}
);
width = 535;
},
{
anchors = (
{
name = bottom;
pos = (335,-280);
},
{
name = top;
pos = (315,446);
}
);
layerId = m002;
shapes = (
{
closed = 1;
nodes = (
(443,-280,l),
(583,-283,l),
(583,-249,l),
(565,-246,ls),
(521,-239,o),
(513,-225,o),
(513,-156,cs),
(513,457,l),
(488,457,l),
(373,400,l),
(373,-156,ls),
(373,-225,o),
(365,-239,o),
(320,-246,cs),
(302,-249,l),
(302,-283,l)
);
},
{
closed = 1;
nodes = (
(297,-14,o),
(354,14,o),
(414,76,c),
(402,102,l),
(346,58,o),
(311,41,o),
(277,41,cs),
(212,41,o),
(175,107,o),
(175,223,cs),
(175,339,o),
(212,405,o),
(277,405,cs),
(311,405,o),
(346,388,o),
(402,344,c),
(414,370,l),
(354,432,o),
(297,460,o),
(229,460,cs),
(106,460,o),
(25,365,o),
(25,223,cs),
(25,81,o),
(106,-14,o),
(229,-14,cs)
);
}
);
width = 589;
}
);
metricLeft = o;
unicode = 113;
},
{
color = 6;
glyphname = r;
kernLeft = n;
kernRight = r;
lastChange = "2025-02-28 12:20:44 +0000";
layers = (
{
anchors = (
{
name = bottom;
pos = (149,0);
},
{
name = top;
pos = (189,436);
}
);
layerId = "9372F035-DA38-4B54-966C-CEBA9B53DD02";
shapes = (
{
closed = 1;
nodes = (
(151,0,l),
(274,-3,l),
(274,20,l),
(258,22,ls),
(193,30,o),
(186,40,o),
(186,121,cs),
(186,333,l),
(175,333,l),
(186,448,l),
(128,440,o),
(81,436,o),
(28,436,c),
(28,413,l),
(96,413,o),
(116,394,o),
(116,329,cs),
(116,121,ls),
(116,40,o),
(109,30,o),
(44,22,cs),
(28,20,l),
(28,-3,l)
);
},
{
closed = 1;
nodes = (
(198,352,o),
(237,420,o),
(272,420,cs),
(281,420,o),
(286,416,o),
(286,410,cs),
(286,407,o),
(285,403,o),
(284,398,cs),
(282,388,o),
(281,384,o),
(281,378,cs),
(281,358,o),
(299,344,o),
(323,344,cs),
(353,344,o),
(372,365,o),
(372,394,cs),
(372,420,o),
(357,454,o),
(304,454,cs),
(248,454,o),
(201,417,o),
(173,312,c),
(184,269,l)
);
}
);
width = 392;
},
{
anchors = (
{
name = bottom;
pos = (149,0);
},
{
name = top;
pos = (189,446);
}
);
layerId = m002;
shapes = (
{
closed = 1;
nodes = (
(136,0,l),
(291,-3,l),
(291,31,l),
(264,34,ls),
(235,38,o),
(220,54,o),
(220,124,cs),
(220,337,l),
(204,337,l),
(215,458,l),
(152,449,o),
(98,446,o),
(10,446,c),
(10,412,l),
(63,412,o),
(80,392,o),
(80,329,cs),
(80,124,ls),
(80,55,o),
(72,41,o),
(28,34,cs),
(10,31,l),
(10,-3,l)
);
},
{
closed = 1;
nodes = (
(231,329,o),
(269,401,o),
(303,401,cs),
(313,401,o),
(320,396,o),
(320,385,cs),
(320,380,o),
(319,377,o),
(316,368,cs),
(313,359,o),
(312,354,o),
(312,348,cs),
(312,322,o),
(335,304,o),
(370,304,cs),
(414,304,o),
(442,332,o),
(442,377,cs),
(442,428,o),
(407,460,o),
(352,460,cs),
(282,460,o),
(229,409,o),
(202,315,c),
(217,241,l)
);
}
);
width = 448;
}
);
metricLeft = n;
unicode = 114;
},
{
color = 6;
glyphname = s;
kernLeft = s;
kernRight = s;
lastChange = "2025-02-28 12:20:44 +0000";
layers = (
{
anchors = (
{
name = bottom;
pos = (206,0);
},
{
name = top;
pos = (203,436);
}
);
layerId = "9372F035-DA38-4B54-966C-CEBA9B53DD02";
shapes = (
{
closed = 1;
nodes = (
(294,-11,o),
(352,43,o),
(352,122,cs),
(352,183,o),
(320,221,o),
(245,251,cs),
(205,267,ls),
(145,291,o),
(118,319,o),
(118,357,cs),
(118,399,o),
(150,429,o),
(196,429,cs),
(250,429,o),
(289,387,o),
(299,316,c),
(322,316,l),
(322,386,l),
(326,451,l),
(304,452,l),
(300,437,o),
(295,431,o),
(287,431,cs),
(283,431,o),
(276,433,o),
(266,438,cs),
(241,450,o),
(223,454,o),
(199,454,cs),
(122,454,o),
(66,398,o),
(66,323,cs),
(66,266,o),
(97,229,o),
(170,200,cs),
(207,185,ls),
(273,158,o),
(302,129,o),
(302,90,cs),
(302,45,o),
(266,14,o),
(214,14,cs),
(145,14,o),
(85,68,o),
(81,134,cs),
(80,151,l),
(58,151,l),
(55,66,l),
(51,0,l),
(74,0,l),
(78,17,o),
(80,21,o),
(87,21,cs),
(92,21,o),
(101,17,o),
(114,11,cs),
(145,-3,o),
(179,-11,o),
(211,-11,cs)
);
}
);
width = 393;
},
{
anchors = (
{
name = bottom;
pos = (232,0);
},
{
name = top;
pos = (229,446);
}
);
layerId = m002;
shapes = (
{
closed = 1;
nodes = (
(353,-16,o),
(424,42,o),
(424,136,cs),
(424,205,o),
(385,246,o),
(289,276,cs),
(232,294,ls),
(178,311,o),
(155,333,o),
(155,367,cs),
(155,404,o),
(181,428,o),
(222,428,cs),
(275,428,o),
(321,387,o),
(355,310,c),
(388,310,l),
(388,394,l),
(392,460,l),
(359,460,l),
(355,446,o),
(350,441,o),
(339,441,cs),
(332,441,o),
(322,443,o),
(305,448,cs),
(264,461,o),
(245,464,o),
(219,464,cs),
(118,464,o),
(45,402,o),
(45,316,cs),
(45,248,o),
(90,199,o),
(175,174,cs),
(235,156,ls),
(302,136,o),
(327,117,o),
(327,85,cs),
(327,47,o),
(291,20,o),
(240,20,cs),
(173,20,o),
(106,69,o),
(82,134,cs),
(71,163,l),
(42,163,l),
(39,65,l),
(35,0,l),
(68,0,l),
(70,18,o),
(75,25,o),
(85,25,cs),
(92,25,o),
(100,22,o),
(122,12,cs),
(164,-7,o),
(203,-16,o),
(240,-16,cs)
);
}
);
width = 449;
}
);
unicode = 115;
},
{
color = 6;
glyphname = germandbls;
kernLeft = l;
kernRight = germandbls;
lastChange = "2025-02-28 12:20:44 +0000";
layers = (
{
layerId = "9372F035-DA38-4B54-966C-CEBA9B53DD02";
shapes = (
{
closed = 1;
nodes = (
(500,-11,o),
(569,54,o),
(569,135,cs),
(569,198,o),
(545,239,o),
(468,296,cs),
(405,341,ls),
(367,369,o),
(354,388,o),
(354,418,cs),
(354,440,o),
(368,465,o),
(398,496,cs),
(426,525,ls),
(460,560,o),
(471,580,o),
(471,610,cs),
(471,678,o),
(400,724,o),
(297,724,cs),
(173,724,o),
(113,650,o),
(113,498,cs),
(113,121,ls),
(113,40,o),
(106,30,o),
(41,22,cs),
(25,20,l),
(25,-3,l),
(148,0,l),
(194,0,l),
(187,43,o),
(184,77,o),
(184,121,cs),
(184,550,ls),
(184,647,o),
(221,699,o),
(289,699,cs),
(351,699,o),
(391,656,o),
(391,588,cs),
(391,560,o),
(380,531,o),
(357,500,cs),
(335,469,ls),
(299,419,o),
(291,401,o),
(291,374,cs),
(291,341,o),
(309,315,o),
(354,284,cs),
(434,227,ls),
(496,183,o),
(514,152,o),
(514,117,cs),
(514,55,o),
(469,14,o),
(404,14,cs),
(359,14,o),
(328,34,o),
(328,63,cs),
(328,69,o),
(329,76,o),
(332,85,cs),
(335,93,o),
(336,102,o),
(336,108,cs),
(336,131,o),
(317,149,o),
(292,149,cs),
(261,149,o),
(241,127,o),
(241,95,cs),
(241,36,o),
(312,-11,o),
(399,-11,cs)
);
},
{
closed = 1;
nodes = (
(133,413,l),
(133,436,l),
(27,436,l),
(27,413,l)
);
}
);
width = 610;
},
{
layerId = m002;
shapes = (
{
closed = 1;
nodes = (
(554,-14,o),
(625,54,o),
(625,154,cs),
(625,223,o),
(596,269,o),
(524,311,cs),
(421,371,ls),
(383,393,o),
(373,404,o),
(373,423,cs),
(373,443,o),
(389,462,o),
(430,485,cs),
(467,506,ls),
(523,538,o),
(538,561,o),
(538,595,cs),
(538,673,o),
(445,724,o),
(304,724,cs),
(150,724,o),
(80,663,o),
(80,530,cs),
(80,124,ls),
(80,55,o),
(72,41,o),
(28,34,cs),
(10,31,l),
(10,-3,l),
(151,0,l),
(230,-3,l),
(223,24,o),
(220,65,o),
(220,124,cs),
(220,550,ls),
(220,641,o),
(251,688,o),
(310,688,cs),
(362,688,o),
(393,651,o),
(393,588,cs),
(393,554,o),
(382,530,o),
(353,490,cs),
(329,457,ls),
(297,412,o),
(286,385,o),
(286,354,cs),
(286,306,o),
(313,270,o),
(377,234,cs),
(475,179,ls),
(524,151,o),
(541,130,o),
(541,96,cs),
(541,52,o),
(506,22,o),
(455,22,cs),
(424,22,o),
(402,36,o),
(402,56,cs),
(402,61,o),
(403,66,o),
(406,75,cs),
(410,86,o),
(411,92,o),
(411,99,cs),
(411,129,o),
(385,149,o),
(346,149,cs),
(306,149,o),
(279,122,o),
(279,83,cs),
(279,24,o),
(345,-14,o),
(449,-14,cs)
);
},
{
closed = 1;
nodes = (
(119,406,l),
(119,446,l),
(10,446,l),
(10,406,l)
);
}
);
width = 650;
}
);
metricLeft = f;
metricRight = s;
unicode = 223;
},
{
color = 6;
glyphname = t;
kernLeft = t;
kernRight = t;
lastChange = "2025-02-28 12:20:44 +0000";
layers = (
{
anchors = (
{
name = bottom;
pos = (198,0);
},
{
name = center;
pos = (168,273);
},
{
name = top;
pos = (157,520);
},
{
name = topright;
pos = (223,710);
}
);
layerId = "9372F035-DA38-4B54-966C-CEBA9B53DD02";
shapes = (
{
closed = 1;
nodes = (
(249,-11,o),
(277,1,o),
(298,24,cs),
(311,38,o),
(322,56,o),
(329,73,c),
(307,84,l),
(286,41,o),
(266,23,o),
(235,23,cs),
(195,23,o),
(174,53,o),
(174,111,cs),
(174,557,l),
(148,557,l),
(139,480,o),
(109,442,o),
(57,438,cs),
(30,436,l),
(30,411,l),
(104,411,l),
(104,115,ls),
(104,33,o),
(142,-11,o),
(214,-11,cs)
);
},
{
closed = 1;
nodes = (
(302,411,l),
(302,436,l),
(168,436,l),
(168,411,l)
);
}
);
width = 339;
},
{
anchors = (
{
name = bottom;
pos = (218,0);
},
{
name = center;
pos = (181,288);
},
{
name = top;
pos = (157,519);
},
{
name = topright;
pos = (251,710);
}
);
layerId = m002;
shapes = (
{
closed = 1;
nodes = (
(272,-11,o),
(310,4,o),
(338,35,cs),
(354,53,o),
(368,76,o),
(379,99,c),
(348,114,l),
(327,73,o),
(301,54,o),
(269,54,cs),
(238,54,o),
(226,72,o),
(226,117,cs),
(226,587,l),
(186,587,l),
(171,502,o),
(129,463,o),
(38,450,cs),
(10,446,l),
(10,406,l),
(86,406,l),
(86,127,ls),
(86,37,o),
(138,-11,o),
(224,-11,cs)
);
},
{
closed = 1;
nodes = (
(348,406,l),
(348,446,l),
(216,446,l),
(216,406,l)
);
}
);
width = 379;
}
);
unicode = 116;
},
{
color = 3;
glyphname = tbar;
kernLeft = t;
kernRight = t;
lastChange = "2025-02-28 12:20:44 +0000";
layers = (
{
layerId = "9372F035-DA38-4B54-966C-CEBA9B53DD02";
shapes = (
{
ref = t;
},
{
closed = 1;
nodes = (
(302,300,l),
(302,325,l),
(30,325,l),
(30,300,l)
);
}
);
width = 339;
},
{
layerId = m002;
shapes = (
{
ref = t;
},
{
closed = 1;
nodes = (
(348,280,l),
(348,316,l),
(10,316,l),
(10,280,l)
);
}
);
width = 379;
}
);
unicode = 359;
},
{
color = 6;
glyphname = u;
kernLeft = u;
kernRight = n;
lastChange = "2025-02-28 12:20:44 +0000";
layers = (
{
anchors = (
{
name = bottom;
pos = (237,0);
},
{
name = ogonek;
pos = (496,0);
},
{
name = top;
pos = (260,436);
}
);
layerId = "9372F035-DA38-4B54-966C-CEBA9B53DD02";
shapes = (
{
closed = 1;
nodes = (
(297,-11,o),
(349,12,o),
(387,55,cs),
(404,74,o),
(418,96,o),
(432,128,c),
(408,133,l),
(378,64,o),
(322,21,o),
(261,21,cs),
(202,21,o),
(168,58,o),
(168,122,cs),
(168,448,l),
(116,438,o),
(64,435,o),
(10,436,c),
(10,413,l),
(20,413,ls),
(77,413,o),
(98,391,o),
(98,332,cs),
(98,118,ls),
(98,36,o),
(148,-11,o),
(236,-11,cs)
);
},
{
closed = 1;
nodes = (
(454,-1,o),
(485,0,o),
(561,0,c),
(561,23,l),
(498,23,o),
(478,44,o),
(478,111,cs),
(478,448,l),
(426,438,o),
(374,435,o),
(320,436,c),
(320,413,l),
(330,413,ls),
(387,413,o),
(408,391,o),
(408,332,cs),
(408,-9,l)
);
}
);
width = 571;
},
{
anchors = (
{
name = bottom;
pos = (251,0);
},
{
name = ogonek;
pos = (489,0);
},
{
name = top;
pos = (274,446);
}
);
layerId = m002;
shapes = (
{
closed = 1;
nodes = (
(275,-14,o),
(321,4,o),
(361,41,cs),
(395,72,o),
(421,116,o),
(433,165,c),
(407,165,l),
(376,91,o),
(334,53,o),
(282,53,cs),
(237,53,o),
(214,81,o),
(214,136,cs),
(214,458,l),
(150,449,o),
(91,446,o),
(4,446,c),
(4,412,l),
(15,411,ls),
(60,407,o),
(74,387,o),
(74,329,cs),
(74,122,ls),
(74,39,o),
(131,-14,o),
(221,-14,cs)
);
},
{
closed = 1;
nodes = (
(437,-2,o),
(478,0,o),
(592,0,c),
(592,34,l),
(537,39,o),
(522,56,o),
(522,114,cs),
(522,458,l),
(458,449,o),
(399,446,o),
(312,446,c),
(312,412,l),
(323,411,ls),
(368,407,o),
(382,387,o),
(382,329,cs),
(382,-9,l)
);
}
);
width = 598;
}
);
metricRight = i;
unicode = 117;
},
{
color = 6;
glyphname = uogonek;
kernLeft = u;
kernRight = n;
lastChange = "2025-02-28 12:20:44 +0000";
layers = (
{
anchors = (
{
name = top;
pos = (260,436);
}
);
background = {
shapes = (
{
pos = (268,0);
ref = ogonekcomb;
}
);
};
layerId = "9372F035-DA38-4B54-966C-CEBA9B53DD02";
shapes = (
{
closed = 1;
nodes = (
(487,-284,o),
(529,-246,o),
(548,-172,c),
(531,-160,l),
(510,-204,o),
(476,-229,o),
(436,-229,cs),
(392,-229,o),
(365,-199,o),
(365,-151,cs),
(365,-62,o),
(445,0,o),
(561,0,c),
(561,23,l),
(498,23,o),
(478,44,o),
(478,111,cs),
(478,448,l),
(430,439,o),
(379,435,o),
(320,436,c),
(320,413,l),
(330,413,ls),
(387,413,o),
(408,391,o),
(408,332,cs),
(408,-20,l),
(436,21,l),
(335,-93,o),
(312,-131,o),
(312,-181,cs),
(312,-244,o),
(355,-284,o),
(423,-284,cs)
);
},
{
closed = 1;
nodes = (
(297,-11,o),
(349,12,o),
(387,55,cs),
(395,64,o),
(403,75,o),
(416,94,c),
(414,147,l),
(385,70,o),
(326,21,o),
(261,21,cs),
(202,21,o),
(168,58,o),
(168,122,cs),
(168,448,l),
(120,439,o),
(69,435,o),
(10,436,c),
(10,413,l),
(20,413,ls),
(77,413,o),
(98,391,o),
(98,332,cs),
(98,118,ls),
(98,36,o),
(148,-11,o),
(236,-11,cs)
);
}
);
width = 571;
},
{
anchors = (
{
name = top;
pos = (274,446);
}
);
layerId = m002;
shapes = (
{
closed = 1;
nodes = (
(495,-293,o),
(551,-252,o),
(573,-184,c),
(550,-166,l),
(528,-202,o),
(504,-218,o),
(473,-218,cs),
(430,-218,o),
(402,-187,o),
(402,-138,cs),
(402,-54,o),
(477,0,o),
(592,0,c),
(592,34,l),
(537,39,o),
(522,56,o),
(522,114,cs),
(522,458,l),
(460,449,o),
(402,446,o),
(312,446,c),
(312,412,l),
(323,411,ls),
(368,407,o),
(382,387,o),
(382,329,cs),
(382,-54,l),
(479,30,l),
(351,-52,o),
(296,-116,o),
(296,-181,cs),
(296,-246,o),
(349,-293,o),
(424,-293,cs)
);
},
{
closed = 1;
nodes = (
(274,-14,o),
(325,6,o),
(361,41,cs),
(376,56,o),
(384,64,o),
(391,74,c),
(391,131,l),
(362,80,o),
(325,53,o),
(282,53,cs),
(237,53,o),
(214,81,o),
(214,136,cs),
(214,458,l),
(152,449,o),
(94,446,o),
(4,446,c),
(4,412,l),
(15,411,ls),
(60,407,o),
(74,387,o),
(74,329,cs),
(74,122,ls),
(74,39,o),
(131,-14,o),
(220,-14,cs)
);
}
);
width = 598;
}
);
unicode = 371;
},
{
color = 6;
glyphname = v;
kernLeft = v;
kernRight = v;
lastChange = "2025-02-28 12:20:44 +0000";
layers = (
{
anchors = (
{
name = bottom;
pos = (261,0);
},
{
name = top;
pos = (261,436);
}
);
layerId = "9372F035-DA38-4B54-966C-CEBA9B53DD02";
shapes = (
{
closed = 1;
nodes = (
(267,0,l),
(411,336,ls),
(434,389,o),
(450,406,o),
(484,410,cs),
(507,413,l),
(507,436,l),
(423,433,l),
(333,436,l),
(333,413,l),
(350,411,ls),
(396,406,o),
(405,389,o),
(387,346,cs),
(258,43,l),
(283,43,l),
(144,350,ls),
(127,388,o),
(136,406,o),
(176,411,cs),
(192,413,l),
(192,436,l),
(90,433,l),
(-13,436,l),
(-13,413,l),
(5,411,ls),
(34,408,o),
(51,394,o),
(66,360,cs),
(229,0,l)
);
}
);
width = 507;
},
{
anchors = (
{
name = bottom;
pos = (264,0);
},
{
name = top;
pos = (264,446);
}
);
layerId = m002;
shapes = (
{
closed = 1;
nodes = (
(300,0,l),
(438,334,ls),
(463,395,o),
(473,409,o),
(495,411,cs),
(506,412,l),
(506,446,l),
(442,443,l),
(338,446,l),
(338,412,l),
(365,409,ls),
(412,404,o),
(416,388,o),
(398,344,cs),
(277,45,l),
(311,79,l),
(205,348,ls),
(192,377,o),
(193,404,o),
(227,409,cs),
(254,412,l),
(254,446,l),
(115,443,l),
(-14,446,l),
(-14,412,l),
(4,410,ls),
(22,408,o),
(31,397,o),
(47,358,cs),
(195,0,l)
);
}
);
width = 512;
}
);
unicode = 118;
},
{
color = 6;
glyphname = w;
kernLeft = v;
kernRight = v;
lastChange = "2025-02-28 12:20:44 +0000";
layers = (
{
anchors = (
{
name = bottom;
pos = (378,0);
},
{
name = top;
pos = (378,436);
}
);
layerId = "9372F035-DA38-4B54-966C-CEBA9B53DD02";
shapes = (
{
closed = 1;
nodes = (
(228,0,l),
(381,349,l),
(369,349,l),
(505,0,l),
(543,0,l),
(677,339,ls),
(697,388,o),
(716,406,o),
(752,411,cs),
(768,413,l),
(768,436,l),
(689,433,l),
(595,436,l),
(595,413,l),
(611,411,ls),
(659,406,o),
(668,392,o),
(651,342,cs),
(535,49,l),
(558,49,l),
(443,344,ls),
(427,385,o),
(437,410,o),
(469,412,cs),
(484,413,l),
(484,436,l),
(449,436,ls),
(399,436,o),
(371,420,o),
(371,390,c),
(381,390,l),
(373,421,o),
(351,436,o),
(312,436,cs),
(284,436,l),
(284,413,l),
(310,413,ls),
(340,413,o),
(356,400,o),
(356,374,cs),
(356,362,o),
(352,346,o),
(344,328,cs),
(220,48,l),
(244,47,l),
(136,346,ls),
(121,386,o),
(136,408,o),
(181,412,cs),
(191,413,l),
(191,436,l),
(93,433,l),
(-13,436,l),
(-13,413,l),
(-2,412,ls),
(29,409,o),
(50,386,o),
(67,339,cs),
(190,0,l)
);
}
);
width = 768;
},
{
anchors = (
{
name = bottom;
pos = (400,0);
},
{
name = top;
pos = (400,446);
}
);
layerId = m002;
shapes = (
{
closed = 1;
nodes = (
(290,0,l),
(402,291,l),
(393,291,l),
(505,0,l),
(610,0,l),
(738,334,ls),
(761,393,o),
(773,409,o),
(795,411,cs),
(806,412,l),
(806,446,l),
(742,443,l),
(638,446,l),
(638,412,l),
(665,411,ls),
(705,410,o),
(716,389,o),
(698,344,cs),
(598,75,l),
(621,75,l),
(525,348,ls),
(510,392,o),
(516,409,o),
(547,411,cs),
(574,412,l),
(574,446,l),
(477,446,ls),
(424,446,o),
(396,423,o),
(394,377,c),
(420,377,l),
(420,424,o),
(392,446,o),
(332,446,cs),
(308,446,l),
(308,412,l),
(320,412,ls),
(358,412,o),
(376,396,o),
(376,364,cs),
(376,347,o),
(370,323,o),
(359,293,cs),
(279,75,l),
(301,75,l),
(205,348,ls),
(190,392,o),
(196,409,o),
(227,411,cs),
(254,412,l),
(254,446,l),
(115,443,l),
(-14,446,l),
(-14,412,l),
(4,410,ls),
(22,408,o),
(31,397,o),
(47,358,cs),
(185,0,l)
);
}
);
width = 812;
}
);
metricLeft = v;
metricRight = v;
unicode = 119;
},
{
color = 6;
glyphname = x;
kernLeft = x;
kernRight = x;
lastChange = "2025-02-28 12:20:44 +0000";
layers = (
{
anchors = (
{
name = bottom;
pos = (263,0);
},
{
name = top;
pos = (266,436);
}
);
layerId = "9372F035-DA38-4B54-966C-CEBA9B53DD02";
shapes = (
{
closed = 1;
nodes = (
(431,0,l),
(530,-2,l),
(530,20,l),
(519,22,ls),
(490,27,o),
(462,49,o),
(415,100,cs),
(188,350,ls),
(179,360,o),
(174,370,o),
(174,379,cs),
(174,394,o),
(187,405,o),
(212,410,cs),
(228,413,l),
(228,436,l),
(116,433,l),
(4,436,l),
(4,413,l),
(13,412,ls),
(39,409,o),
(53,399,o),
(89,359,cs),
(349,73,ls),
(357,64,o),
(360,57,o),
(360,49,cs),
(360,35,o),
(347,26,o),
(323,23,cs),
(307,21,l),
(307,-2,l)
);
},
{
closed = 1;
nodes = (
(97,0,l),
(191,-3,l),
(191,21,l),
(175,23,ls),
(152,26,o),
(140,36,o),
(140,52,cs),
(140,61,o),
(145,71,o),
(156,84,cs),
(249,191,l),
(233,208,l),
(142,105,ls),
(95,52,o),
(59,29,o),
(13,22,cs),
(0,20,l),
(0,-3,l)
);
},
{
closed = 1;
nodes = (
(379,329,ls),
(427,384,o),
(464,408,o),
(507,412,cs),
(518,413,l),
(518,436,l),
(442,433,l),
(326,436,l),
(326,413,l),
(332,412,ls),
(362,407,o),
(379,394,o),
(379,375,cs),
(379,366,o),
(375,358,o),
(368,350,cs),
(275,245,l),
(291,229,l)
);
}
);
width = 525;
},
{
anchors = (
{
name = bottom;
pos = (283,0);
},
{
name = top;
pos = (283,446);
}
);
layerId = m002;
shapes = (
{
closed = 1;
nodes = (
(425,0,l),
(564,-2,l),
(564,31,l),
(553,33,ls),
(531,37,o),
(499,64,o),
(460,112,cs),
(268,348,ls),
(257,361,o),
(252,373,o),
(252,383,cs),
(252,397,o),
(262,406,o),
(279,409,cs),
(298,412,l),
(298,446,l),
(151,443,l),
(6,446,l),
(6,412,l),
(15,411,ls),
(33,409,o),
(41,402,o),
(79,357,cs),
(303,88,ls),
(314,74,o),
(319,66,o),
(319,57,cs),
(319,44,o),
(310,36,o),
(292,34,cs),
(273,32,l),
(273,-2,l)
);
},
{
closed = 1;
nodes = (
(99,0,l),
(199,-3,l),
(199,32,l),
(183,34,ls),
(162,37,o),
(150,48,o),
(150,64,cs),
(150,76,o),
(155,87,o),
(167,99,cs),
(274,205,l),
(229,213,l),
(131,117,ls),
(70,57,o),
(53,45,o),
(17,35,cs),
(2,31,l),
(2,-3,l)
);
},
{
closed = 1;
nodes = (
(419,327,ls),
(471,379,o),
(501,401,o),
(531,409,cs),
(542,412,l),
(542,446,l),
(454,443,l),
(345,446,l),
(345,412,l),
(360,410,ls),
(387,406,o),
(400,396,o),
(400,380,cs),
(400,368,o),
(392,353,o),
(377,339,cs),
(285,251,l),
(323,232,l)
);
}
);
width = 566;
}
);
unicode = 120;
},
{
color = 6;
glyphname = y;
kernLeft = v;
kernRight = y;
lastChange = "2025-02-28 12:20:44 +0000";
layers = (
{
anchors = (
{
name = bottom;
pos = (368,0);
},
{
name = top;
pos = (271,436);
}
);
layerId = "9372F035-DA38-4B54-966C-CEBA9B53DD02";
shapes = (
{
closed = 1;
nodes = (
(106,-294,o),
(158,-250,o),
(198,-163,cs),
(424,330,ls),
(450,388,o),
(469,406,o),
(508,411,cs),
(523,413,l),
(523,436,l),
(443,433,l),
(347,436,l),
(347,413,l),
(363,411,ls),
(414,405,o),
(423,387,o),
(401,339,cs),
(173,-152,ls),
(150,-201,o),
(125,-224,o),
(95,-224,cs),
(84,-224,o),
(74,-220,o),
(58,-208,cs),
(42,-197,o),
(35,-194,o),
(22,-194,cs),
(-8,-194,o),
(-30,-215,o),
(-30,-242,cs),
(-30,-273,o),
(-1,-294,o),
(42,-294,cs)
);
},
{
closed = 1;
nodes = (
(284,52,l),
(151,344,ls),
(131,388,o),
(138,405,o),
(182,411,cs),
(196,413,l),
(196,436,l),
(95,433,l),
(-9,436,l),
(-9,413,l),
(14,410,ls),
(41,406,o),
(55,393,o),
(73,354,cs),
(246,-26,l)
);
}
);
width = 523;
},
{
anchors = (
{
name = bottom;
pos = (279,0);
},
{
name = top;
pos = (270,446);
}
);
layerId = m002;
shapes = (
{
closed = 1;
nodes = (
(123,-297,o),
(175,-257,o),
(221,-157,cs),
(446,334,ls),
(474,395,o),
(485,409,o),
(507,411,cs),
(519,412,l),
(519,446,l),
(456,443,l),
(351,446,l),
(351,412,l),
(377,409,ls),
(418,404,o),
(426,388,o),
(406,344,cs),
(182,-146,ls),
(156,-202,o),
(131,-224,o),
(99,-224,cs),
(78,-224,o),
(67,-216,o),
(50,-196,cs),
(31,-174,o),
(11,-162,o),
(-14,-162,cs),
(-52,-162,o),
(-78,-187,o),
(-78,-222,cs),
(-78,-269,o),
(-34,-297,o),
(38,-297,cs)
);
},
{
closed = 1;
nodes = (
(327,109,l),
(222,348,ls),
(204,388,o),
(210,405,o),
(242,409,cs),
(269,412,l),
(269,446,l),
(129,443,l),
(1,446,l),
(1,412,l),
(19,410,ls),
(37,408,o),
(47,396,o),
(64,358,cs),
(241,-36,l)
);
}
);
width = 525;
}
);
metricRight = v;
unicode = 121;
},
{
color = 6;
glyphname = z;
kernLeft = z;
kernRight = z;
lastChange = "2025-02-28 12:20:44 +0000";
layers = (
{
anchors = (
{
name = bottom;
pos = (243,0);
},
{
name = top;
pos = (235,436);
}
);
layerId = "9372F035-DA38-4B54-966C-CEBA9B53DD02";
shapes = (
{
closed = 1;
nodes = (
(413,0,l),
(414,53,l),
(426,158,l),
(403,158,l),
(390,62,o),
(343,25,o),
(232,25,cs),
(93,25,l),
(105,0,l),
(428,417,l),
(421,436,l),
(75,436,l),
(64,365,l),
(42,275,l),
(65,275,l),
(85,377,o),
(136,412,o),
(265,412,cs),
(376,412,l),
(349,426,l),
(35,20,l),
(42,0,l)
);
}
);
width = 466;
},
{
anchors = (
{
name = bottom;
pos = (252,0);
},
{
name = top;
pos = (243,446);
}
);
layerId = m002;
shapes = (
{
closed = 1;
nodes = (
(453,0,l),
(454,54,l),
(464,172,l),
(431,172,l),
(403,77,o),
(350,37,o),
(256,37,cs),
(105,37,l),
(177,11,l),
(461,416,l),
(453,446,l),
(66,446,l),
(55,373,l),
(32,271,l),
(65,271,l),
(102,373,o),
(157,410,o),
(270,410,cs),
(393,410,l),
(297,426,l),
(20,30,l),
(28,0,l)
);
}
);
width = 484;
}
);
unicode = 122;
},
{
color = 6;
glyphname = f_b.liga;
kernLeft = f;
kernRight = o;
lastChange = "2025-02-28 12:20:44 +0000";
layers = (
{
anchors = (
{
name = bottom;
pos = (576,0);
},
{
name = top;
pos = (576,436);
}
);
layerId = "9372F035-DA38-4B54-966C-CEBA9B53DD02";
shapes = (
{
closed = 1;
nodes = (
(416,-11,l),
(470,50,l),
(470,724,l),
(460,724,l),
(378,679,l),
(429,667,l),
(400,702,o),
(354,724,o),
(293,724,cs),
(178,724,o),
(113,653,o),
(113,551,cs),
(113,121,ls),
(113,40,o),
(106,30,o),
(41,22,cs),
(25,20,l),
(25,-3,l),
(148,0,l),
(265,-3,l),
(265,20,l),
(249,22,ls),
(192,29,o),
(183,43,o),
(183,121,cs),
(183,577,ls),
(183,638,o),
(215,699,o),
(295,699,cs),
(359,699,o),
(400,661,o),
(400,586,cs),
(400,-11,l)
);
},
{
closed = 1;
nodes = (
(119,411,l),
(119,436,l),
(27,436,l),
(27,411,l)
);
},
{
closed = 1;
nodes = (
(286,411,l),
(286,436,l),
(177,436,l),
(177,411,l)
);
},
{
closed = 1;
nodes = (
(723,-11,o),
(812,91,o),
(812,221,cs),
(812,352,o),
(723,454,o),
(609,454,cs),
(547,454,o),
(491,423,o),
(450,367,c),
(464,350,l),
(501,398,o),
(548,424,o),
(597,424,cs),
(681,424,o),
(732,347,o),
(732,221,cs),
(732,96,o),
(681,19,o),
(598,19,cs),
(543,19,o),
(485,53,o),
(463,99,c),
(454,65,l),
(489,18,o),
(548,-11,o),
(609,-11,cs)
);
}
);
width = 857;
},
{
anchors = (
{
name = bottom;
pos = (576,0);
},
{
name = top;
pos = (576,436);
}
);
layerId = m002;
shapes = (
{
closed = 1;
nodes = (
(426,-11,l),
(541,47,l),
(541,724,l),
(521,724,l),
(405,687,l),
(459,665,l),
(432,700,o),
(371,724,o),
(306,724,cs),
(160,724,o),
(80,652,o),
(80,520,cs),
(80,124,ls),
(80,55,o),
(72,41,o),
(28,34,cs),
(10,31,l),
(10,-3,l),
(151,0,l),
(291,-3,l),
(291,31,l),
(273,34,ls),
(228,41,o),
(220,55,o),
(220,124,cs),
(221,540,ls),
(221,646,o),
(248,688,o),
(315,688,cs),
(372,688,o),
(401,659,o),
(401,600,cs),
(401,-11,l)
);
},
{
closed = 1;
nodes = (
(90,406,l),
(90,446,l),
(10,446,l),
(10,406,l)
);
},
{
closed = 1;
nodes = (
(341,406,l),
(341,446,l),
(211,446,l),
(210,406,l)
);
},
{
closed = 1;
nodes = (
(807,-14,o),
(888,81,o),
(888,223,cs),
(888,365,o),
(807,460,o),
(684,460,cs),
(628,460,o),
(581,442,o),
(533,402,c),
(532,361,l),
(576,392,o),
(606,405,o),
(635,405,cs),
(701,405,o),
(738,339,o),
(738,223,cs),
(738,107,o),
(701,41,o),
(635,41,cs),
(605,41,o),
(573,55,o),
(533,85,c),
(527,49,l),
(578,6,o),
(628,-14,o),
(684,-14,cs)
);
}
);
width = 913;
}
);
metricLeft = f;
metricRight = b;
},
{
color = 6;
glyphname = f_h.liga;
kernLeft = f;
kernRight = n;
lastChange = "2025-02-28 12:20:44 +0000";
layers = (
{
anchors = (
{
name = bottom_1;
pos = (220,0);
},
{
name = bottom_2;
pos = (659,0);
},
{
name = caret_1;
pos = (439.5,0);
},
{
name = top_1;
pos = (220,710);
},
{
name = top_2;
pos = (659,710);
}
);
layerId = "9372F035-DA38-4B54-966C-CEBA9B53DD02";
shapes = (
{
closed = 1;
nodes = (
(148,0,l),
(265,-3,l),
(265,20,l),
(249,22,ls),
(192,29,o),
(183,43,o),
(183,121,cs),
(183,577,ls),
(183,638,o),
(215,699,o),
(295,699,cs),
(359,699,o),
(400,661,o),
(400,586,cs),
(400,121,ls),
(400,40,o),
(394,29,o),
(338,22,cs),
(322,20,l),
(322,-3,l),
(435,0,l),
(558,-3,l),
(558,20,l),
(542,22,ls),
(477,30,o),
(470,40,o),
(470,121,cs),
(470,724,l),
(460,724,l),
(374,677,l),
(416,680,l),
(387,707,o),
(346,724,o),
(293,724,cs),
(178,724,o),
(113,653,o),
(113,551,cs),
(113,121,ls),
(113,40,o),
(106,30,o),
(41,22,cs),
(25,20,l),
(25,-3,l)
);
},
{
closed = 1;
nodes = (
(119,411,l),
(119,436,l),
(27,436,l),
(27,411,l)
);
},
{
closed = 1;
nodes = (
(286,411,l),
(286,436,l),
(177,436,l),
(177,411,l)
);
},
{
closed = 1;
nodes = (
(745,0,l),
(868,-3,l),
(868,20,l),
(852,22,ls),
(787,30,o),
(780,40,o),
(780,121,cs),
(780,321,ls),
(780,403,o),
(725,454,o),
(637,454,cs),
(564,454,o),
(501,418,o),
(464,358,c),
(466,314,l),
(488,378,o),
(549,424,o),
(615,424,cs),
(674,424,o),
(710,385,o),
(710,321,cs),
(710,121,ls),
(710,40,o),
(703,30,o),
(638,22,cs),
(622,20,l),
(622,-3,l)
);
}
);
width = 879;
},
{
anchors = (
{
name = bottom_1;
pos = (231,0);
},
{
name = bottom_2;
pos = (692,0);
},
{
name = caret_1;
pos = (461.5,0);
},
{
name = top_1;
pos = (231,710);
},
{
name = top_2;
pos = (692,710);
}
);
layerId = m002;
shapes = (
{
closed = 1;
nodes = (
(151,0,l),
(288,-3,l),
(288,31,l),
(270,34,ls),
(227,41,o),
(220,55,o),
(220,124,cs),
(221,540,ls),
(221,646,o),
(248,688,o),
(315,688,cs),
(372,688,o),
(401,659,o),
(401,600,cs),
(401,124,ls),
(401,55,o),
(394,41,o),
(352,34,cs),
(334,31,l),
(334,-3,l),
(457,0,l),
(596,-3,l),
(596,31,l),
(574,34,ls),
(547,38,o),
(541,54,o),
(541,124,cs),
(541,724,l),
(521,724,l),
(405,687,l),
(459,665,l),
(432,700,o),
(371,724,o),
(306,724,cs),
(160,724,o),
(80,652,o),
(80,520,cs),
(80,124,ls),
(80,55,o),
(72,41,o),
(28,34,cs),
(10,31,l),
(10,-3,l)
);
},
{
closed = 1;
nodes = (
(91,406,l),
(91,446,l),
(11,446,l),
(11,406,l)
);
},
{
closed = 1;
nodes = (
(342,406,l),
(342,446,l),
(212,446,l),
(211,406,l)
);
},
{
closed = 1;
nodes = (
(783,0,l),
(919,-3,l),
(919,31,l),
(901,34,ls),
(857,41,o),
(849,55,o),
(849,124,cs),
(849,324,ls),
(849,407,o),
(792,460,o),
(702,460,cs),
(634,460,o),
(576,430,o),
(532,372,c),
(532,315,l),
(562,368,o),
(597,393,o),
(640,393,cs),
(685,393,o),
(708,365,o),
(708,310,cs),
(708,124,ls),
(708,63,o),
(696,38,o),
(666,34,cs),
(644,31,l),
(644,-3,l)
);
}
);
width = 923;
}
);
metricLeft = f;
metricRight = h;
},
{
color = 6;
glyphname = f_j.liga;
kernLeft = f;
kernRight = l;
lastChange = "2025-02-28 12:20:44 +0000";
layers = (
{
layerId = "9372F035-DA38-4B54-966C-CEBA9B53DD02";
shapes = (
{
closed = 1;
nodes = (
(156,0,l),
(265,-3,l),
(265,20,l),
(249,22,ls),
(202,29,o),
(191,31,o),
(191,121,cs),
(191,411,l),
(348,411,l),
(348,436,l),
(191,436,l),
(191,499,ls),
(191,599,o),
(205,699,o),
(311,699,cs),
(359,699,o),
(396,666,o),
(396,636,cs),
(396,617,o),
(377,615,o),
(377,591,cs),
(377,567,o),
(397,551,o),
(421,551,cs),
(451,551,o),
(470,573,o),
(470,607,cs),
(470,687,o),
(385,724,o),
(311,724,cs),
(159,724,o),
(121,617,o),
(121,504,cs),
(121,436,l),
(25,436,l),
(25,411,l),
(121,411,l),
(121,121,ls),
(121,31,o),
(107,29,o),
(49,22,cs),
(33,20,l),
(33,-3,l)
);
},
{
closed = 1;
nodes = (
(409,-294,o),
(467,-237,o),
(467,-152,cs),
(467,451,l),
(412,441,o),
(364,436,o),
(309,436,c),
(309,413,l),
(363,413,o),
(397,407,o),
(397,335,cs),
(397,-152,ls),
(397,-205,o),
(392,-273,o),
(347,-273,cs),
(332,-273,o),
(319,-264,o),
(319,-246,cs),
(319,-240,o),
(320,-235,o),
(323,-226,cs),
(325,-220,o),
(327,-213,o),
(327,-207,cs),
(327,-189,o),
(314,-167,o),
(284,-167,cs),
(249,-167,o),
(231,-193,o),
(231,-223,cs),
(231,-266,o),
(267,-294,o),
(330,-294,cs)
);
}
);
width = 541;
},
{
layerId = m002;
shapes = (
{
closed = 1;
nodes = (
(151,0,l),
(291,-3,l),
(291,31,l),
(273,34,ls),
(230,41,o),
(220,52,o),
(220,124,cs),
(220,406,l),
(341,406,l),
(341,446,l),
(220,446,l),
(220,550,ls),
(220,626,o),
(253,684,o),
(334,684,cs),
(356,684,o),
(387,677,o),
(388,658,cs),
(388,638,o),
(375,624,o),
(375,602,cs),
(375,569,o),
(402,544,o),
(450,544,cs),
(496,544,o),
(522,572,o),
(522,613,cs),
(522,682,o),
(452,724,o),
(324,724,cs),
(183,724,o),
(80,666,o),
(80,530,cs),
(80,446,l),
(10,446,l),
(10,406,l),
(80,406,l),
(80,124,ls),
(80,52,o),
(70,41,o),
(28,34,cs),
(10,31,l),
(10,-3,l)
);
},
{
closed = 1;
nodes = (
(463,-297,o),
(529,-239,o),
(529,-103,cs),
(529,459,l),
(455,449,o),
(392,446,o),
(318,446,c),
(318,406,l),
(365,406,o),
(389,394,o),
(389,323,cs),
(389,-123,ls),
(389,-199,o),
(383,-261,o),
(341,-261,cs),
(321,-261,o),
(309,-254,o),
(309,-237,cs),
(309,-230,o),
(311,-222,o),
(314,-213,cs),
(316,-204,o),
(320,-194,o),
(320,-184,cs),
(320,-153,o),
(295,-130,o),
(250,-130,cs),
(207,-130,o),
(182,-156,o),
(182,-194,cs),
(182,-259,o),
(242,-297,o),
(336,-297,cs)
);
}
);
width = 571;
}
);
metricLeft = f;
metricRight = j;
},
{
color = 6;
glyphname = f_k.liga;
kernLeft = f;
kernRight = k;
lastChange = "2025-02-28 12:20:44 +0000";
layers = (
{
anchors = (
{
name = bottom_1;
pos = (205,0);
},
{
name = bottom_2;
pos = (616,0);
},
{
name = caret_1;
pos = (410.5,0);
},
{
name = top_1;
pos = (205,710);
},
{
name = top_2;
pos = (616,710);
}
);
layerId = "9372F035-DA38-4B54-966C-CEBA9B53DD02";
shapes = (
{
closed = 1;
nodes = (
(148,0,l),
(265,-3,l),
(265,20,l),
(249,22,ls),
(192,29,o),
(183,43,o),
(183,121,cs),
(183,577,ls),
(183,638,o),
(215,699,o),
(295,699,cs),
(359,699,o),
(400,661,o),
(400,586,cs),
(400,121,ls),
(400,31,o),
(386,29,o),
(328,22,cs),
(312,20,l),
(312,-3,l),
(435,0,l),
(558,-3,l),
(558,20,l),
(542,22,ls),
(484,29,o),
(470,31,o),
(470,121,cs),
(470,724,l),
(460,724,l),
(389,682,l),
(416,680,l),
(387,707,o),
(346,724,o),
(293,724,cs),
(178,724,o),
(113,653,o),
(113,551,cs),
(113,121,ls),
(113,40,o),
(106,30,o),
(41,22,cs),
(25,20,l),
(25,-3,l)
);
},
{
closed = 1;
nodes = (
(119,411,l),
(119,436,l),
(27,436,l),
(27,411,l)
);
},
{
closed = 1;
nodes = (
(286,411,l),
(286,436,l),
(177,436,l),
(177,411,l)
);
},
{
closed = 1;
nodes = (
(821,20,l),
(805,22,ls),
(781,25,o),
(756,53,o),
(736,76,cs),
(554,280,l),
(509,226,l),
(710,0,l),
(821,-3,l)
);
},
{
closed = 1;
nodes = (
(621,332,ls),
(656,373,o),
(695,405,o),
(755,413,cs),
(771,415,l),
(771,438,l),
(687,436,l),
(591,438,l),
(591,415,l),
(607,413,ls),
(624,411,o),
(631,405,o),
(631,395,cs),
(631,388,o),
(627,378,o),
(618,367,cs),
(464,183,l),
(464,145,l)
);
}
);
width = 821;
},
{
anchors = (
{
name = bottom_1;
pos = (225,0);
},
{
name = bottom_2;
pos = (675,0);
},
{
name = caret_1;
pos = (450,0);
},
{
name = top_1;
pos = (225,710);
},
{
name = top_2;
pos = (675,710);
}
);
layerId = m002;
shapes = (
{
closed = 1;
nodes = (
(151,0,l),
(288,-3,l),
(288,31,l),
(270,34,ls),
(227,41,o),
(220,55,o),
(220,124,cs),
(221,540,ls),
(221,646,o),
(248,688,o),
(315,688,cs),
(372,688,o),
(401,659,o),
(401,600,cs),
(401,124,ls),
(401,52,o),
(391,41,o),
(348,34,cs),
(330,31,l),
(330,-3,l),
(471,0,l),
(611,-3,l),
(611,31,l),
(593,34,ls),
(551,41,o),
(541,52,o),
(541,124,cs),
(541,724,l),
(521,724,l),
(425,661,l),
(459,665,l),
(432,700,o),
(371,724,o),
(306,724,cs),
(160,724,o),
(80,652,o),
(80,520,cs),
(80,124,ls),
(80,55,o),
(72,41,o),
(28,34,cs),
(10,31,l),
(10,-3,l)
);
},
{
closed = 1;
nodes = (
(91,406,l),
(91,446,l),
(11,446,l),
(11,406,l)
);
},
{
closed = 1;
nodes = (
(342,406,l),
(342,446,l),
(212,446,l),
(211,406,l)
);
},
{
closed = 1;
nodes = (
(897,31,l),
(885,33,ls),
(868,36,o),
(854,51,o),
(827,88,cs),
(659,321,l),
(561,222,l),
(717,0,l),
(897,-3,l)
);
},
{
closed = 1;
nodes = (
(692,333,ls),
(729,371,o),
(765,404,o),
(831,412,cs),
(848,414,l),
(848,448,l),
(754,446,l),
(636,448,l),
(636,414,l),
(654,413,ls),
(674,412,o),
(681,405,o),
(681,395,cs),
(681,388,o),
(676,377,o),
(665,365,cs),
(531,226,l),
(531,168,l)
);
}
);
width = 901;
}
);
metricLeft = f;
metricRight = k;
},
{
color = 6;
glyphname = fi;
kernLeft = f;
kernRight = l;
lastChange = "2025-02-28 12:20:44 +0000";
layers = (
{
anchors = (
{
name = bottom_1;
pos = (432,0);
},
{
name = ogonek_1;
pos = (455,0);
},
{
name = top_1;
pos = (425,436);
}
);
layerId = "9372F035-DA38-4B54-966C-CEBA9B53DD02";
shapes = (
{
closed = 1;
nodes = (
(156,0,l),
(265,-3,l),
(265,20,l),
(249,22,ls),
(202,29,o),
(191,31,o),
(191,121,cs),
(191,411,l),
(348,411,l),
(348,436,l),
(191,436,l),
(191,499,ls),
(191,599,o),
(205,699,o),
(311,699,cs),
(359,699,o),
(396,666,o),
(396,636,cs),
(396,617,o),
(377,615,o),
(377,591,cs),
(377,567,o),
(397,551,o),
(421,551,cs),
(451,551,o),
(470,573,o),
(470,607,cs),
(470,687,o),
(385,724,o),
(311,724,cs),
(159,724,o),
(121,617,o),
(121,504,cs),
(121,436,l),
(25,436,l),
(25,411,l),
(121,411,l),
(121,121,ls),
(121,31,o),
(107,29,o),
(49,22,cs),
(33,20,l),
(33,-3,l)
);
},
{
closed = 1;
nodes = (
(434,0,l),
(557,-3,l),
(557,20,l),
(541,22,ls),
(483,29,o),
(469,31,o),
(469,121,cs),
(469,375,l),
(399,375,l),
(399,121,ls),
(399,31,o),
(385,29,o),
(327,22,cs),
(311,20,l),
(311,-3,l)
);
},
{
closed = 1;
nodes = (
(469,347,l),
(469,448,l),
(414,438,o),
(366,436,o),
(311,436,c),
(311,411,l),
(318,411,ls),
(368,411,o),
(399,399,o),
(399,332,c)
);
}
);
width = 567;
},
{
anchors = (
{
name = bottom_1;
pos = (462,0);
},
{
name = ogonek_1;
pos = (485,0);
},
{
name = top_1;
pos = (455,436);
}
);
layerId = m002;
shapes = (
{
closed = 1;
nodes = (
(151,0,l),
(291,-3,l),
(291,31,l),
(273,34,ls),
(230,41,o),
(220,52,o),
(220,124,cs),
(220,406,l),
(341,406,l),
(341,446,l),
(220,446,l),
(220,550,ls),
(220,626,o),
(253,684,o),
(334,684,cs),
(356,684,o),
(387,677,o),
(388,658,cs),
(388,638,o),
(375,624,o),
(375,602,cs),
(375,569,o),
(402,544,o),
(450,544,cs),
(496,544,o),
(522,572,o),
(522,613,cs),
(522,682,o),
(452,724,o),
(324,724,cs),
(183,724,o),
(80,666,o),
(80,530,cs),
(80,446,l),
(10,446,l),
(10,406,l),
(80,406,l),
(80,124,ls),
(80,52,o),
(70,41,o),
(28,34,cs),
(10,31,l),
(10,-3,l)
);
},
{
closed = 1;
nodes = (
(464,0,l),
(604,-3,l),
(604,31,l),
(586,34,ls),
(544,41,o),
(534,52,o),
(534,124,cs),
(534,383,l),
(394,373,l),
(394,124,ls),
(394,52,o),
(383,41,o),
(341,34,cs),
(323,31,l),
(323,-3,l)
);
},
{
closed = 1;
nodes = (
(534,355,l),
(534,458,l),
(460,448,o),
(397,446,o),
(323,446,c),
(323,406,l),
(334,406,ls),
(369,406,o),
(394,400,o),
(394,329,c)
);
}
);
width = 610;
}
);
metricLeft = f;
metricRight = i;
unicode = 64257;
},
{
color = 6;
glyphname = fl;
kernLeft = f;
kernRight = l;
lastChange = "2025-02-28 12:20:44 +0000";
layers = (
{
anchors = (
{
name = caret_1;
pos = (286.5,0);
}
);
layerId = "9372F035-DA38-4B54-966C-CEBA9B53DD02";
shapes = (
{
closed = 1;
nodes = (
(148,0,l),
(265,-3,l),
(265,20,l),
(249,22,ls),
(192,29,o),
(183,43,o),
(183,121,cs),
(183,577,ls),
(183,651,o),
(227,699,o),
(295,699,cs),
(362,699,o),
(400,658,o),
(400,586,cs),
(400,113,ls),
(400,45,o),
(389,29,o),
(337,23,cs),
(312,20,l),
(312,-3,l),
(435,0,l),
(558,-3,l),
(558,20,l),
(542,22,ls),
(477,30,o),
(470,40,o),
(470,121,cs),
(470,724,l),
(460,724,l),
(391,686,l),
(416,680,l),
(383,709,o),
(342,724,o),
(291,724,cs),
(182,724,o),
(113,657,o),
(113,551,cs),
(113,121,ls),
(113,40,o),
(106,30,o),
(41,22,cs),
(25,20,l),
(25,-3,l)
);
},
{
closed = 1;
nodes = (
(119,411,l),
(119,436,l),
(27,436,l),
(27,411,l)
);
},
{
closed = 1;
nodes = (
(286,411,l),
(286,436,l),
(177,436,l),
(177,411,l)
);
}
);
width = 573;
},
{
anchors = (
{
name = caret_1;
pos = (308.5,0);
}
);
layerId = m002;
shapes = (
{
closed = 1;
nodes = (
(151,0,l),
(288,-3,l),
(288,31,l),
(270,34,ls),
(227,41,o),
(220,55,o),
(220,124,cs),
(221,540,ls),
(221,646,o),
(248,688,o),
(315,688,cs),
(372,688,o),
(401,659,o),
(401,600,cs),
(401,124,ls),
(401,52,o),
(391,41,o),
(348,34,cs),
(330,31,l),
(330,-3,l),
(471,0,l),
(611,-3,l),
(611,31,l),
(593,34,ls),
(551,41,o),
(541,52,o),
(541,124,cs),
(541,724,l),
(521,724,l),
(396,686,l),
(459,665,l),
(432,700,o),
(371,724,o),
(306,724,cs),
(160,724,o),
(80,652,o),
(80,520,cs),
(80,124,ls),
(80,55,o),
(72,41,o),
(28,34,cs),
(10,31,l),
(10,-3,l)
);
},
{
closed = 1;
nodes = (
(91,406,l),
(91,446,l),
(11,446,l),
(11,406,l)
);
},
{
closed = 1;
nodes = (
(342,406,l),
(342,446,l),
(212,446,l),
(211,406,l)
);
}
);
width = 617;
}
);
metricLeft = f;
metricRight = l;
unicode = 64258;
},
{
color = 6;
glyphname = w_w_w;
lastChange = "2025-02-28 12:20:44 +0000";
layers = (
{
layerId = "9372F035-DA38-4B54-966C-CEBA9B53DD02";
shapes = (
{
closed = 1;
nodes = (
(228,0,l),
(381,349,l),
(369,349,l),
(505,0,l),
(543,0,l),
(696,349,l),
(684,349,l),
(820,0,l),
(858,0,l),
(1011,349,l),
(999,349,l),
(1135,0,l),
(1173,0,l),
(1326,349,l),
(1314,349,l),
(1450,0,l),
(1488,0,l),
(1641,349,l),
(1629,349,l),
(1765,0,l),
(1803,0,l),
(1937,339,ls),
(1951,373,o),
(1965,405,o),
(2012,411,cs),
(2028,413,l),
(2028,436,l),
(1949,433,l),
(1855,436,l),
(1855,413,l),
(1871,411,ls),
(1904,407,o),
(1920,397,o),
(1920,375,cs),
(1920,367,o),
(1914,351,o),
(1911,342,cs),
(1795,49,l),
(1818,49,l),
(1703,344,ls),
(1698,357,o),
(1695,369,o),
(1695,378,cs),
(1695,396,o),
(1705,410,o),
(1729,412,cs),
(1744,413,l),
(1744,436,l),
(1698,436,ls),
(1671,436,o),
(1628,425,o),
(1631,390,c),
(1641,390,l),
(1634,421,o),
(1609,436,o),
(1579,436,cs),
(1544,436,l),
(1544,413,l),
(1575,412,ls),
(1602,411,o),
(1616,396,o),
(1616,369,cs),
(1616,358,o),
(1611,344,o),
(1604,328,cs),
(1480,48,l),
(1503,49,l),
(1388,345,ls),
(1383,358,o),
(1380,370,o),
(1380,379,cs),
(1380,397,o),
(1390,411,o),
(1414,413,cs),
(1429,414,l),
(1429,437,l),
(1383,437,ls),
(1356,437,o),
(1313,426,o),
(1316,391,c),
(1326,391,l),
(1319,422,o),
(1294,437,o),
(1264,437,cs),
(1229,437,l),
(1229,414,l),
(1260,413,ls),
(1287,412,o),
(1301,397,o),
(1301,370,cs),
(1301,359,o),
(1296,345,o),
(1289,329,cs),
(1165,49,l),
(1188,49,l),
(1073,344,ls),
(1068,357,o),
(1065,369,o),
(1065,378,cs),
(1065,396,o),
(1075,410,o),
(1099,412,cs),
(1114,413,l),
(1114,436,l),
(1068,436,ls),
(1041,436,o),
(998,425,o),
(1001,390,c),
(1011,390,l),
(1004,421,o),
(979,436,o),
(949,436,cs),
(914,436,l),
(914,413,l),
(945,412,ls),
(972,411,o),
(986,396,o),
(986,369,cs),
(986,358,o),
(981,344,o),
(974,328,cs),
(850,48,l),
(873,49,l),
(758,344,ls),
(753,357,o),
(750,369,o),
(750,378,cs),
(750,396,o),
(760,410,o),
(784,412,cs),
(799,413,l),
(799,436,l),
(753,436,ls),
(726,436,o),
(683,425,o),
(686,390,c),
(696,390,l),
(689,421,o),
(664,436,o),
(634,436,cs),
(599,436,l),
(599,413,l),
(630,412,ls),
(657,411,o),
(671,396,o),
(671,369,cs),
(671,358,o),
(666,344,o),
(659,328,cs),
(535,48,l),
(558,49,l),
(443,344,ls),
(438,357,o),
(435,369,o),
(435,378,cs),
(435,396,o),
(445,410,o),
(469,412,cs),
(484,413,l),
(484,436,l),
(438,436,ls),
(411,436,o),
(368,425,o),
(371,390,c),
(381,390,l),
(374,421,o),
(349,436,o),
(319,436,cs),
(284,436,l),
(284,413,l),
(315,412,ls),
(342,411,o),
(356,396,o),
(356,369,cs),
(356,358,o),
(351,344,o),
(344,328,cs),
(220,48,l),
(244,47,l),
(136,346,ls),
(132,357,o),
(131,366,o),
(131,374,cs),
(131,397,o),
(147,409,o),
(181,412,cs),
(191,413,l),
(191,436,l),
(93,433,l),
(-13,436,l),
(-13,413,l),
(-2,412,ls),
(31,409,o),
(51,383,o),
(67,339,cs),
(190,0,l)
);
}
);
width = 2028;
},
{
layerId = m002;
shapes = (
{
closed = 1;
nodes = (
(290,0,l),
(402,291,l),
(393,291,l),
(505,0,l),
(610,0,l),
(738,334,l),
(706,306,l),
(824,0,l),
(929,0,l),
(1041,291,l),
(1032,291,l),
(1144,0,l),
(1249,0,l),
(1377,334,l),
(1342,315,l),
(1463,0,l),
(1568,0,l),
(1680,291,l),
(1671,291,l),
(1783,0,l),
(1888,0,l),
(2016,334,ls),
(2035,383,o),
(2047,409,o),
(2073,411,cs),
(2084,412,l),
(2084,446,l),
(2020,443,l),
(1916,446,l),
(1916,412,l),
(1943,411,ls),
(1973,410,o),
(1985,397,o),
(1985,378,cs),
(1985,368,o),
(1981,357,o),
(1976,344,cs),
(1876,75,l),
(1899,75,l),
(1803,348,ls),
(1799,360,o),
(1794,371,o),
(1794,383,cs),
(1794,396,o),
(1801,410,o),
(1825,411,cs),
(1852,412,l),
(1852,446,l),
(1755,446,ls),
(1694,446,o),
(1674,416,o),
(1672,377,c),
(1698,377,l),
(1698,414,o),
(1682,446,o),
(1614,446,cs),
(1586,446,l),
(1586,412,l),
(1598,412,ls),
(1640,412,o),
(1654,395,o),
(1654,365,cs),
(1654,346,o),
(1648,322,o),
(1637,293,cs),
(1557,75,l),
(1579,75,l),
(1483,348,ls),
(1479,360,o),
(1474,371,o),
(1474,379,cs),
(1474,396,o),
(1481,410,o),
(1505,411,cs),
(1532,412,l),
(1532,446,l),
(1435,446,ls),
(1374,446,o),
(1354,416,o),
(1352,377,c),
(1378,377,l),
(1378,414,o),
(1362,446,o),
(1294,446,cs),
(1266,446,l),
(1266,412,l),
(1278,412,ls),
(1320,412,o),
(1334,395,o),
(1334,365,cs),
(1334,346,o),
(1328,322,o),
(1317,293,cs),
(1237,75,l),
(1260,75,l),
(1164,348,ls),
(1160,360,o),
(1155,371,o),
(1155,383,cs),
(1155,396,o),
(1162,410,o),
(1186,411,cs),
(1213,412,l),
(1213,446,l),
(1116,446,ls),
(1055,446,o),
(1035,416,o),
(1033,377,c),
(1059,377,l),
(1059,414,o),
(1043,446,o),
(975,446,cs),
(947,446,l),
(947,412,l),
(959,412,ls),
(1001,412,o),
(1015,395,o),
(1015,365,cs),
(1015,346,o),
(1009,322,o),
(998,293,cs),
(918,75,l),
(940,75,l),
(844,348,ls),
(840,360,o),
(835,371,o),
(835,379,cs),
(835,396,o),
(842,410,o),
(866,411,cs),
(893,412,l),
(893,446,l),
(796,446,ls),
(735,446,o),
(715,416,o),
(713,377,c),
(739,377,l),
(739,414,o),
(723,446,o),
(655,446,cs),
(627,446,l),
(627,412,l),
(639,412,ls),
(681,412,o),
(695,395,o),
(695,365,cs),
(695,346,o),
(689,322,o),
(678,293,cs),
(598,75,l),
(621,75,l),
(525,348,ls),
(521,360,o),
(516,371,o),
(516,383,cs),
(516,396,o),
(523,410,o),
(547,411,cs),
(574,412,l),
(574,446,l),
(477,446,ls),
(416,446,o),
(396,416,o),
(394,377,c),
(420,377,l),
(420,414,o),
(404,446,o),
(336,446,cs),
(308,446,l),
(308,412,l),
(320,412,ls),
(362,412,o),
(376,395,o),
(376,365,cs),
(376,346,o),
(370,322,o),
(359,293,cs),
(279,75,l),
(301,75,l),
(205,348,ls),
(201,360,o),
(196,371,o),
(196,379,cs),
(196,396,o),
(203,410,o),
(227,411,cs),
(254,412,l),
(254,446,l),
(115,443,l),
(-14,446,l),
(-14,412,l),
(4,410,ls),
(29,407,o),
(37,383,o),
(47,358,cs),
(185,0,l)
);
}
);
width = 2090;
}
);
metricLeft = w;
metricRight = w;
},
{
color = 6;
glyphname = Fhook.sc;
kernLeft = H;
kernRight = F;
lastChange = "2025-02-28 12:20:44 +0000";
layers = (
{
anchors = (
{
name = bottom;
pos = (225,0);
},
{
name = top;
pos = (242,457);
}
);
layerId = "9372F035-DA38-4B54-966C-CEBA9B53DD02";
shapes = (
{
closed = 1;
nodes = (
(181,224,l),
(262,224,ls),
(293,224,o),
(308,196,o),
(308,135,c),
(329,135,l),
(326,237,l),
(329,327,l),
(308,327,l),
(305,271,o),
(293,248,o),
(265,248,cs),
(181,248,l)
);
},
{
closed = 1;
nodes = (
(187,432,l),
(275,432,ls),
(353,432,o),
(373,418,o),
(397,344,c),
(418,344,l),
(411,457,l),
(147,457,l),
(30,460,l),
(30,437,l),
(46,435,ls),
(110,427,o),
(117,417,o),
(117,335,cs),
(117,-65,ls),
(117,-146,o),
(100,-187,o),
(65,-187,cs),
(45,-187,o),
(34,-174,o),
(41,-148,cs),
(45,-133,ls),
(53,-103,o),
(36,-81,o),
(4,-81,cs),
(-28,-81,o),
(-49,-104,o),
(-49,-137,cs),
(-49,-181,o),
(-10,-208,o),
(47,-208,cs),
(132,-208,o),
(187,-149,o),
(187,-66,cs)
);
}
);
width = 452;
},
{
anchors = (
{
name = bottom;
pos = (225,0);
},
{
name = top;
pos = (337,720);
}
);
layerId = m002;
shapes = (
{
closed = 1;
nodes = (
(218,217,l),
(266,217,ls),
(311,217,o),
(327,198,o),
(333,136,c),
(367,136,l),
(364,237,l),
(367,330,l),
(333,330,l),
(324,274,o),
(309,257,o),
(269,257,cs),
(218,257,l)
);
},
{
closed = 1;
nodes = (
(228,425,l),
(284,425,ls),
(366,425,o),
(387,409,o),
(412,328,c),
(448,328,l),
(439,462,l),
(163,462,l),
(19,465,l),
(19,431,l),
(35,429,ls),
(81,423,o),
(87,412,o),
(87,338,cs),
(87,-32,ls),
(87,-135,o),
(73,-170,o),
(34,-170,cs),
(9,-170,o),
(0,-157,o),
(5,-126,cs),
(6,-120,ls),
(14,-70,o),
(-9,-40,o),
(-55,-40,cs),
(-98,-40,o),
(-125,-65,o),
(-125,-107,cs),
(-125,-170,o),
(-63,-210,o),
(36,-210,cs),
(164,-210,o),
(227,-145,o),
(227,-13,cs)
);
}
);
width = 472;
}
);
metricRight = f.sc;
},
{
color = 6;
glyphname = a.sc;
kernLeft = a.sc;
kernRight = a.sc;
lastChange = "2025-02-28 12:20:44 +0000";
layers = (
{
anchors = (
{
name = bottom;
pos = (221,0);
},
{
name = ogonek;
pos = (407,0);
},
{
name = top;
pos = (257,457);
}
);
layerId = "9372F035-DA38-4B54-966C-CEBA9B53DD02";
shapes = (
{
closed = 1;
nodes = (
(77,0,l),
(152,-3,l),
(152,18,l),
(126,21,ls),
(99,24,o),
(98,40,o),
(120,94,cs),
(246,406,l),
(223,406,l),
(354,78,ls),
(366,48,o),
(360,30,o),
(335,25,cs),
(297,18,l),
(297,-3,l),
(414,0,l),
(513,-3,l),
(513,18,l),
(483,25,ls),
(455,31,o),
(443,48,o),
(414,118,cs),
(274,457,l),
(241,457,l),
(90,92,ls),
(68,41,o),
(58,30,o),
(18,21,cs),
(4,18,l),
(4,-3,l)
);
},
{
closed = 1;
nodes = (
(329,155,l),
(320,180,l),
(147,180,l),
(136,155,l)
);
}
);
width = 517;
},
{
anchors = (
{
name = bottom;
pos = (212,0);
},
{
name = ogonek;
pos = (411,0);
},
{
name = top;
pos = (262,462);
}
);
layerId = m002;
shapes = (
{
closed = 1;
nodes = (
(74,0,l),
(174,-3,l),
(174,31,l),
(148,33,ls),
(108,37,o),
(94,63,o),
(111,104,cs),
(226,385,l),
(212,385,l),
(324,96,ls),
(334,71,o),
(339,39,o),
(301,34,cs),
(278,31,l),
(278,-3,l),
(405,0,l),
(545,-3,l),
(545,31,l),
(530,34,ls),
(500,40,o),
(490,58,o),
(467,115,cs),
(327,462,l),
(213,462,l),
(68,115,ls),
(43,56,o),
(30,37,o),
(0,32,cs),
(-6,31,l),
(-6,-3,l)
);
},
{
closed = 1;
nodes = (
(330,137,l),
(311,182,l),
(138,182,l),
(117,137,l)
);
}
);
width = 539;
}
);
},
{
color = 6;
glyphname = aogonek.sc;
lastChange = "2025-02-28 12:20:44 +0000";
layers = (
{
anchors = (
{
name = bottom;
pos = (221,0);
},
{
name = ogonek;
pos = (407,0);
},
{
name = top;
pos = (261,457);
}
);
layerId = "9372F035-DA38-4B54-966C-CEBA9B53DD02";
shapes = (
{
closed = 1;
nodes = (
(329,155,l),
(320,180,l),
(147,180,l),
(136,155,l)
);
},
{
closed = 1;
nodes = (
(257,-97,o),
(231,-140,o),
(231,-190,cs),
(231,-251,o),
(277,-294,o),
(341,-294,cs),
(408,-294,o),
(461,-248,o),
(469,-183,c),
(452,-170,l),
(432,-214,o),
(397,-239,o),
(357,-239,cs),
(313,-239,o),
(281,-206,o),
(281,-161,cs),
(281,-89,o),
(361,2,o),
(448,-1,cs),
(513,-3,l),
(513,18,l),
(483,25,ls),
(454,32,o),
(442,48,o),
(414,118,cs),
(274,457,l),
(241,457,l),
(90,92,ls),
(68,41,o),
(58,30,o),
(18,21,cs),
(4,18,l),
(4,-3,l),
(77,0,l),
(152,-3,l),
(152,18,l),
(126,21,ls),
(99,24,o),
(98,40,o),
(120,94,cs),
(246,406,l),
(223,406,l),
(354,78,ls),
(373,29,o),
(372,23,o),
(341,-9,cs)
);
}
);
width = 517;
},
{
anchors = (
{
name = bottom;
pos = (212,0);
},
{
name = ogonek;
pos = (411,0);
},
{
name = top;
pos = (262,462);
}
);
layerId = m002;
shapes = (
{
closed = 1;
nodes = (
(330,137,l),
(311,182,l),
(138,182,l),
(117,137,l)
);
},
{
closed = 1;
nodes = (
(251,-92,o),
(218,-140,o),
(218,-188,cs),
(218,-249,o),
(272,-293,o),
(346,-293,cs),
(417,-293,o),
(473,-252,o),
(495,-184,c),
(472,-166,l),
(450,-202,o),
(426,-218,o),
(395,-218,cs),
(352,-218,o),
(324,-186,o),
(324,-139,cs),
(324,-61,o),
(384,1,o),
(459,-1,cs),
(545,-3,l),
(545,31,l),
(530,34,ls),
(502,40,o),
(492,53,o),
(467,115,cs),
(327,462,l),
(213,462,l),
(68,115,ls),
(42,53,o),
(29,37,o),
(0,32,cs),
(-6,31,l),
(-6,-3,l),
(74,0,l),
(174,-3,l),
(174,31,l),
(148,33,ls),
(108,36,o),
(94,63,o),
(111,104,cs),
(226,385,l),
(212,385,l),
(334,70,ls),
(358,10,o),
(357,-4,o),
(327,-29,cs)
);
}
);
width = 539;
}
);
},
{
color = 6;
glyphname = ae.sc;
kernLeft = AE.sc;
kernRight = H;
lastChange = "2025-02-28 12:20:44 +0000";
layers = (
{
anchors = (
{
name = bottom;
pos = (437,0);
},
{
name = ogonek;
pos = (623,10);
}
);
layerId = "9372F035-DA38-4B54-966C-CEBA9B53DD02";
shapes = (
{
closed = 1;
nodes = (
(39,0,l),
(117,-3,l),
(117,20,l),
(91,23,ls),
(70,25,o),
(67,37,o),
(82,58,cs),
(341,428,l),
(323,433,l),
(323,121,ls),
(323,40,o),
(315,30,o),
(250,22,cs),
(234,20,l),
(234,-3,l),
(357,0,l),
(643,0,l),
(643,68,l),
(650,144,l),
(629,144,l),
(607,47,o),
(589,27,o),
(524,27,cs),
(458,27,ls),
(411,27,o),
(392,41,o),
(392,78,cs),
(392,431,l),
(485,431,ls),
(566,431,o),
(586,417,o),
(609,344,c),
(628,344,l),
(621,410,l),
(621,457,l),
(358,457,l),
(243,460,l),
(243,437,l),
(263,435,ls),
(295,432,o),
(303,415,o),
(285,389,cs),
(74,92,ls),
(39,43,o),
(25,33,o),
(-20,23,cs),
(-34,20,l),
(-34,-3,l)
);
},
{
closed = 1;
nodes = (
(328,155,l),
(328,180,l),
(158,180,l),
(141,155,l)
);
},
{
closed = 1;
nodes = (
(540,135,l),
(538,238,l),
(540,327,l),
(518,327,l),
(515,272,o),
(502,248,o),
(475,248,cs),
(386,248,l),
(386,224,l),
(472,224,ls),
(503,224,o),
(518,195,o),
(518,135,c)
);
}
);
width = 690;
},
{
anchors = (
{
name = bottom;
pos = (437,0);
},
{
name = ogonek;
pos = (623,10);
}
);
layerId = m002;
shapes = (
{
closed = 1;
nodes = (
(72,0,l),
(172,-3,l),
(172,31,l),
(146,33,ls),
(110,36,o),
(102,58,o),
(125,92,cs),
(362,432,l),
(327,428,l),
(327,122,ls),
(327,49,o),
(321,39,o),
(275,33,cs),
(259,31,l),
(259,-3,l),
(397,0,l),
(700,-2,l),
(702,75,l),
(707,164,l),
(671,164,l),
(640,68,o),
(608,35,o),
(544,35,cs),
(531,35,ls),
(484,35,o),
(468,56,o),
(468,119,cs),
(468,425,l),
(524,425,ls),
(606,425,o),
(627,409,o),
(652,328,c),
(688,328,l),
(682,417,l),
(682,462,l),
(403,462,l),
(249,465,l),
(249,431,l),
(261,429,ls),
(286,425,o),
(292,409,o),
(276,386,cs),
(88,115,ls),
(47,57,o),
(24,36,o),
(-2,32,cs),
(-8,31,l),
(-8,-3,l)
);
},
{
closed = 1;
nodes = (
(376,137,l),
(376,182,l),
(154,182,l),
(133,137,l)
);
},
{
closed = 1;
nodes = (
(603,136,l),
(600,237,l),
(603,330,l),
(569,330,l),
(560,274,o),
(545,257,o),
(505,257,cs),
(452,257,l),
(452,217,l),
(502,217,ls),
(547,217,o),
(563,198,o),
(569,136,c)
);
}
);
width = 727;
}
);
metricRight = E;
},
{
color = 6;
glyphname = b.sc;
kernLeft = H;
kernRight = B;
lastChange = "2025-02-28 12:20:44 +0000";
layers = (
{
anchors = (
{
name = bottom;
pos = (262,0);
},
{
name = top;
pos = (262,457);
}
);
layerId = "9372F035-DA38-4B54-966C-CEBA9B53DD02";
shapes = (
{
closed = 1;
nodes = (
(152,0,l),
(323,0,ls),
(407,0,o),
(474,60,o),
(474,134,cs),
(474,203,o),
(416,244,o),
(312,250,c),
(315,245,l),
(395,255,o),
(445,298,o),
(445,356,cs),
(445,421,o),
(380,457,o),
(265,457,cs),
(153,457,l),
(30,460,l),
(30,437,l),
(46,435,ls),
(110,427,o),
(118,416,o),
(118,335,cs),
(118,121,ls),
(118,40,o),
(110,30,o),
(45,22,cs),
(29,20,l),
(29,-3,l)
);
},
{
closed = 1;
nodes = (
(207,24,o),
(185,49,o),
(185,96,cs),
(185,433,l),
(245,433,ls),
(334,433,o),
(368,410,o),
(368,348,cs),
(368,289,o),
(337,254,o),
(284,254,cs),
(179,254,l),
(179,230,l),
(260,230,ls),
(361,230,o),
(397,203,o),
(397,130,cs),
(397,59,o),
(362,24,o),
(288,24,cs),
(250,24,ls)
);
}
);
width = 511;
},
{
anchors = (
{
name = bottom;
pos = (262,0);
},
{
name = top;
pos = (262,462);
}
);
layerId = m002;
shapes = (
{
closed = 1;
nodes = (
(158,0,l),
(323,0,ls),
(445,0,o),
(532,56,o),
(532,136,cs),
(532,213,o),
(447,257,o),
(304,254,c),
(309,243,l),
(432,243,o),
(507,286,o),
(507,357,cs),
(507,426,o),
(434,464,o),
(305,463,cs),
(163,462,l),
(19,465,l),
(19,431,l),
(35,429,ls),
(81,423,o),
(87,412,o),
(87,338,cs),
(87,122,ls),
(87,48,o),
(81,39,o),
(36,33,cs),
(20,31,l),
(20,-3,l)
);
},
{
closed = 1;
nodes = (
(236,33,o),
(228,46,o),
(228,122,cs),
(228,425,l),
(274,425,ls),
(332,425,o),
(357,401,o),
(357,348,cs),
(357,289,o),
(330,261,o),
(273,261,cs),
(180,261,l),
(180,225,l),
(260,225,ls),
(350,225,o),
(382,201,o),
(382,134,cs),
(382,66,o),
(350,33,o),
(286,33,cs),
(280,33,ls)
);
}
);
width = 558;
}
);
metricLeft = i.sc;
},
{
color = 6;
glyphname = c.sc;
kernLeft = o.sc;
kernRight = C;
lastChange = "2025-02-28 12:20:44 +0000";
layers = (
{
anchors = (
{
name = bottom;
pos = (285,0);
},
{
name = top;
pos = (275,457);
}
);
layerId = "9372F035-DA38-4B54-966C-CEBA9B53DD02";
shapes = (
{
closed = 1;
nodes = (
(303,-11,o),
(331,-4,o),
(374,19,cs),
(398,32,o),
(404,34,o),
(411,34,cs),
(423,34,o),
(432,22,o),
(435,0,c),
(453,0,l),
(450,88,l),
(452,176,l),
(428,176,l),
(419,83,o),
(357,19,o),
(274,19,cs),
(182,19,o),
(127,94,o),
(127,219,cs),
(127,358,o),
(184,441,o),
(278,441,cs),
(355,441,o),
(411,390,o),
(426,307,c),
(450,307,l),
(449,389,l),
(452,461,l),
(427,461,l),
(426,442,o),
(421,433,o),
(411,433,cs),
(402,433,o),
(394,436,o),
(365,450,cs),
(340,462,o),
(302,471,o),
(274,471,cs),
(145,471,o),
(47,362,o),
(47,219,cs),
(47,90,o),
(141,-11,o),
(260,-11,cs)
);
}
);
width = 510;
},
{
anchors = (
{
name = bottom;
pos = (300,0);
},
{
name = top;
pos = (290,462);
}
);
layerId = m002;
shapes = (
{
closed = 1;
nodes = (
(312,-11,o),
(342,-4,o),
(386,14,cs),
(410,24,o),
(418,27,o),
(426,27,cs),
(437,27,o),
(445,18,o),
(448,0,c),
(478,0,l),
(475,89,l),
(477,178,l),
(441,178,l),
(433,99,o),
(375,38,o),
(309,38,cs),
(227,38,o),
(182,103,o),
(182,221,cs),
(182,354,o),
(228,427,o),
(313,427,cs),
(373,427,o),
(427,378,o),
(441,310,c),
(477,310,l),
(476,393,l),
(479,466,l),
(442,466,l),
(441,450,o),
(435,442,o),
(425,442,cs),
(417,442,o),
(409,445,o),
(381,456,cs),
(346,470,o),
(318,476,o),
(289,476,cs),
(137,476,o),
(32,372,o),
(32,221,cs),
(32,84,o),
(132,-11,o),
(275,-11,cs)
);
}
);
width = 531;
}
);
metricLeft = o.sc;
},
{
color = 6;
glyphname = d.sc;
kernLeft = H;
kernRight = o.sc;
lastChange = "2025-02-28 12:20:44 +0000";
layers = (
{
anchors = (
{
name = bottom;
pos = (298,0);
},
{
name = center;
pos = (171,229);
},
{
name = top;
pos = (238,457);
}
);
layerId = "9372F035-DA38-4B54-966C-CEBA9B53DD02";
shapes = (
{
closed = 1;
nodes = (
(148,0,l),
(264,0,ls),
(429,0,o),
(531,90,o),
(531,234,cs),
(531,378,o),
(432,457,o),
(251,457,cs),
(152,457,l),
(29,460,l),
(29,437,l),
(45,435,ls),
(109,427,o),
(117,416,o),
(117,335,cs),
(117,108,ls),
(117,36,o),
(110,27,o),
(52,19,cs),
(38,17,l),
(38,-3,l)
);
},
{
closed = 1;
nodes = (
(199,25,o),
(187,40,o),
(187,91,cs),
(187,432,l),
(269,432,ls),
(393,432,o),
(451,369,o),
(451,236,cs),
(451,100,o),
(385,25,o),
(267,25,cs),
(238,25,ls)
);
}
);
width = 578;
},
{
anchors = (
{
name = bottom;
pos = (298,0);
},
{
name = center;
pos = (171,231);
},
{
name = top;
pos = (238,462);
}
);
layerId = m002;
shapes = (
{
closed = 1;
nodes = (
(157,0,l),
(264,0,ls),
(448,0,o),
(561,89,o),
(561,233,cs),
(561,377,o),
(445,462,o),
(251,462,cs),
(157,462,l),
(28,465,l),
(28,431,l),
(44,429,ls),
(81,424,o),
(86,413,o),
(86,338,cs),
(86,122,ls),
(86,49,o),
(80,39,o),
(35,33,cs),
(19,31,l),
(19,-3,l)
);
},
{
closed = 1;
nodes = (
(238,41,o),
(227,52,o),
(227,83,cs),
(227,422,l),
(269,422,ls),
(371,422,o),
(411,370,o),
(411,238,cs),
(411,103,o),
(368,41,o),
(275,41,cs),
(267,41,ls)
);
}
);
width = 593;
}
);
metricLeft = i.sc;
metricRight = o.sc;
},
{
color = 3;
glyphname = eth.sc;
kernLeft = H;
kernRight = o.sc;
lastChange = "2025-02-28 12:20:44 +0000";
layers = (
{
layerId = "9372F035-DA38-4B54-966C-CEBA9B53DD02";
shapes = (
{
ref = d.sc;
},
{
closed = 1;
nodes = (
(327,215,l),
(327,240,l),
(40,240,l),
(40,215,l)
);
}
);
width = 578;
},
{
layerId = m002;
shapes = (
{
ref = d.sc;
},
{
closed = 1;
nodes = (
(325,208,l),
(325,248,l),
(28,248,l),
(28,208,l)
);
}
);
width = 593;
}
);
metricLeft = d.sc;
metricRight = d.sc;
},
{
color = 6;
glyphname = e.sc;
kernLeft = h.sc;
kernRight = h.sc;
lastChange = "2025-02-28 12:20:44 +0000";
layers = (
{
anchors = (
{
name = bottom;
pos = (232,0);
},
{
name = ogonek;
pos = (378,0);
},
{
name = top;
pos = (252,457);
},
{
name = topleft;
pos = (19,457);
}
);
layerId = "9372F035-DA38-4B54-966C-CEBA9B53DD02";
name = Regular;
shapes = (
{
closed = 1;
nodes = (
(152,0,l),
(438,0,l),
(438,63,l),
(445,144,l),
(424,144,l),
(403,49,o),
(382,25,o),
(319,25,cs),
(253,25,ls),
(206,25,o),
(187,40,o),
(187,78,c),
(187,432,l),
(280,432,ls),
(358,432,o),
(377,418,o),
(401,344,c),
(422,344,l),
(416,413,l),
(416,457,l),
(153,457,l),
(30,460,l),
(30,437,l),
(46,435,ls),
(110,427,o),
(117,417,o),
(117,335,cs),
(117,121,ls),
(117,40,o),
(109,30,o),
(45,22,cs),
(29,20,l),
(29,-3,l)
);
},
{
closed = 1;
nodes = (
(334,135,l),
(331,235,l),
(334,327,l),
(313,327,l),
(310,272,o),
(297,247,o),
(270,247,cs),
(177,247,l),
(177,224,l),
(267,224,ls),
(298,224,o),
(313,195,o),
(313,135,c)
);
}
);
width = 482;
},
{
anchors = (
{
name = bottom;
pos = (242,0);
},
{
name = ogonek;
pos = (388,0);
},
{
name = top;
pos = (262,462);
},
{
name = topleft;
pos = (29,462);
}
);
layerId = m002;
name = Bold;
shapes = (
{
closed = 1;
nodes = (
(157,0,l),
(460,0,l),
(462,74,l),
(467,164,l),
(431,164,l),
(400,68,o),
(368,35,o),
(304,35,cs),
(291,35,ls),
(244,35,o),
(228,56,o),
(228,119,cs),
(228,425,l),
(284,425,ls),
(366,425,o),
(387,409,o),
(412,328,c),
(448,328,l),
(442,417,l),
(442,462,l),
(163,462,l),
(19,465,l),
(19,431,l),
(35,429,ls),
(81,423,o),
(87,412,o),
(87,338,cs),
(87,122,ls),
(87,49,o),
(81,39,o),
(35,33,cs),
(19,31,l),
(19,-3,l)
);
},
{
closed = 1;
nodes = (
(363,136,l),
(360,237,l),
(363,330,l),
(329,330,l),
(320,274,o),
(305,257,o),
(265,257,cs),
(212,257,l),
(212,217,l),
(262,217,ls),
(307,217,o),
(323,198,o),
(329,136,c)
);
}
);
width = 494;
}
);
metricLeft = i.sc;
},
{
color = 3;
glyphname = eogonek.sc;
kernLeft = H;
kernRight = H;
lastChange = "2025-02-28 12:20:44 +0000";
layers = (
{
layerId = "9372F035-DA38-4B54-966C-CEBA9B53DD02";
shapes = (
{
closed = 1;
nodes = (
(379,-284,o),
(421,-246,o),
(440,-172,c),
(423,-160,l),
(402,-204,o),
(368,-229,o),
(328,-229,cs),
(285,-229,o),
(257,-201,o),
(257,-159,cs),
(257,-82,o),
(351,0,o),
(438,0,c),
(394,28,l),
(270,-42,o),
(204,-107,o),
(204,-181,cs),
(204,-243,o),
(249,-284,o),
(315,-284,cs)
);
},
{
ref = e.sc;
}
);
width = 482;
},
{
layerId = m002;
shapes = (
{
closed = 1;
nodes = (
(394,-293,o),
(450,-252,o),
(472,-184,c),
(449,-166,l),
(426,-203,o),
(403,-218,o),
(371,-218,cs),
(329,-218,o),
(301,-192,o),
(301,-145,cs),
(301,-73,o),
(384,-2,o),
(460,0,c),
(424,28,l),
(267,-38,o),
(195,-104,o),
(195,-179,cs),
(195,-246,o),
(247,-293,o),
(323,-293,cs)
);
},
{
ref = e.sc;
}
);
width = 494;
}
);
metricWidth = e.sc;
},
{
color = 6;
glyphname = f.sc;
kernLeft = H;
kernRight = F;
lastChange = "2025-02-28 12:20:44 +0000";
layers = (
{
anchors = (
{
name = bottom;
pos = (225,0);
},
{
name = top;
pos = (245,457);
}
);
layerId = "9372F035-DA38-4B54-966C-CEBA9B53DD02";
shapes = (
{
closed = 1;
nodes = (
(152,0,l),
(295,-3,l),
(295,20,l),
(279,22,ls),
(195,32,o),
(187,41,o),
(187,121,cs),
(187,224,l),
(262,224,ls),
(293,224,o),
(308,195,o),
(308,135,c),
(329,135,l),
(326,237,l),
(329,327,l),
(308,327,l),
(305,270,o),
(293,248,o),
(265,248,cs),
(187,248,l),
(187,432,l),
(275,432,ls),
(353,432,o),
(373,418,o),
(397,344,c),
(418,344,l),
(411,457,l),
(147,457,l),
(30,460,l),
(30,437,l),
(46,435,ls),
(110,427,o),
(117,417,o),
(117,335,cs),
(117,121,ls),
(117,40,o),
(109,30,o),
(45,22,cs),
(29,20,l),
(29,-3,l)
);
}
);
width = 452;
},
{
anchors = (
{
name = bottom;
pos = (225,0);
},
{
name = top;
pos = (245,462);
}
);
layerId = m002;
shapes = (
{
closed = 1;
nodes = (
(158,0,l),
(296,-3,l),
(296,31,l),
(280,33,ls),
(234,39,o),
(228,49,o),
(228,122,cs),
(228,217,l),
(266,217,ls),
(311,217,o),
(327,198,o),
(333,136,c),
(367,136,l),
(364,237,l),
(367,330,l),
(333,330,l),
(324,274,o),
(309,257,o),
(269,257,cs),
(228,257,l),
(228,425,l),
(284,425,ls),
(366,425,o),
(387,409,o),
(412,328,c),
(448,328,l),
(439,462,l),
(163,462,l),
(19,465,l),
(19,431,l),
(35,429,ls),
(81,423,o),
(87,412,o),
(87,338,cs),
(87,122,ls),
(87,48,o),
(81,39,o),
(36,33,cs),
(20,31,l),
(20,-3,l)
);
}
);
width = 472;
}
);
metricLeft = i.sc;
},
{
color = 6;
glyphname = g.sc;
kernLeft = o.sc;
kernRight = G;
lastChange = "2025-02-28 12:20:44 +0000";
layers = (
{
anchors = (
{
name = bottom;
pos = (311,0);
},
{
name = top;
pos = (271,457);
}
);
layerId = "9372F035-DA38-4B54-966C-CEBA9B53DD02";
shapes = (
{
closed = 1;
nodes = (
(304,-11,o),
(340,0,o),
(393,28,cs),
(418,40,o),
(426,43,o),
(440,43,cs),
(457,43,o),
(472,37,o),
(478,28,c),
(495,41,l),
(490,49,ls),
(481,63,o),
(475,84,o),
(475,100,cs),
(475,113,ls),
(475,149,o),
(486,169,o),
(505,170,cs),
(535,172,l),
(535,194,l),
(435,191,l),
(327,194,l),
(327,172,l),
(355,170,ls),
(390,168,o),
(405,154,o),
(405,125,cs),
(405,89,ls),
(405,54,o),
(342,19,o),
(277,19,cs),
(181,19,o),
(127,92,o),
(127,223,cs),
(127,359,o),
(185,441,o),
(281,441,cs),
(356,441,o),
(410,391,o),
(426,306,c),
(447,306,l),
(444,385,l),
(447,462,l),
(426,462,l),
(423,440,o),
(419,433,o),
(410,433,cs),
(404,433,o),
(394,437,o),
(380,444,cs),
(338,465,o),
(308,471,o),
(272,471,cs),
(143,471,o),
(47,364,o),
(47,219,cs),
(47,82,o),
(133,-11,o),
(261,-11,cs)
);
}
);
width = 557;
},
{
anchors = (
{
name = bottom;
pos = (311,0);
},
{
name = top;
pos = (271,462);
}
);
layerId = m002;
shapes = (
{
closed = 1;
nodes = (
(318,-11,o),
(342,-6,o),
(397,15,cs),
(425,25,o),
(435,28,o),
(448,28,cs),
(468,28,o),
(480,21,o),
(487,7,c),
(517,25,l),
(513,33,ls),
(506,48,o),
(498,73,o),
(498,95,cs),
(498,114,ls),
(498,153,o),
(507,171,o),
(528,173,cs),
(554,175,l),
(554,208,l),
(434,205,l),
(315,208,l),
(315,175,l),
(335,173,ls),
(368,170,o),
(374,164,o),
(374,136,cs),
(374,95,ls),
(374,62,o),
(350,38,o),
(302,38,cs),
(224,38,o),
(182,103,o),
(182,224,cs),
(182,352,o),
(229,427,o),
(310,427,cs),
(374,427,o),
(425,381,o),
(441,310,c),
(477,310,l),
(476,393,l),
(479,466,l),
(442,466,l),
(441,449,o),
(436,442,o),
(425,442,cs),
(417,442,o),
(412,444,o),
(381,456,cs),
(345,470,o),
(317,476,o),
(283,476,cs),
(137,476,o),
(32,370,o),
(32,224,cs),
(32,83,o),
(130,-11,o),
(278,-11,cs)
);
}
);
width = 563;
}
);
metricLeft = o.sc;
},
{
color = 6;
glyphname = h.sc;
kernLeft = H;
kernRight = H;
lastChange = "2025-02-28 12:20:44 +0000";
layers = (
{
anchors = (
{
name = bottom;
pos = (314,0);
},
{
name = center;
pos = (314,328);
},
{
name = top;
pos = (314,457);
},
{
name = topleft;
pos = (49,457);
}
);
layerId = "9372F035-DA38-4B54-966C-CEBA9B53DD02";
shapes = (
{
closed = 1;
nodes = (
(153,0,l),
(276,-3,l),
(276,20,l),
(260,22,ls),
(196,30,o),
(188,40,o),
(188,121,cs),
(188,335,ls),
(188,416,o),
(196,427,o),
(260,435,cs),
(276,437,l),
(276,460,l),
(153,457,l),
(152,457,l),
(29,460,l),
(29,437,l),
(45,435,ls),
(109,427,o),
(117,416,o),
(117,335,cs),
(117,121,ls),
(117,40,o),
(110,30,o),
(46,22,cs),
(30,20,l),
(30,-3,l)
);
},
{
closed = 1;
nodes = (
(446,213,l),
(446,238,l),
(182,238,l),
(182,213,l)
);
},
{
closed = 1;
nodes = (
(475,0,l),
(598,-3,l),
(598,20,l),
(582,22,ls),
(518,30,o),
(510,40,o),
(510,121,cs),
(510,335,ls),
(510,416,o),
(518,427,o),
(582,435,cs),
(598,437,l),
(598,460,l),
(475,457,l),
(352,460,l),
(352,437,l),
(368,435,ls),
(432,427,o),
(440,416,o),
(440,335,cs),
(440,121,ls),
(440,40,o),
(432,30,o),
(368,22,cs),
(352,20,l),
(352,-3,l)
);
}
);
width = 627;
},
{
anchors = (
{
name = bottom;
pos = (323,0);
},
{
name = center;
pos = (323,331);
},
{
name = top;
pos = (323,462);
},
{
name = topleft;
pos = (58,462);
}
);
layerId = m002;
shapes = (
{
closed = 1;
nodes = (
(157,0,l),
(295,-3,l),
(295,31,l),
(279,33,ls),
(239,38,o),
(227,40,o),
(227,122,cs),
(227,338,ls),
(227,422,o),
(236,425,o),
(269,429,cs),
(285,431,l),
(285,465,l),
(157,462,l),
(156,462,l),
(28,465,l),
(28,431,l),
(44,429,ls),
(76,425,o),
(86,423,o),
(86,338,cs),
(86,122,ls),
(86,43,o),
(77,38,o),
(35,33,cs),
(19,31,l),
(19,-3,l)
);
},
{
closed = 1;
nodes = (
(455,205,l),
(455,251,l),
(191,251,l),
(191,205,l)
);
},
{
closed = 1;
nodes = (
(489,0,l),
(627,-3,l),
(627,31,l),
(611,33,ls),
(571,38,o),
(559,40,o),
(559,122,cs),
(559,338,ls),
(559,422,o),
(568,425,o),
(601,429,cs),
(617,431,l),
(617,465,l),
(489,462,l),
(361,465,l),
(361,431,l),
(377,429,ls),
(409,425,o),
(419,423,o),
(419,338,cs),
(419,122,ls),
(419,44,o),
(412,39,o),
(367,33,cs),
(351,31,l),
(351,-3,l)
);
}
);
width = 646;
}
);
metricLeft = i.sc;
metricRight = i.sc;
},
{
color = 3;
glyphname = hbar.sc;
kernLeft = H;
kernRight = H;
lastChange = "2025-02-28 12:20:44 +0000";
layers = (
{
layerId = "9372F035-DA38-4B54-966C-CEBA9B53DD02";
shapes = (
{
ref = h.sc;
},
{
closed = 1;
nodes = (
(476,286,l),
(476,311,l),
(151,311,l),
(151,286,l)
);
}
);
width = 627;
},
{
layerId = m002;
shapes = (
{
ref = h.sc;
},
{
closed = 1;
nodes = (
(487,292,l),
(487,338,l),
(155,338,l),
(155,292,l)
);
}
);
width = 646;
}
);
},
{
color = 6;
glyphname = i.sc;
kernLeft = H;
kernRight = H;
lastChange = "2025-02-28 12:20:44 +0000";
layers = (
{
anchors = (
{
name = bottom;
pos = (153,0);
},
{
name = ogonek;
pos = (198,0);
},
{
name = top;
pos = (152,457);
}
);
layerId = "9372F035-DA38-4B54-966C-CEBA9B53DD02";
shapes = (
{
closed = 1;
nodes = (
(153,0,l),
(276,-3,l),
(276,20,l),
(260,22,ls),
(195,30,o),
(187,40,o),
(187,121,cs),
(187,335,ls),
(187,416,o),
(195,427,o),
(259,435,cs),
(275,437,l),
(275,460,l),
(152,457,l),
(29,460,l),
(29,437,l),
(45,435,ls),
(109,427,o),
(117,416,o),
(117,335,cs),
(117,121,ls),
(117,40,o),
(110,30,o),
(46,22,cs),
(30,20,l),
(30,-3,l)
);
}
);
width = 305;
},
{
anchors = (
{
name = bottom;
pos = (157,0);
},
{
name = ogonek;
pos = (208,0);
},
{
name = top;
pos = (157,462);
}
);
layerId = m002;
shapes = (
{
closed = 1;
nodes = (
(157,0,l),
(295,-3,l),
(295,31,l),
(279,33,ls),
(239,38,o),
(227,40,o),
(227,122,cs),
(227,338,ls),
(227,422,o),
(236,425,o),
(269,429,cs),
(285,431,l),
(285,465,l),
(157,462,l),
(28,465,l),
(28,431,l),
(44,429,ls),
(76,425,o),
(86,423,o),
(86,338,cs),
(86,122,ls),
(86,43,o),
(77,38,o),
(35,33,cs),
(19,31,l),
(19,-3,l)
);
}
);
width = 314;
}
);
},
{
color = 6;
glyphname = j.sc;
kernLeft = J;
kernRight = U;
lastChange = "2025-02-28 12:20:44 +0000";
layers = (
{
anchors = (
{
name = bottom;
pos = (188,0);
},
{
name = top;
pos = (228,457);
}
);
layerId = "9372F035-DA38-4B54-966C-CEBA9B53DD02";
shapes = (
{
closed = 1;
nodes = (
(212,-11,o),
(266,46,o),
(266,127,cs),
(266,335,ls),
(266,416,o),
(274,427,o),
(338,435,cs),
(354,437,l),
(354,460,l),
(231,457,l),
(108,460,l),
(108,437,l),
(124,435,ls),
(188,427,o),
(196,416,o),
(196,335,cs),
(196,111,ls),
(196,47,o),
(177,15,o),
(138,15,cs),
(118,15,o),
(105,24,o),
(105,39,cs),
(105,43,o),
(106,46,o),
(109,54,cs),
(112,62,o),
(113,66,o),
(113,72,cs),
(113,92,o),
(98,106,o),
(75,106,cs),
(49,106,o),
(30,88,o),
(30,62,cs),
(30,21,o),
(76,-11,o),
(134,-11,cs)
);
}
);
width = 381;
},
{
anchors = (
{
name = bottom;
pos = (214,0);
},
{
name = top;
pos = (294,462);
}
);
layerId = m002;
shapes = (
{
closed = 1;
nodes = (
(300,-14,o),
(361,50,o),
(362,183,cs),
(363,338,ls),
(364,419,o),
(368,428,o),
(405,430,cs),
(421,431,l),
(421,465,l),
(294,462,l),
(157,465,l),
(157,431,l),
(180,429,ls),
(217,426,o),
(222,413,o),
(222,338,cs),
(222,162,ls),
(222,60,o),
(209,26,o),
(170,26,cs),
(149,26,o),
(137,36,o),
(137,54,cs),
(137,60,o),
(138,66,o),
(141,76,cs),
(144,86,o),
(145,95,o),
(145,105,cs),
(145,136,o),
(121,155,o),
(83,155,cs),
(39,155,o),
(10,129,o),
(10,90,cs),
(10,26,o),
(72,-14,o),
(172,-14,cs)
);
}
);
width = 435;
}
);
},
{
color = 6;
glyphname = k.sc;
kernLeft = H;
kernRight = K;
lastChange = "2025-02-28 12:20:44 +0000";
layers = (
{
anchors = (
{
name = bottom;
pos = (280,0);
},
{
name = top;
pos = (300,457);
}
);
layerId = "9372F035-DA38-4B54-966C-CEBA9B53DD02";
shapes = (
{
closed = 1;
nodes = (
(153,0,l),
(266,-3,l),
(266,20,l),
(250,22,ls),
(192,30,o),
(186,39,o),
(186,121,cs),
(186,335,ls),
(186,419,o),
(192,427,o),
(249,435,cs),
(265,437,l),
(265,460,l),
(152,457,l),
(29,460,l),
(29,437,l),
(45,435,ls),
(109,427,o),
(118,415,o),
(118,335,cs),
(118,121,ls),
(118,40,o),
(110,30,o),
(46,22,cs),
(30,20,l),
(30,-3,l)
);
},
{
closed = 1;
nodes = (
(443,0,l),
(551,-2,l),
(551,20,l),
(542,22,ls),
(502,31,o),
(465,62,o),
(408,134,cs),
(287,288,l),
(236,234,l),
(359,85,ls),
(382,58,o),
(376,28,o),
(347,22,cs),
(337,20,l),
(337,-2,l)
);
},
{
closed = 1;
nodes = (
(402,386,ls),
(433,419,o),
(456,433,o),
(476,435,cs),
(499,437,l),
(499,459,l),
(412,457,l),
(330,459,l),
(330,437,l),
(348,435,ls),
(378,431,o),
(384,407,o),
(361,383,cs),
(166,179,l),
(180,153,l)
);
}
);
width = 548;
},
{
anchors = (
{
name = bottom;
pos = (290,0);
},
{
name = top;
pos = (310,462);
}
);
layerId = m002;
shapes = (
{
closed = 1;
nodes = (
(157,0,l),
(285,-3,l),
(285,31,l),
(269,33,ls),
(232,38,o),
(227,48,o),
(227,122,cs),
(227,338,ls),
(227,414,o),
(232,424,o),
(269,429,cs),
(285,431,l),
(285,465,l),
(157,462,l),
(28,465,l),
(28,431,l),
(44,429,ls),
(81,424,o),
(86,413,o),
(86,338,cs),
(86,122,ls),
(86,49,o),
(80,39,o),
(35,33,cs),
(19,31,l),
(19,-3,l)
);
},
{
closed = 1;
nodes = (
(473,0,l),
(591,-3,l),
(591,38,l),
(586,39,ls),
(561,44,o),
(524,78,o),
(498,121,cs),
(366,340,l),
(261,240,l),
(361,75,ls),
(376,50,o),
(373,34,o),
(351,32,cs),
(341,31,l),
(341,-3,l)
);
},
{
closed = 1;
nodes = (
(447,390,ls),
(475,417,o),
(501,431,o),
(523,431,cs),
(529,431,l),
(529,464,l),
(436,462,l),
(350,464,l),
(350,431,l),
(368,429,ls),
(395,426,o),
(402,406,o),
(382,387,cs),
(190,200,l),
(215,164,l)
);
}
);
width = 588;
}
);
metricLeft = i.sc;
},
{
color = 6;
glyphname = l.sc;
kernLeft = H;
kernRight = L;
lastChange = "2025-02-28 12:20:44 +0000";
layers = (
{
anchors = (
{
name = bottom;
pos = (240,0);
},
{
name = center;
pos = (176,229);
},
{
name = top;
pos = (160,457);
},
{
name = topright;
pos = (325,457);
}
);
layerId = "9372F035-DA38-4B54-966C-CEBA9B53DD02";
shapes = (
{
closed = 1;
nodes = (
(152,0,l),
(439,-2,l),
(446,164,l),
(423,164,l),
(414,67,o),
(379,25,o),
(305,25,cs),
(250,25,ls),
(202,25,o),
(187,48,o),
(187,119,cs),
(187,335,ls),
(187,416,o),
(195,427,o),
(259,435,cs),
(275,437,l),
(275,460,l),
(152,457,l),
(29,460,l),
(29,437,l),
(45,435,ls),
(109,427,o),
(117,416,o),
(117,335,cs),
(117,121,ls),
(117,40,o),
(109,30,o),
(45,22,cs),
(29,20,l),
(29,-3,l)
);
}
);
width = 473;
},
{
anchors = (
{
name = bottom;
pos = (250,0);
},
{
name = center;
pos = (181,231);
},
{
name = top;
pos = (170,462);
},
{
name = topright;
pos = (335,462);
}
);
layerId = m002;
shapes = (
{
closed = 1;
nodes = (
(157,0,l),
(454,-2,l),
(461,166,l),
(427,166,l),
(396,68,o),
(364,35,o),
(300,35,cs),
(291,35,ls),
(244,35,o),
(228,56,o),
(228,120,cs),
(228,338,ls),
(228,414,o),
(233,424,o),
(270,428,cs),
(296,431,l),
(296,465,l),
(157,462,l),
(19,465,l),
(19,431,l),
(35,429,ls),
(81,423,o),
(87,412,o),
(87,338,cs),
(87,122,ls),
(87,49,o),
(81,39,o),
(35,33,cs),
(19,31,l),
(19,-3,l)
);
}
);
width = 481;
}
);
metricLeft = i.sc;
},
{
color = 3;
glyphname = lslash.sc;
kernLeft = H;
kernRight = L;
lastChange = "2025-02-28 12:20:44 +0000";
layers = (
{
layerId = "9372F035-DA38-4B54-966C-CEBA9B53DD02";
shapes = (
{
ref = l.sc;
},
{
closed = 1;
nodes = (
(313,301,l),
(25,170,l),
(34,148,l),
(327,266,l)
);
}
);
width = 473;
},
{
layerId = m002;
shapes = (
{
ref = l.sc;
},
{
closed = 1;
nodes = (
(336,317,l),
(11,167,l),
(25,133,l),
(355,270,l)
);
}
);
width = 481;
}
);
},
{
color = 6;
glyphname = m.sc;
kernLeft = H;
kernRight = H;
lastChange = "2025-02-28 12:20:44 +0000";
layers = (
{
anchors = (
{
name = bottom;
pos = (327,0);
},
{
name = top;
pos = (327,457);
}
);
layerId = "9372F035-DA38-4B54-966C-CEBA9B53DD02";
shapes = (
{
closed = 1;
nodes = (
(111,-1,l),
(211,-3,l),
(211,20,l),
(195,22,ls),
(131,30,o),
(123,40,o),
(123,121,cs),
(123,425,l),
(109,422,l),
(307,5,l),
(324,5,l),
(521,417,l),
(506,420,l),
(506,122,ls),
(506,41,o),
(498,31,o),
(434,23,cs),
(418,21,l),
(418,-2,l),
(541,1,l),
(664,-2,l),
(664,21,l),
(648,23,ls),
(584,31,o),
(576,41,o),
(576,122,cs),
(576,378,ls),
(576,418,o),
(586,433,o),
(613,435,cs),
(648,437,l),
(648,460,l),
(547,457,l),
(512,457,l),
(326,70,l),
(353,70,l),
(171,457,l),
(133,457,l),
(10,460,l),
(10,437,l),
(26,435,ls),
(90,427,o),
(98,417,o),
(98,335,cs),
(98,121,ls),
(98,40,o),
(90,30,o),
(26,22,cs),
(10,20,l),
(10,-3,l)
);
}
);
width = 693;
},
{
anchors = (
{
name = bottom;
pos = (323,0);
},
{
name = top;
pos = (323,462);
}
);
layerId = m002;
shapes = (
{
closed = 1;
nodes = (
(107,0,l),
(207,-3,l),
(207,31,l),
(181,33,ls),
(139,36,o),
(129,53,o),
(129,122,cs),
(129,419,l),
(100,426,l),
(298,5,l),
(330,5,l),
(527,421,l),
(500,424,l),
(501,122,ls),
(501,46,o),
(495,36,o),
(450,33,cs),
(424,31,l),
(424,-3,l),
(567,0,l),
(710,-3,l),
(710,31,l),
(694,33,ls),
(648,39,o),
(642,49,o),
(642,122,cs),
(642,340,ls),
(642,413,o),
(648,424,o),
(694,429,cs),
(710,431,l),
(710,465,l),
(587,462,l),
(498,462,l),
(312,71,l),
(376,156,l),
(235,462,l),
(106,462,l),
(15,465,l),
(15,431,l),
(32,428,ls),
(76,420,o),
(84,407,o),
(84,338,cs),
(84,122,ls),
(84,53,o),
(76,38,o),
(33,33,cs),
(17,31,l),
(17,-3,l)
);
}
);
width = 729;
}
);
metricLeft = n.sc;
metricRight = i.sc;
},
{
color = 6;
glyphname = n.sc;
kernLeft = H;
kernRight = N;
lastChange = "2025-02-28 12:20:44 +0000";
layers = (
{
anchors = (
{
name = bottom;
pos = (271,0);
},
{
name = top;
pos = (281,457);
}
);
layerId = "9372F035-DA38-4B54-966C-CEBA9B53DD02";
shapes = (
{
closed = 1;
nodes = (
(459,0,l),
(459,335,ls),
(459,416,o),
(467,426,o),
(531,434,cs),
(547,436,l),
(547,459,l),
(447,457,l),
(346,459,l),
(346,436,l),
(362,434,ls),
(426,426,o),
(434,416,o),
(434,335,cs),
(434,105,l),
(439,129,l),
(366,211,o),
(194,413,o),
(159,457,c),
(13,459,l),
(13,436,l),
(27,436,ls),
(57,436,o),
(84,424,o),
(112,397,cs),
(206,307,o),
(398,69,o),
(434,0,c)
);
},
{
closed = 1;
nodes = (
(111,-1,l),
(211,-3,l),
(211,20,l),
(195,22,ls),
(131,30,o),
(123,40,o),
(123,121,cs),
(123,402,l),
(98,425,l),
(98,121,ls),
(98,40,o),
(90,30,o),
(26,22,cs),
(10,20,l),
(10,-3,l)
);
}
);
width = 554;
},
{
anchors = (
{
name = bottom;
pos = (280,0);
},
{
name = top;
pos = (290,462);
}
);
layerId = m002;
shapes = (
{
closed = 1;
nodes = (
(488,0,l),
(488,338,ls),
(488,409,o),
(496,423,o),
(539,428,cs),
(555,430,l),
(555,465,l),
(465,462,l),
(365,465,l),
(365,430,l),
(391,428,ls),
(433,425,o),
(443,408,o),
(443,338,cs),
(443,44,l),
(464,168,l),
(408,227,o),
(284,372,o),
(212,462,c),
(15,464,l),
(15,430,l),
(24,430,ls),
(44,430,o),
(58,420,o),
(92,383,cs),
(236,225,o),
(374,59,o),
(413,0,c)
);
},
{
closed = 1;
nodes = (
(108,0,l),
(208,-3,l),
(208,31,l),
(182,33,ls),
(140,36,o),
(130,53,o),
(130,122,cs),
(130,419,l),
(85,448,l),
(85,122,ls),
(85,53,o),
(77,38,o),
(34,33,cs),
(18,31,l),
(18,-3,l)
);
}
);
width = 567;
}
);
},
{
color = 3;
glyphname = eng.sc;
kernLeft = H;
kernRight = N;
lastChange = "2025-02-28 12:20:44 +0000";
layers = (
{
layerId = "9372F035-DA38-4B54-966C-CEBA9B53DD02";
shapes = (
{
closed = 1;
nodes = (
(446,-294,o),
(459,-237,o),
(459,-152,cs),
(459,101,l),
(434,101,l),
(434,-152,ls),
(434,-205,o),
(429,-273,o),
(384,-273,cs),
(369,-273,o),
(360,-266,o),
(360,-251,cs),
(360,-236,o),
(364,-232,o),
(364,-217,cs),
(364,-194,o),
(346,-167,o),
(316,-167,cs),
(286,-167,o),
(268,-190,o),
(268,-223,cs),
(268,-269,o),
(304,-294,o),
(367,-294,cs)
);
},
{
ref = n.sc;
}
);
width = 554;
},
{
layerId = m002;
shapes = (
{
closed = 1;
nodes = (
(450,-297,o),
(488,-254,o),
(488,-153,cs),
(488,80,l),
(443,80,l),
(443,-163,ls),
(443,-227,o),
(427,-261,o),
(395,-261,cs),
(375,-261,o),
(363,-254,o),
(363,-237,cs),
(363,-222,o),
(374,-199,o),
(374,-184,cs),
(374,-153,o),
(349,-130,o),
(304,-130,cs),
(261,-130,o),
(236,-156,o),
(236,-194,cs),
(236,-259,o),
(284,-297,o),
(360,-297,cs)
);
},
{
ref = n.sc;
}
);
width = 567;
}
);
metricLeft = n.sc;
metricRight = n.sc;
},
{
color = 6;
glyphname = o.sc;
kernLeft = o.sc;
kernRight = o.sc;
lastChange = "2025-02-28 12:20:44 +0000";
layers = (
{
anchors = (
{
name = bottom;
pos = (303,0);
},
{
name = center;
pos = (303,230);
},
{
name = ogonek;
pos = (531,10);
},
{
name = top;
pos = (303,457);
},
{
name = topleft;
pos = (37,457);
},
{
name = topright;
pos = (568,457);
}
);
layerId = "9372F035-DA38-4B54-966C-CEBA9B53DD02";
shapes = (
{
closed = 1;
nodes = (
(445,-11,o),
(558,97,o),
(558,234,cs),
(558,369,o),
(448,471,o),
(303,471,cs),
(158,471,o),
(47,367,o),
(47,231,cs),
(47,94,o),
(158,-11,o),
(301,-11,cs)
);
},
{
closed = 1;
nodes = (
(193,19,o),
(127,99,o),
(127,234,cs),
(127,366,o),
(191,441,o),
(303,441,cs),
(416,441,o),
(478,368,o),
(478,234,cs),
(478,98,o),
(415,19,o),
(305,19,cs)
);
}
);
width = 605;
},
{
anchors = (
{
name = bottom;
pos = (308,0);
},
{
name = center;
pos = (308,231);
},
{
name = ogonek;
pos = (536,10);
},
{
name = top;
pos = (308,462);
},
{
name = topleft;
pos = (42,462);
},
{
name = topright;
pos = (573,462);
}
);
layerId = m002;
shapes = (
{
closed = 1;
nodes = (
(471,-11,o),
(583,88,o),
(583,232,cs),
(583,376,o),
(471,476,o),
(309,476,cs),
(146,476,o),
(32,376,o),
(32,232,cs),
(32,88,o),
(145,-11,o),
(308,-11,cs)
);
},
{
closed = 1;
nodes = (
(229,34,o),
(182,109,o),
(182,236,cs),
(182,361,o),
(228,431,o),
(309,431,cs),
(389,431,o),
(433,362,o),
(433,235,cs),
(433,107,o),
(388,34,o),
(309,34,cs)
);
}
);
width = 615;
}
);
},
{
color = 6;
glyphname = oe.sc;
kernLeft = o.sc;
kernRight = H;
lastChange = "2025-02-28 12:20:44 +0000";
layers = (
{
layerId = "9372F035-DA38-4B54-966C-CEBA9B53DD02";
shapes = (
{
closed = 1;
nodes = (
(362,-11,o),
(426,0,o),
(458,0,cs),
(747,0,l),
(749,63,l),
(754,144,l),
(733,144,l),
(715,63,o),
(706,27,o),
(628,27,cs),
(562,27,ls),
(510,27,o),
(496,45,o),
(496,78,cs),
(496,431,l),
(589,431,ls),
(681,431,o),
(693,406,o),
(713,344,c),
(732,344,l),
(727,413,l),
(725,457,l),
(492,457,ls),
(426,457,o),
(362,471,o),
(310,471,cs),
(175,471,o),
(47,377,o),
(47,227,cs),
(47,88,o),
(156,-11,o),
(311,-11,cs)
);
},
{
closed = 1;
nodes = (
(180,19,o),
(127,112,o),
(127,233,cs),
(127,344,o),
(172,441,o),
(304,441,cs),
(399,441,o),
(435,390,o),
(435,308,cs),
(435,138,ls),
(435,58,o),
(395,19,o),
(310,19,cs)
);
},
{
closed = 1;
nodes = (
(644,135,l),
(642,238,l),
(644,327,l),
(622,327,l),
(619,264,o),
(602,248,o),
(579,248,cs),
(490,248,l),
(490,224,l),
(576,224,ls),
(605,224,o),
(622,200,o),
(622,135,c)
);
}
);
width = 791;
},
{
layerId = m002;
shapes = (
{
closed = 1;
nodes = (
(410,-11,o),
(584,-1,o),
(523,0,cs),
(755,-2,l),
(757,74,l),
(762,164,l),
(726,164,l),
(695,68,o),
(663,35,o),
(599,35,cs),
(586,35,ls),
(539,35,o),
(523,56,o),
(523,119,cs),
(523,425,l),
(579,425,ls),
(661,425,o),
(682,409,o),
(707,328,c),
(743,328,l),
(737,417,l),
(737,462,l),
(523,462,ls),
(446,462,o),
(379,476,o),
(314,476,cs),
(143,476,o),
(32,378,o),
(32,229,cs),
(32,79,o),
(145,-11,o),
(334,-11,cs)
);
},
{
closed = 1;
nodes = (
(228,34,o),
(182,115,o),
(182,236,cs),
(182,342,o),
(217,431,o),
(305,431,cs),
(362,431,o),
(383,394,o),
(383,334,cs),
(383,130,ls),
(383,74,o),
(361,34,o),
(306,34,cs)
);
},
{
closed = 1;
nodes = (
(658,136,l),
(655,237,l),
(658,330,l),
(624,330,l),
(615,273,o),
(600,257,o),
(560,257,cs),
(507,257,l),
(507,217,l),
(557,217,ls),
(603,217,o),
(618,196,o),
(624,136,c)
);
}
);
width = 789;
}
);
metricLeft = o.sc;
metricRight = e.sc;
},
{
color = 6;
glyphname = p.sc;
kernLeft = H;
kernRight = P;
lastChange = "2025-02-28 12:20:44 +0000";
layers = (
{
anchors = (
{
name = bottom;
pos = (252,0);
},
{
name = top;
pos = (252,457);
}
);
layerId = "9372F035-DA38-4B54-966C-CEBA9B53DD02";
shapes = (
{
closed = 1;
nodes = (
(151,0,l),
(273,-3,l),
(273,20,l),
(257,22,ls),
(193,30,o),
(185,41,o),
(185,121,cs),
(185,433,l),
(273,433,ls),
(349,433,o),
(387,400,o),
(387,334,cs),
(387,262,o),
(347,223,o),
(273,223,cs),
(179,223,l),
(179,199,l),
(273,199,ls),
(394,199,o),
(465,247,o),
(465,330,cs),
(465,410,o),
(401,457,o),
(293,457,cs),
(153,457,l),
(30,460,l),
(30,437,l),
(46,435,ls),
(109,427,o),
(117,416,o),
(117,335,cs),
(117,121,ls),
(117,40,o),
(110,30,o),
(45,22,cs),
(29,20,l),
(29,-3,l)
);
}
);
width = 497;
},
{
anchors = (
{
name = bottom;
pos = (252,0);
},
{
name = top;
pos = (252,462);
}
);
layerId = m002;
shapes = (
{
closed = 1;
nodes = (
(158,0,l),
(296,-3,l),
(296,31,l),
(280,33,ls),
(234,39,o),
(228,49,o),
(228,122,cs),
(228,425,l),
(278,425,ls),
(330,425,o),
(357,397,o),
(357,334,cs),
(357,268,o),
(324,231,o),
(276,231,cs),
(180,231,l),
(180,195,l),
(293,195,ls),
(422,195,o),
(507,250,o),
(507,335,cs),
(507,419,o),
(436,464,o),
(305,463,cs),
(163,462,l),
(19,465,l),
(19,431,l),
(35,429,ls),
(81,423,o),
(87,412,o),
(87,338,cs),
(87,122,ls),
(87,48,o),
(81,38,o),
(36,33,cs),
(20,31,l),
(20,-3,l)
);
}
);
width = 523;
}
);
metricLeft = i.sc;
},
{
color = 6;
glyphname = thorn.sc;
kernLeft = H;
kernRight = D;
lastChange = "2025-02-28 12:20:44 +0000";
layers = (
{
layerId = "9372F035-DA38-4B54-966C-CEBA9B53DD02";
shapes = (
{
closed = 1;
nodes = (
(151,0,l),
(273,-3,l),
(273,20,l),
(257,22,ls),
(200,29,o),
(185,31,o),
(185,121,cs),
(185,335,ls),
(185,426,o),
(200,428,o),
(257,435,cs),
(273,437,l),
(273,460,l),
(151,457,l),
(29,460,l),
(29,437,l),
(45,435,ls),
(102,428,o),
(117,426,o),
(117,335,cs),
(117,121,ls),
(117,31,o),
(102,29,o),
(45,22,cs),
(29,20,l),
(29,-3,l)
);
},
{
closed = 1;
nodes = (
(273,107,ls),
(394,107,o),
(465,155,o),
(465,238,cs),
(465,318,o),
(401,365,o),
(293,365,cs),
(153,365,l),
(153,341,l),
(273,341,ls),
(349,341,o),
(387,308,o),
(387,242,cs),
(387,170,o),
(347,131,o),
(273,131,cs),
(159,131,l),
(159,107,l)
);
}
);
width = 497;
},
{
layerId = m002;
shapes = (
{
closed = 1;
nodes = (
(157,0,l),
(295,-3,l),
(295,31,l),
(279,33,ls),
(233,39,o),
(227,49,o),
(227,122,cs),
(227,339,ls),
(227,416,o),
(233,427,o),
(279,430,cs),
(295,431,l),
(295,466,l),
(157,463,l),
(19,466,l),
(19,431,l),
(35,429,ls),
(80,423,o),
(86,413,o),
(86,339,cs),
(86,122,ls),
(86,48,o),
(80,39,o),
(35,33,cs),
(19,31,l),
(19,-3,l)
);
},
{
closed = 1;
nodes = (
(293,102,ls),
(424,102,o),
(507,157,o),
(507,244,cs),
(507,326,o),
(435,371,o),
(305,370,cs),
(163,369,l),
(164,332,l),
(272,332,ls),
(327,332,o),
(357,303,o),
(357,238,cs),
(357,171,o),
(325,138,o),
(267,138,cs),
(180,138,l),
(180,102,l)
);
}
);
width = 523;
}
);
metricLeft = h.sc;
metricRight = p.sc;
},
{
color = 3;
glyphname = q.sc;
kernLeft = o.sc;
kernRight = o.sc;
lastChange = "2025-02-28 12:20:44 +0000";
layers = (
{
anchors = (
{
name = bottom;
pos = (269,0);
},
{
name = top;
pos = (279,455);
}
);
layerId = "9372F035-DA38-4B54-966C-CEBA9B53DD02";
shapes = (
{
closed = 1;
nodes = (
(523,-196,o),
(556,-161,o),
(563,-91,c),
(540,-91,l),
(537,-118,o),
(521,-134,o),
(494,-134,cs),
(452,-134,o),
(419,-123,o),
(357,-90,cs),
(290,-54,o),
(255,-44,o),
(208,-47,c),
(187,-62,l),
(217,-55,o),
(245,-68,o),
(305,-118,cs),
(375,-175,o),
(417,-196,o),
(466,-196,cs)
);
},
{
closed = 1;
nodes = (
(117,-117,o),
(131,-109,o),
(168,-80,cs),
(176,-73,o),
(184,-67,o),
(200,-55,c),
(319,8,l),
(275,7,l),
(179,-44,l),
(110,-47,o),
(72,-65,o),
(72,-95,cs),
(72,-108,o),
(83,-117,o),
(99,-117,cs)
);
},
{
ref = o.sc;
}
);
width = 605;
},
{
anchors = (
{
name = bottom;
pos = (269,0);
},
{
name = top;
pos = (279,455);
}
);
layerId = m002;
shapes = (
{
closed = 1;
nodes = (
(533,-217,o),
(569,-169,o),
(576,-74,c),
(546,-74,l),
(541,-99,o),
(523,-111,o),
(491,-111,cs),
(464,-111,o),
(432,-104,o),
(363,-83,cs),
(293,-61,o),
(255,-53,o),
(223,-52,c),
(193,-71,l),
(228,-76,o),
(259,-93,o),
(313,-140,cs),
(379,-197,o),
(420,-217,o),
(469,-217,cs)
);
},
{
closed = 1;
nodes = (
(111,-144,o),
(125,-136,o),
(161,-105,cs),
(183,-84,o),
(196,-74,o),
(210,-67,c),
(350,8,l),
(289,7,l),
(176,-48,l),
(94,-51,o),
(52,-71,o),
(52,-106,cs),
(52,-129,o),
(68,-144,o),
(91,-144,cs)
);
},
{
ref = o.sc;
}
);
width = 615;
}
);
metricLeft = o.sc;
},
{
color = 6;
glyphname = r.sc;
kernLeft = H;
kernRight = R;
lastChange = "2025-02-28 12:20:44 +0000";
layers = (
{
anchors = (
{
name = bottom;
pos = (279,0);
},
{
name = top;
pos = (239,457);
}
);
layerId = "9372F035-DA38-4B54-966C-CEBA9B53DD02";
shapes = (
{
closed = 1;
nodes = (
(487,-11,o),
(511,-6,o),
(538,6,c),
(531,28,l),
(522,24,o),
(514,23,o),
(504,23,cs),
(468,23,o),
(452,41,o),
(445,88,cs),
(444,95,ls),
(432,181,o),
(387,218,o),
(292,220,c),
(296,217,l),
(401,226,o),
(457,270,o),
(457,342,cs),
(457,416,o),
(397,457,o),
(290,457,cs),
(152,457,l),
(29,459,l),
(29,436,l),
(51,434,ls),
(106,429,o),
(117,412,o),
(117,335,cs),
(117,120,ls),
(117,40,o),
(109,30,o),
(45,22,cs),
(29,20,l),
(29,-3,l),
(151,0,l),
(273,-3,l),
(273,20,l),
(257,22,ls),
(193,30,o),
(185,40,o),
(185,120,cs),
(185,433,l),
(280,433,ls),
(347,433,o),
(378,403,o),
(378,338,cs),
(378,269,o),
(345,240,o),
(265,240,cs),
(179,240,l),
(179,216,l),
(243,216,ls),
(313,216,o),
(351,182,o),
(367,103,cs),
(370,88,ls),
(384,17,o),
(410,-11,o),
(463,-11,cs)
);
}
);
width = 525;
},
{
anchors = (
{
name = bottom;
pos = (279,0);
},
{
name = top;
pos = (239,462);
}
);
layerId = m002;
shapes = (
{
closed = 1;
nodes = (
(519,-11,o),
(544,-7,o),
(568,1,c),
(561,35,l),
(555,34,o),
(548,33,o),
(543,33,cs),
(527,33,o),
(518,47,o),
(509,86,cs),
(507,95,ls),
(486,190,o),
(424,230,o),
(293,232,c),
(293,211,l),
(424,211,o),
(507,263,o),
(507,345,cs),
(507,422,o),
(435,464,o),
(305,463,cs),
(163,462,l),
(19,465,l),
(19,431,l),
(35,429,ls),
(81,423,o),
(87,412,o),
(87,338,cs),
(87,122,ls),
(87,49,o),
(81,39,o),
(36,33,cs),
(20,31,l),
(20,-3,l),
(158,0,l),
(296,-3,l),
(296,31,l),
(280,33,ls),
(234,39,o),
(228,49,o),
(228,122,cs),
(228,425,l),
(284,425,ls),
(334,425,o),
(357,398,o),
(357,342,cs),
(357,278,o),
(330,247,o),
(273,247,cs),
(180,247,l),
(180,211,l),
(253,211,ls),
(311,211,o),
(335,186,o),
(350,113,cs),
(352,103,ls),
(368,24,o),
(411,-11,o),
(493,-11,cs)
);
}
);
width = 558;
}
);
metricLeft = i.sc;
},
{
color = 6;
glyphname = s.sc;
kernLeft = S;
kernRight = S;
lastChange = "2025-02-28 12:20:44 +0000";
layers = (
{
anchors = (
{
name = bottom;
pos = (207,0);
},
{
name = top;
pos = (207,457);
}
);
layerId = "9372F035-DA38-4B54-966C-CEBA9B53DD02";
shapes = (
{
closed = 1;
nodes = (
(290,-11,o),
(352,46,o),
(352,122,cs),
(352,181,o),
(316,227,o),
(248,258,cs),
(201,279,ls),
(146,304,o),
(120,333,o),
(120,370,cs),
(120,412,o),
(154,443,o),
(200,443,cs),
(257,443,o),
(301,399,o),
(313,328,c),
(334,328,l),
(333,406,l),
(335,468,l),
(313,468,l),
(312,450,o),
(309,444,o),
(300,444,cs),
(294,444,o),
(286,446,o),
(272,452,cs),
(234,467,o),
(218,471,o),
(193,471,cs),
(112,471,o),
(56,421,o),
(56,348,cs),
(56,292,o),
(88,250,o),
(151,223,cs),
(205,200,ls),
(262,176,o),
(288,145,o),
(288,101,cs),
(288,51,o),
(252,17,o),
(197,17,cs),
(124,17,o),
(68,79,o),
(60,169,c),
(37,169,l),
(41,70,l),
(38,-1,l),
(59,-1,l),
(60,19,o),
(66,27,o),
(79,27,cs),
(87,27,o),
(95,24,o),
(112,15,cs),
(147,-3,o),
(174,-11,o),
(206,-11,cs)
);
}
);
width = 389;
},
{
anchors = (
{
name = bottom;
pos = (252,0);
},
{
name = top;
pos = (242,462);
}
);
layerId = m002;
shapes = (
{
closed = 1;
nodes = (
(353,-11,o),
(421,50,o),
(421,144,cs),
(421,218,o),
(379,267,o),
(288,300,cs),
(227,322,ls),
(178,340,o),
(162,354,o),
(162,379,cs),
(162,413,o),
(191,436,o),
(235,436,cs),
(293,436,o),
(341,393,o),
(363,323,c),
(396,323,l),
(395,404,l),
(397,473,l),
(364,473,l),
(362,454,o),
(358,448,o),
(346,448,cs),
(339,448,o),
(330,450,o),
(308,458,cs),
(268,471,o),
(244,476,o),
(218,476,cs),
(118,476,o),
(50,417,o),
(50,329,cs),
(50,267,o),
(83,228,o),
(164,195,cs),
(221,172,ls),
(293,143,o),
(313,126,o),
(313,94,cs),
(313,56,o),
(280,30,o),
(232,30,cs),
(165,30,o),
(106,85,o),
(74,177,c),
(41,177,l),
(42,74,l),
(40,-1,l),
(74,-1,l),
(80,22,o),
(86,30,o),
(97,30,cs),
(103,30,o),
(109,28,o),
(130,19,cs),
(185,-4,o),
(214,-11,o),
(250,-11,cs)
);
}
);
width = 461;
}
);
},
{
color = 6;
glyphname = t.sc;
kernLeft = T;
kernRight = T;
lastChange = "2025-02-28 12:20:44 +0000";
layers = (
{
anchors = (
{
name = bottom;
pos = (260,0);
},
{
name = center;
pos = (260,229);
},
{
name = top;
pos = (257,457);
}
);
layerId = "9372F035-DA38-4B54-966C-CEBA9B53DD02";
shapes = (
{
closed = 1;
nodes = (
(257,0,l),
(386,-3,l),
(386,20,l),
(369,22,ls),
(300,30,o),
(291,41,o),
(291,121,cs),
(291,449,l),
(219,449,l),
(219,121,ls),
(219,40,o),
(211,30,o),
(144,22,cs),
(127,20,l),
(127,-3,l)
);
},
{
closed = 1;
nodes = (
(516,302,l),
(497,393,l),
(489,459,l),
(255,457,l),
(29,459,l),
(21,393,l),
(3,302,l),
(24,298,l),
(68,412,o),
(85,433,o),
(138,433,cs),
(380,433,ls),
(441,433,o),
(464,406,o),
(494,297,c)
);
}
);
width = 519;
},
{
anchors = (
{
name = bottom;
pos = (269,0);
},
{
name = center;
pos = (269,231);
},
{
name = top;
pos = (259,462);
}
);
layerId = m002;
shapes = (
{
closed = 1;
nodes = (
(265,0,l),
(403,-3,l),
(403,31,l),
(387,33,ls),
(341,39,o),
(335,49,o),
(335,122,cs),
(335,448,l),
(194,448,l),
(194,122,ls),
(194,48,o),
(188,38,o),
(143,33,cs),
(127,31,l),
(127,-3,l)
);
},
{
closed = 1;
nodes = (
(535,295,l),
(516,397,l),
(508,464,l),
(264,462,l),
(28,464,l),
(20,397,l),
(2,295,l),
(37,291,l),
(94,404,o),
(113,423,o),
(167,423,cs),
(369,423,ls),
(432,423,o),
(457,398,o),
(499,290,c)
);
}
);
width = 537;
}
);
},
{
color = 3;
glyphname = tbar.sc;
kernLeft = T;
kernRight = T;
lastChange = "2025-02-28 12:20:44 +0000";
layers = (
{
layerId = "9372F035-DA38-4B54-966C-CEBA9B53DD02";
shapes = (
{
ref = t.sc;
},
{
closed = 1;
nodes = (
(407,215,l),
(407,240,l),
(111,240,l),
(111,215,l)
);
}
);
width = 519;
},
{
layerId = m002;
shapes = (
{
ref = t.sc;
},
{
closed = 1;
nodes = (
(426,208,l),
(426,248,l),
(110,248,l),
(110,208,l)
);
}
);
width = 537;
}
);
},
{
color = 6;
glyphname = u.sc;
kernLeft = U;
kernRight = U;
lastChange = "2025-02-28 12:20:44 +0000";
layers = (
{
anchors = (
{
name = bottom;
pos = (277,0);
},
{
name = ogonek;
pos = (402,0);
},
{
name = top;
pos = (307,457);
},
{
name = topright;
pos = (531,457);
}
);
layerId = "9372F035-DA38-4B54-966C-CEBA9B53DD02";
shapes = (
{
closed = 1;
nodes = (
(412,-10,o),
(473,52,o),
(473,169,cs),
(473,334,ls),
(473,415,o),
(481,426,o),
(545,434,cs),
(561,436,l),
(561,459,l),
(460,457,l),
(359,459,l),
(359,436,l),
(375,434,ls),
(439,426,o),
(447,415,o),
(447,334,cs),
(447,169,ls),
(447,72,o),
(401,20,o),
(317,20,cs),
(230,20,o),
(180,74,o),
(180,166,cs),
(180,335,ls),
(180,416,o),
(188,427,o),
(252,435,cs),
(268,437,l),
(268,460,l),
(145,457,l),
(22,460,l),
(22,437,l),
(38,435,ls),
(102,427,o),
(110,416,o),
(110,335,cs),
(110,166,ls),
(110,56,o),
(181,-10,o),
(299,-10,cs)
);
}
);
width = 558;
},
{
anchors = (
{
name = bottom;
pos = (307,0);
},
{
name = ogonek;
pos = (398,0);
},
{
name = top;
pos = (296,462);
},
{
name = topright;
pos = (531,462);
}
);
layerId = m002;
shapes = (
{
closed = 1;
nodes = (
(419,-10,o),
(478,45,o),
(478,169,cs),
(478,338,ls),
(478,414,o),
(483,424,o),
(520,429,cs),
(536,431,l),
(536,465,l),
(452,462,l),
(359,465,l),
(359,431,l),
(375,429,ls),
(421,423,o),
(427,412,o),
(427,338,cs),
(427,169,ls),
(427,80,o),
(395,38,o),
(325,38,cs),
(254,38,o),
(221,80,o),
(221,169,cs),
(221,338,ls),
(221,414,o),
(226,424,o),
(263,429,cs),
(279,431,l),
(279,465,l),
(152,462,l),
(22,465,l),
(22,431,l),
(38,429,ls),
(75,424,o),
(80,413,o),
(80,338,cs),
(80,166,ls),
(80,51,o),
(152,-10,o),
(289,-10,cs)
);
}
);
width = 558;
}
);
},
{
color = 6;
glyphname = uogonek.sc;
kernLeft = U;
kernRight = U;
lastChange = "2025-02-28 12:20:44 +0000";
layers = (
{
anchors = (
{
name = bottom;
pos = (277,0);
},
{
name = ogonek;
pos = (402,0);
},
{
name = top;
pos = (307,457);
},
{
name = topright;
pos = (531,457);
}
);
layerId = "9372F035-DA38-4B54-966C-CEBA9B53DD02";
shapes = (
{
closed = 1;
nodes = (
(403,-284,o),
(445,-246,o),
(464,-172,c),
(447,-160,l),
(426,-205,o),
(392,-229,o),
(352,-229,cs),
(309,-229,o),
(281,-201,o),
(281,-158,cs),
(281,-112,o),
(311,-63,o),
(374,-7,cs),
(447,54,o),
(473,74,o),
(473,169,cs),
(473,334,ls),
(473,415,o),
(481,426,o),
(545,434,cs),
(561,436,l),
(561,459,l),
(460,457,l),
(359,459,l),
(359,436,l),
(375,434,ls),
(439,426,o),
(447,415,o),
(447,334,cs),
(447,169,ls),
(447,72,o),
(401,20,o),
(317,20,cs),
(230,20,o),
(180,74,o),
(180,166,cs),
(180,335,ls),
(180,416,o),
(188,427,o),
(252,435,cs),
(268,437,l),
(268,460,l),
(145,457,l),
(22,460,l),
(22,437,l),
(38,435,ls),
(102,427,o),
(110,416,o),
(110,335,cs),
(110,166,ls),
(110,56,o),
(181,-10,o),
(299,-10,cs),
(320,-10,o),
(341,-8,o),
(359,-3,c),
(365,16,l),
(265,-71,o),
(228,-125,o),
(228,-181,cs),
(228,-243,o),
(273,-284,o),
(339,-284,cs)
);
}
);
width = 558;
},
{
anchors = (
{
name = bottom;
pos = (277,0);
},
{
name = ogonek;
pos = (398,0);
},
{
name = top;
pos = (300,462);
},
{
name = topright;
pos = (531,462);
}
);
layerId = m002;
shapes = (
{
closed = 1;
nodes = (
(404,-293,o),
(460,-252,o),
(482,-184,c),
(459,-166,l),
(436,-203,o),
(413,-218,o),
(381,-218,cs),
(339,-218,o),
(311,-186,o),
(311,-138,cs),
(311,-92,o),
(338,-46,o),
(385,-4,cs),
(460,62,o),
(478,71,o),
(478,169,cs),
(478,338,ls),
(478,414,o),
(483,424,o),
(520,429,cs),
(536,431,l),
(536,465,l),
(452,462,l),
(359,465,l),
(359,431,l),
(375,429,ls),
(421,423,o),
(427,412,o),
(427,338,cs),
(427,169,ls),
(427,80,o),
(395,38,o),
(325,38,cs),
(254,38,o),
(221,80,o),
(221,169,cs),
(221,338,ls),
(221,414,o),
(226,424,o),
(263,429,cs),
(279,431,l),
(279,465,l),
(152,462,l),
(22,465,l),
(22,431,l),
(38,429,ls),
(75,424,o),
(80,413,o),
(80,338,cs),
(80,166,ls),
(80,51,o),
(152,-10,o),
(289,-10,cs),
(318,-10,o),
(344,-6,o),
(358,-1,c),
(384,30,l),
(259,-52,o),
(205,-113,o),
(205,-179,cs),
(205,-246,o),
(257,-293,o),
(333,-293,cs)
);
}
);
width = 558;
}
);
},
{
color = 6;
glyphname = v.sc;
kernLeft = V;
kernRight = V;
lastChange = "2025-02-28 12:20:44 +0000";
layers = (
{
anchors = (
{
name = bottom;
pos = (259,0);
},
{
name = top;
pos = (279,457);
}
);
layerId = "9372F035-DA38-4B54-966C-CEBA9B53DD02";
shapes = (
{
closed = 1;
nodes = (
(268,-4,l),
(431,362,ls),
(455,415,o),
(470,431,o),
(499,435,cs),
(514,437,l),
(514,460,l),
(437,457,l),
(345,460,l),
(345,437,l),
(366,435,ls),
(413,431,o),
(424,406,o),
(403,359,cs),
(270,67,l),
(293,67,l),
(163,366,ls),
(147,403,o),
(162,432,o),
(199,435,cs),
(226,437,l),
(226,460,l),
(116,457,l),
(4,460,l),
(4,437,l),
(22,434,ls),
(47,430,o),
(66,412,o),
(83,373,cs),
(251,-4,l)
);
}
);
width = 518;
},
{
anchors = (
{
name = bottom;
pos = (256,0);
},
{
name = top;
pos = (276,462);
}
);
layerId = m002;
shapes = (
{
closed = 1;
nodes = (
(326,0,l),
(471,347,ls),
(492,400,o),
(508,419,o),
(539,429,cs),
(545,431,l),
(545,465,l),
(465,462,l),
(372,465,l),
(372,431,l),
(394,428,ls),
(435,422,o),
(446,400,o),
(428,357,cs),
(313,77,l),
(329,77,l),
(215,365,ls),
(201,401,o),
(209,423,o),
(238,427,cs),
(268,431,l),
(268,465,l),
(134,462,l),
(-6,465,l),
(-6,431,l),
(9,428,ls),
(36,423,o),
(49,406,o),
(73,347,cs),
(214,0,l)
);
}
);
width = 539;
}
);
},
